<svg xmlns="http://www.w3.org/2000/svg" width="10.586" height="10.586" viewBox="0 0 10.586 10.586">
  <g id="Group_3769" data-name="Group 3769" transform="translate(115.293 -21860.598)">
    <path id="Icon_material-date-range" data-name="Icon material-date-range" d="M13.909,4.176H5.676a1.171,1.171,0,0,0-1.17,1.176L4.5,13.586a1.176,1.176,0,0,0,1.176,1.176h8.233a1.18,1.18,0,0,0,1.176-1.176V5.352A1.18,1.18,0,0,0,13.909,4.176Zm0,9.409H5.676V6.117h8.233Z" transform="translate(-119.793 21856.422)" fill="#bfbfbf"/>
    <path id="Icon_material-attach-money" data-name="Icon material-attach-money" d="M11.13,6.879c-.684-.178-.9-.361-.9-.647,0-.328.3-.557.813-.557.536,0,.735.256.753.632h.666a1.2,1.2,0,0,0-.967-1.147V4.5h-.9v.65A1.175,1.175,0,0,0,9.534,6.238c0,.7.575,1.042,1.415,1.244.753.181.9.446.9.726,0,.208-.148.539-.813.539-.62,0-.864-.277-.9-.632H9.48a1.262,1.262,0,0,0,1.108,1.153v.653h.9V9.273c.587-.111,1.054-.452,1.054-1.069C12.546,7.349,11.814,7.057,11.13,6.879Z" transform="translate(-120.851 21859.092)" fill="#bfbfbf"/>
  </g>
</svg>
