<svg version="1.2" xmlns="http://www.w3.org/2000/svg" viewBox="0 0 117 127" width="117" height="127">
	<title>logo-svg</title>
	<style>
		.s0 { fill: #b3b3b3 } 
		.s1 { fill: #ffffff } 
		.s2 { fill: #89dfed } 
	</style>
	<g id="Group_4518">
		<g id="Group_2">
			<path id="Path_1" class="s0" d="m39.9 49c2.5-1.1 5.2-1 7.8-1.7q-0.2 0-0.4 0-1.1-0.2-2.2-0.5-1-0.3-2.1-0.6-1-0.4-2.1-0.9-1-0.5-1.9-1.1c-1.2-0.6-2.3-1.1-3.4-1.6q-0.4-0.2-0.8-0.3-0.4-0.2-0.9-0.3-0.4-0.1-0.9-0.2-0.4 0-0.9-0.1-0.1 0-0.3 0.1-0.2 0-0.3 0-0.2 0-0.3 0-0.2 0.1-0.3 0.1c-2 0.6-3.1 2.9-3.5 4.8-1.3 5.7 1.3 11.6 3.9 17.2 0.6 1.4 1.2 2.7 1.7 4q1.3 3.3 2.7 6.5 0.2-0.2 0.4-0.5 0.2-0.2 0.4-0.4 0.2-0.3 0.4-0.5 0.3-0.2 0.5-0.4 0.3-0.3 0.5-0.5 0.3-0.2 0.5-0.4 0.3-0.3 0.6-0.5 0.3-0.2 0.5-0.4c-1.3-2.5-2.5-5.1-2.9-5.7-1.9-3.4-2.8-7.6-1.2-11.3q0.3-0.8 0.7-1.5 0.5-0.7 1.1-1.3 0.6-0.7 1.3-1.2 0.7-0.5 1.4-0.8z"/>
			<g id="Group_1">
				<path id="Path_2" class="s1" d="m71.8 50.5v5.4q-0.1 0.2 0 0.4 0.1 0.1 0.2 0.3 0.1 0.1 0.3 0.1 0.1 0.1 0.3 0.1h6.3v22.6c2.4-0.3 4.9-0.8 7.3-1.3v-21.3h6.3q0.2 0 0.4 0 0.1-0.1 0.3-0.2 0.1-0.2 0.1-0.3 0.1-0.2 0.1-0.4v-5.4q0-0.2-0.1-0.3 0-0.2-0.1-0.3-0.2-0.2-0.3-0.2-0.2-0.1-0.4 0h-19.9q-0.2-0.1-0.3 0-0.2 0.1-0.3 0.2-0.1 0.1-0.2 0.3-0.1 0.1 0 0.3z"/>
				<path id="Path_3" class="s1" d="m62.3 73.5v-23q0.1-0.2 0-0.3 0-0.2-0.2-0.3-0.1-0.2-0.3-0.2-0.1-0.1-0.3 0h-5.6q-0.2-0.1-0.4 0-0.2 0.1-0.3 0.2-0.1 0.1-0.2 0.3 0 0.1 0 0.3v17.3q0.5 0.2 1 0.4 0.5 0.2 1 0.5 0.5 0.2 0.9 0.5 0.5 0.3 0.9 0.6 0.5 0.4 1 0.9 0.5 0.4 0.9 0.9 0.5 0.4 0.9 0.9 0.4 0.5 0.7 1z"/>
				<path id="Path_4" class="s1" d="m73.5 89.2q-1.7 0-3.4-0.2-1.7-0.2-3.4-0.6-1.6-0.4-3.2-1.1-1.6-0.6-3.1-1.4-0.7-0.5-1.5-1.1-0.7-0.5-1.4-1.2-0.7-0.6-1.3-1.2-0.6-0.7-1.2-1.4v11q0 0.2 0 0.4 0.1 0.2 0.2 0.3 0.1 0.1 0.3 0.2 0.2 0 0.4 0h19.3q0.2 0 0.4 0 0.1-0.1 0.3-0.2 0.1-0.1 0.1-0.3 0.1-0.2 0.1-0.4v-2.9q-1.3 0.1-2.6 0.1z"/>
				<path id="Path_5" class="s1" d="m78.9 88.8v3.2q0 0.2 0 0.4 0.1 0.1 0.2 0.3 0.1 0.1 0.3 0.2 0.2 0 0.4 0h5.6q0.2 0 0.3 0 0.2-0.1 0.3-0.2 0.2-0.1 0.2-0.3 0.1-0.2 0-0.4v-4.8q-0.9 0.3-1.8 0.5-0.9 0.2-1.8 0.4-0.9 0.2-1.9 0.4-0.9 0.1-1.8 0.3z"/>
			</g>
			<path id="Path_6" class="s2" d="m25.2 37.5q1.2-0.8 2.5-1.4 1.3-0.6 2.7-0.8 1.5-0.2 2.9-0.1 1.4 0.1 2.8 0.6c4 1.4 7 4.9 11.1 5.9 4.5 1.1 9-0.8 13.3-2.4 4-1.4 8.6-2.3 12.2-0.4q0.1 0 0.1 0.1 0 0 0 0.1 0 0-0.1 0.1 0 0-0.1 0c-4-1-8.3 0.6-12 2.3-4.2 1.9-8.5 4.1-13 3.6-4-0.5-7.4-3-11.1-4.6q-0.7-0.3-1.5-0.6-0.8-0.2-1.6-0.3-0.8-0.1-1.6 0-0.8 0-1.6 0.2c-2.7 0.8-4.4 3.7-5 6.4-1.7 7.9 2.9 15.6 5.7 22.6 1 2.3 2 4.7 2.9 7q0.5 1.1 0.9 2.1l0.5 1.2c-0.2-0.4 1.3-2.1 1.5-2.4q0.3-0.4 0.5-0.7 0.3-0.3 0.6-0.6 0.3-0.3 0.5-0.6 0.3-0.3 0.6-0.6 0.6-0.6 1.3-1.1 0.6-0.5 1.3-1 0.7-0.4 1.5-0.8 0.7-0.4 1.5-0.7c4.1-1.7 9.3-1.7 12.9 1.1 2.1 1.5 3.4 3.8 5.1 5.7q0.6 0.8 1.4 1.5 0.8 0.6 1.7 1.1 0.9 0.5 1.8 0.9 1 0.3 2 0.5c7.8 1.8 16-1 23.6-2.2q0.8-0.2 1.6-0.3 0.8-0.1 1.6-0.1 0.8-0.1 1.7-0.2 0.8 0 1.6 0 1 0 2 0.1h0.7l1.2 0.2q0.1 0 0.1 0l1.2 0.2 1.1 0.2q0.9 0.2 1.9 0.5 0.1 0 0.1 0.1 0.1 0.1 0.1 0.2 0 0.1-0.1 0.1-0.1 0.1-0.2 0.1-1.7 0-3.5 0.2-1.8 0.1-3.5 0.4-1.7 0.3-3.5 0.7-1.7 0.5-3.3 1c-5.8 1.8-11.5 3.6-17.5 4.1q-1.9 0.2-3.8 0.2-1.9-0.1-3.8-0.5-1.8-0.3-3.6-1-1.8-0.6-3.5-1.5c-2.3-1.4-3.8-3.3-5.6-5.2-2.3-2.6-5.1-4-8.6-2.8q-0.8 0.2-1.6 0.6-0.8 0.4-1.5 1-0.7 0.5-1.4 1.1-0.6 0.7-1 1.4c-1.3 2.3-1.5 5-1.8 7.5-0.2 2 0.4 4.6-1.5 5.9q-0.2 0.1-0.5 0.2-0.2 0.1-0.4 0.2-0.3 0.1-0.5 0.1-0.3 0-0.5 0-0.2 0-0.4 0-0.2 0-0.3-0.1-0.2 0-0.4-0.1-0.2 0-0.3-0.1c-2.8-1.4-3.6-6.1-4.6-8.7-1.7-4.8-3.7-9.4-5.5-14.1q-0.6-1.8-1.3-3.5-0.7-1.8-1.3-3.6-0.5-1.2-0.9-2.5-0.5-1.2-0.8-2.5-0.4-1.2-0.7-2.5-0.3-1.3-0.5-2.6c-0.8-5.8 0.5-12.4 5.5-16.1z"/>
		</g>
		<g id="Group_3">
			<path id="Path_7" class="s1" d="m7.8 43.1q0-0.1 0-0.2 0.1-0.1 0.1-0.1 0-0.1 0-0.2 0.1-0.1 0.1-0.2 0.1-0.3 0.1-0.4 0.1 0 0.1-0.1 0 0 0-0.1 0 0 0-0.1 0 0 0-0.1 0 0 0 0-0.1-0.1-0.1-0.1 0 0 0 0-0.1 0-0.1-0.1l-0.8-0.4-0.9-0.4-0.5-0.3-0.6-0.3-0.7-0.3-1.4-0.8-0.7-0.3-0.1-0.1q-0.1 0-0.2-0.1-0.1 0-0.2 0-0.1-0.1-0.2-0.1-0.1 0-0.2-0.1-0.1 0.1-0.3 0.3l-0.3 0.2q0 0.1 0 0.1 0 0-0.1 0 0 0.1 0 0.1-0.1 0-0.1 0.1 0 0-0.1 0 0 0.1 0 0.1-0.1 0-0.1 0.1 0 0-0.1 0-0.2 0-0.2-0.1-0.1 0-0.2-0.1 0 0 0 0 0 0 0 0 0-0.1 0-0.1 0 0 0 0 0.1-0.2 0.6-1.1l0.5-0.9 0.4-0.7q0.2-0.5 0.5-1.2 0.1-0.2 0.1-0.2 0-0.1 0-0.1 0 0 0 0 0 0 0.1 0 0 0 0-0.1 0 0 0.1 0.1 0 0 0 0 0.1 0 0.1 0 0.1 0 0.1 0 0 0 0 0.1 0.1 0 0.1 0 0 0 0 0.1 0.1 0 0.1 0 0 0.1 0 0.1 0 0 0 0.1 0 0-0.1 0.1 0 0 0 0l-0.2 0.9q0 0.1 0 0.2 0 0 0 0 0 0 0 0 0 0 0 0 0 0 0 0l0.2 0.1 0.4 0.3h0.1l0.1 0.1q0 0 0.4 0.2 0 0 0.1 0 0.1 0.1 0.4 0.2 0.4 0.2 0.7 0.3 0.3 0.2 0.7 0.4 0.2 0.1 0.5 0.3l3 1.5q0 0 0.1 0.1 0 0 0 0 0.1 0 0.1 0 0.1 0 0.1 0l0.3-0.6 0.2-0.4 0.2-0.4q0.1-0.2 0.2-0.4 0.1-0.2 0.2-0.4 0.1-0.3 0.1-0.5 0.1-0.2 0.1-0.4 0-0.1 0-0.2 0-0.1 0-0.2 0-0.1 0-0.2 0-0.1-0.1-0.2 0-0.1 0-0.2 0 0-0.1-0.1 0-0.1 0-0.1-0.1-0.1-0.1-0.2-0.1-0.1-0.1-0.2-0.1-0.1-0.2-0.1-0.1-0.1-0.1-0.2-0.1-0.1-0.2-0.2l0.1-0.2q0 0 0.1-0.1 0 0 0 0 0-0.1 0.1-0.1 0-0.1 0-0.1l0.2 0.1q0.5 0.2 1.6 0.9 0 0 0.1 0.1 0.1 0 0.1 0.1 0.1 0 0.2 0.1 0 0 0.1 0.1 0 0 0 0 0 0.1-0.1 0.1 0 0 0 0 0 0.1 0 0.1l-0.1 0.2-0.2 0.4q0 0-0.4 0.7-0.1 0.1-0.7 1.2-0.6 1.1-1.1 2.2l-0.6 1.3q-0.4 0.8-0.7 1.5v0.1q0 0-0.1 0.1 0 0 0 0 0 0-0.1 0 0 0 0 0 0-0.1 0-0.1-0.1 0-0.1 0-0.1 0-0.1-0.1-0.1 0-0.1-0.1-0.1 0-0.1 0z"/>
			<path id="Path_8" fill-rule="evenodd" class="s1" d="m9.3 31.2q-0.2-0.2-0.4-0.3-0.1-0.2-0.3-0.4-0.1-0.1-0.3-0.3-0.1-0.2-0.2-0.4-0.1-0.2-0.2-0.3 0-0.2-0.1-0.4-0.1-0.1-0.1-0.3-0.1-0.1-0.1-0.3 0-0.2-0.1-0.4 0-0.2 0-0.4 0-0.2 0-0.3 0-0.2 0.1-0.4 0-0.2 0-0.4 0.1-0.2 0.1-0.4 0.1-0.2 0.1-0.3 0.1-0.2 0.2-0.4 0-0.2 0.1-0.4 0.1-0.1 0.2-0.3 0.2-0.2 0.3-0.3 0.1-0.2 0.2-0.4 0.2-0.2 0.5-0.5 0.2-0.2 0.4-0.4 0.3-0.2 0.6-0.4 0.3-0.2 0.6-0.3 0.2-0.2 0.5-0.3 0.3 0 0.6-0.1 0.3 0 0.6-0.1 0.3 0 0.6 0 0.3 0.1 0.7 0.1 0.3 0.1 0.6 0.3 0.3 0.1 0.7 0.3 0.3 0.1 0.5 0.3 0.4 0.3 0.7 0.7 0.4 0.4 0.6 0.8 0.2 0.4 0.4 0.9 0.1 0.4 0.2 0.9 0.1 0.5 0 1.1 0 0.5-0.2 1-0.2 0.5-0.4 1-0.3 0.5-0.7 0.9-0.1 0.1-0.1 0.2-0.1 0.1-0.2 0.2-0.1 0.1-0.2 0.2-0.1 0.1-0.2 0.2-0.1 0.1-0.2 0.1 0 0.1-0.1 0.1-0.1 0.1-0.2 0.2 0 0-0.1 0.1-0.5 0.3-0.6 0.3-0.1 0.1-0.3 0.1-0.2 0.1-0.4 0.2-0.2 0-0.4 0.1-0.2 0-0.4 0-0.1 0-0.3 0.1-0.2 0-0.3 0-0.2 0-0.4-0.1-0.1 0-0.3 0-0.2 0-0.3-0.1-0.2 0-0.3-0.1-0.2 0-0.3-0.1-0.2-0.1-0.3-0.1-0.2-0.1-0.3-0.2-0.1-0.1-0.3-0.1-0.1-0.1-0.3-0.2-0.1-0.1-0.2-0.2zm-0.1-6.4q-0.1 0.1-0.2 0.2 0 0.2-0.1 0.3-0.1 0.1-0.1 0.3 0 0.1-0.1 0.3 0 0.1 0 0.2 0 0.1 0 0.3 0 0.1 0 0.2 0.1 0.1 0.1 0.2 0 0.2 0.1 0.4 0.1 0.1 0.2 0.3 0 0.2 0.1 0.3 0.1 0.2 0.2 0.3 0.2 0.2 0.3 0.3 0.2 0.2 0.3 0.4 0.2 0.1 0.4 0.3 0.1 0.1 0.3 0.2 0.1 0.1 0.2 0.2 0.1 0 0.1 0.1 0.1 0.1 0.2 0.1 0.1 0.1 0.2 0.1 0.1 0.1 0.3 0.2 0.1 0 0.2 0.1 0 0 0.1 0.1 0.1 0 0.2 0.1 0.1 0 0.2 0.1 0.1 0 0.3 0.1 0.1 0 0.3 0.1 0.1 0 0.3 0.1 0.1 0 0.2 0 0.2 0 0.3 0 0.1 0 0.2 0 0.2 0 0.3 0 0.1 0 0.2 0 0.1 0 0.2-0.1 0.1 0 0.2 0 0-0.1 0.1-0.1 0.1 0 0.2-0.1 0.1-0.1 0.2-0.1 0-0.1 0.1-0.1 0.1-0.1 0.2-0.2 0.1-0.1 0.1-0.1 0.1-0.2 0.2-0.4 0.1-0.1 0.2-0.3 0.1-0.2 0.1-0.3 0.1-0.2 0.1-0.4 0.1-0.2 0.1-0.4 0-0.2-0.1-0.4 0-0.2-0.1-0.4-0.1-0.2-0.2-0.4-0.1-0.3-0.3-0.5-0.1-0.2-0.3-0.5-0.2-0.2-0.4-0.4-0.3-0.2-0.5-0.4-0.4-0.3-1.3-0.9h-0.1q0 0-0.1-0.1 0 0 0 0-0.1 0-0.1 0 0 0-0.1-0.1-0.2-0.1-0.5-0.2-0.2-0.1-0.5-0.1-0.2 0-0.5 0-0.3 0-0.5 0-0.3 0.1-0.5 0.2-0.2 0.1-0.5 0.2-0.2 0.2-0.4 0.3-0.1 0.2-0.3 0.4z"/>
			<path id="Path_9" class="s1" d="m21.5 12.4q0.2 0.1 1 0.7 0.1 0.1 0.2 0.2 0.1 0 0.2 0.1 0.1 0.1 0.2 0.2 0.1 0.1 0.2 0.2l-0.5 0.4q-0.3-0.1-0.5-0.1-0.3-0.1-0.5-0.1-0.3 0-0.5 0-0.3 0-0.5 0-0.2 0.1-0.5 0.1-0.2 0.1-0.4 0.2-0.2 0.1-0.3 0.2-0.2 0.1-0.4 0.2-0.2 0.2-0.4 0.4-0.1 0.2-0.2 0.4-0.1 0.3-0.2 0.5 0 0.3 0 0.6 0 0.4 0.1 0.8 0.1 0.4 0.3 0.8 0.2 0.4 0.4 0.8 0.2 0.4 0.5 0.7 0.2 0.2 0.3 0.3 0.2 0.2 0.3 0.4 0.2 0.1 0.3 0.3 0.2 0.1 0.4 0.3 0.1 0.1 0.3 0.2 0.2 0.1 0.3 0.1 0.2 0.1 0.4 0.2 0.2 0.1 0.4 0.1 0.1 0 0.2 0.1 0.1 0 0.3 0 0.1 0 0.2 0 0.2-0.1 0.3-0.1 0.1 0 0.3-0.1 0.2 0 0.3-0.1 0.2-0.1 0.4-0.2 0.1-0.1 0.2-0.2 0.2-0.1 0.3-0.3 0.2-0.1 0.3-0.3 0.1-0.2 0.2-0.4 0.1-0.2 0.1-0.4 0.1-0.2 0.1-0.5 0.1-0.2 0.1-0.5 0-0.2 0-0.5 0-0.2 0-0.5 0-0.1 0.1-0.1 0.1-0.1 0.1-0.2 0.1 0 0.2-0.1 0 0 0.1-0.1 0 0.1 0.1 0.1 0 0.1 0 0.2 0.1 0 0.1 0.1 0 0 0.1 0.1 0 0.1 0.4 0.8l0.1 0.2 0.1 0.4q0 0.1-0.1 0.3 0 0.1-0.1 0.3-0.1 0.1-0.2 0.3-0.1 0.1-0.2 0.2-0.1 0.2-0.3 0.4-0.2 0.2-0.4 0.4-0.1 0.1-0.3 0.3-0.2 0.2-0.4 0.3-0.2 0.2-0.3 0.3-0.2 0.1-0.4 0.2-0.2 0.1-0.3 0.2-0.2 0.2-0.4 0.3-0.2 0-0.3 0.1-0.2 0.1-0.4 0.1-0.2 0.1-0.3 0.1-0.2 0.1-0.4 0.1-0.2 0-0.4 0-0.2 0.1-0.5 0-0.2 0-0.4 0-0.2 0-0.4-0.1-0.2 0-0.4-0.1-0.2 0-0.3-0.1-0.2-0.1-0.4-0.1-0.1-0.1-0.3-0.2-0.2-0.1-0.3-0.3-0.2-0.1-0.3-0.2-0.2-0.2-0.3-0.3-0.2-0.2-0.3-0.3-0.3-0.4-0.5-0.8-0.3-0.5-0.4-0.9-0.2-0.5-0.2-1-0.1-0.5 0-1 0-0.5 0.2-1 0.1-0.4 0.4-0.9 0.2-0.4 0.6-0.8 0.3-0.4 0.7-0.7 0.2-0.1 0.3-0.2 0.2-0.2 0.4-0.3 0.1-0.1 0.3-0.2 0.2-0.2 0.4-0.3 0.1-0.1 0.3-0.2 0.1-0.1 0.3-0.2 0.2 0 0.3-0.1 0.2-0.1 0.4-0.2z"/>
			<path id="Path_10" class="s1" d="m24.9 10.5l-0.3-0.5q0.1 0 0.2-0.1 0.3-0.2 0.7-0.3 0.9-0.4 1-0.5 0.5-0.3 1-0.5 0.5-0.3 0.9-0.5 0.4-0.2 0.5-0.3v0.1l0.2 0.3 0.1 0.1q-0.1 0.1-0.2 0.1-0.1 0.1-0.2 0.1-0.1 0.1-0.2 0.1-0.1 0.1-0.2 0.1-0.3 0.2-0.4 0.4 0.1 0.1 0.1 0.2 0 0.1 0.1 0.2 0 0.1 0 0.2 0.1 0.1 0.2 0.2 0.1 0.2 0.1 0.4l0.2 0.2 0.3 0.6 0.3 0.5 0.5 1.1 0.9 1.6q0.1 0.1 0.2 0.3 0.1 0.1 0.2 0.2 0.1 0.2 0.3 0.3 0.1 0.1 0.2 0.2 0.1 0 0.2 0.1 0.1 0 0.2 0.1 0.2 0 0.3 0 0.1 0 0.2 0 0.1 0 0.3 0 0.2 0 0.3-0.1 0.2 0 0.3 0 0.1-0.1 0.3-0.2 0.1 0 0.3-0.1 0.1-0.1 0.2-0.2 0.2-0.1 0.3-0.2 0.1-0.1 0.3-0.2 0-0.1 0.1-0.2 0 0 0.1-0.1 0.1-0.1 0.1-0.2 0.1 0 0.1-0.1 0-0.1 0.1-0.2 0 0 0-0.1 0-0.1 0.1-0.1 0-0.1 0-0.2 0-0.1 0-0.2 0-0.1 0-0.2 0-0.1 0-0.2 0-0.1 0-0.2-0.1-0.2-0.1-0.4-0.1-0.1-0.2-0.3 0-0.2-0.1-0.4-0.1-0.1-0.2-0.3-0.8-1.5-2-3.4l-0.2-0.3q0-0.1 0-0.2-0.1 0-0.1-0.1-0.1 0-0.1-0.1-0.1 0-0.2-0.1 0 0-0.1 0-0.1 0-0.1 0-0.1 0-0.2 0-0.1 0-0.1 0.1l-0.6 0.3h-0.1l-0.3-0.5 0.5-0.2 1.3-0.6q0.2-0.1 0.3-0.2 0.1-0.1 0.3-0.1 0.1-0.1 0.3-0.2 0.1-0.1 0.3-0.2h0.1q0 0 0 0 0 0.1 0.1 0.1 0 0 0 0.1 0 0 0.1 0 0 0.1 0 0.1 0 0 0 0 0 0.1 0 0.1 0 0 0 0 0 0.1-0.1 0.1 0 0.1-0.1 0.1-0.1 0.1-0.1 0.1-0.1 0-0.1 0.1-0.1 0-0.2 0 0 0.1-0.1 0.1 0 0.1-0.1 0.1 0 0.1-0.1 0.1 0 0 0 0.1 0 0 0 0.1 0 0 0 0 0.1 0.1 0.1 0.1 0 0.1 0.2 0.3 0 0.1 0 0.2 0.1 0 0.1 0.1 0.1 0.1 0.1 0.1 0 0.1 0.1 0.2 0.1 0.2 0.2 0.3 0 0.1 0.1 0.3 0.3 0.4 0.5 0.9l0.8 1.3q0.1 0.2 0.2 0.4 0.1 0.2 0.2 0.5 0.1 0.2 0.2 0.4 0.1 0.2 0.2 0.5 0 0.1 0 0.2 0.1 0.1 0.1 0.2 0 0.1 0 0.2 0 0.1 0 0.2 0 0.1 0 0.3-0.1 0.1-0.1 0.2 0 0.2-0.1 0.3-0.1 0.1-0.1 0.3-0.1 0.1-0.2 0.3-0.1 0.1-0.2 0.2-0.1 0.2-0.2 0.3-0.1 0.1-0.2 0.2-0.2 0.2-0.4 0.3-0.1 0.2-0.3 0.3-0.2 0.1-0.4 0.2-0.2 0.1-0.4 0.2-0.2 0.1-0.4 0.2-0.2 0.1-0.5 0.2-0.2 0.1-0.4 0.1-0.3 0.1-0.5 0.1-0.2 0.1-0.4 0.1-0.2 0-0.3 0-0.2-0.1-0.4-0.1-0.2 0-0.4-0.1-0.1-0.1-0.3-0.2-0.1-0.1-0.3-0.2-0.1-0.1-0.2-0.2-0.1-0.1-0.2-0.3-0.2-0.1-0.3-0.3-0.1-0.2-0.2-0.3-0.1-0.2-0.2-0.4-0.1-0.1-0.1-0.3l-1.6-3.1q-0.1-0.1-0.2-0.3 0-0.1-0.1-0.3-0.1-0.1-0.2-0.3-0.1-0.1-0.3-0.2-0.2-0.2-1 0.2 0 0 0 0-0.1 0.1-0.1 0.1 0 0-0.1 0 0 0 0 0z"/>
			<path id="Path_11" class="s1" d="m39.4 12.9l-0.1-0.5q0.1 0 0.3-0.1 0.1-0.1 0.2-0.1 0.2-0.1 0.3-0.2 0.1-0.1 0.2-0.2 0-0.1 0.1-0.3 0-0.1 0-0.2 0-0.1 0-0.2 0-0.2-0.1-0.3l-0.5-2.5-0.5-2.6q0-0.2 0-0.2 0-0.2-0.1-0.3 0-0.2-0.1-0.3 0-0.2-0.1-0.3 0-0.1-0.1-0.3-0.1 0-0.2 0-0.2-0.1-0.3-0.1-0.1 0-0.2 0-0.2 0-0.3 0-0.2 0-0.3 0-0.1-0.1-0.1-0.2l-0.1-0.3q0.3 0 0.7-0.1l2-0.5q0.1 0 0.2 0h0.4q0 0 0 0 0.1 0.1 0.1 0.1 0.1 0 0.1 0.1 0.1 0 0.1 0.1 0.4 0.4 1 1.3l0.2 0.2 1.6 2.1 0.2 0.2 0.3 0.4 0.4 0.5 0.3 0.4q0.1 0 0.1-0.1 0 0 0-0.1 0 0 0-0.1 0 0 0-0.1 0.2-0.7 0.3-1.3 0.2-1.1 0.6-3.2 0-0.4 0.2-1.1 0.1-0.7 0.1-0.7 0-0.1 0.1-0.1 0 0 0 0 0.1 0 0.1 0 0-0.1 0.1-0.1 0 0 0.2 0 0.3-0.1 0.8-0.3 0.8-0.1 1.2-0.3 0.5-0.1 0.5-0.2 0 0 0.1 0 0 0 0 0 0 0 0 0 0.1 0 0.1 0 0 0.1 0 0.2l0.1 0.2q0 0.1 0 0.2-0.1 0-0.3 0.1-0.1 0.1-0.2 0.1-0.1 0.1-0.3 0.2-0.1 0-0.2 0.1-0.3 0.2-0.2 0.5v0.1l0.7 2.1q0 0.3 0.8 2.9 0.1 0.6 0.4 1.5 0 0 0 0 0 0 0.1 0.1 0 0 0 0 0 0 0 0 0 0.2 0.1 0.2 0.1 0.1 1.4 0.1 0 0.2 0 0.2 0 0.2 0.1 0.3-0.2 0.1-1 0.2-0.2 0-0.4 0-0.2 0-0.3 0.1-0.2 0-0.4 0-0.2 0.1-0.4 0.1-1 0.3-1.9 0.6-0.1 0-0.3 0.1l-0.1-0.5q0.1-0.1 0.2-0.1 0.1-0.1 0.2-0.1 0.1-0.1 0.2-0.1 0.1-0.1 0.2-0.1 0.3-0.1 0.3-0.3 0.1-0.1 0.1-0.2 0-0.1-0.1-0.2 0-0.1 0-0.2 0-0.1 0-0.2-0.1-0.2-0.1-0.4-0.3-0.7-0.6-2l-0.7-2.5q-0.1-0.5-0.2-0.7l-0.8 4.5q0 0.1-0.1 0.4-0.1 0.4-0.1 0.5-0.2 1.5-0.3 2.2 0 0.2 0 0.5l-0.6 0.1-0.6-1q-0.3-0.3-0.9-1.1-0.4-0.4-0.6-0.7-0.1-0.1-0.1-0.2l-0.1-0.1q0-0.1 0-0.1 0 0 0 0-0.1 0-0.1 0 0 0 0 0l-1.6-2-0.9-1.2 0.7 3.3 0.5 2.2q0 0.1 0 0.2 0 0.1 0.1 0.2 0 0.1 0.1 0.1 0.1 0.1 0.2 0.2 0.1 0 0.2 0.1 0.1 0 0.2 0 0.1 0.1 0.3 0.1 0.1 0 0.2 0h0.4l0.1 0.5q-0.4 0.1-0.9 0.1-0.2 0.1-0.3 0.1-0.2 0-0.3 0-0.2 0.1-0.3 0.1-0.2 0-0.4 0.1-0.1 0-1.3 0.4z"/>
			<path id="Path_12" class="s1" d="m59 0h0.4q0 0.1 0.1 0.2 0 0 0 0.1 0.1 0 0.1 0.1 0 0.1 0.1 0.1 0 0.1 0 0.1 0.1 0.1 1 0.1 0.6 0.1 1 0.1h0.2l0.8 0.1 1.7 0.1 2.2 0.2h0.4q0.1-0.1 0.1-0.1 0 0 0.1-0.1 0 0 0-0.1 0 0 0-0.1l0.1-0.1h0.4q0 0 0.2 0-0.1 0.5-0.1 1.5l-0.1 0.6v0.4q0 0.1 0 0.1 0 0 0 0.1 0 0-0.1 0.1 0 0 0 0 0 0-0.1 0.1-0.1 0-0.1 0-0.1 0-0.2 0 0 0-0.1 0-0.1-0.1-0.1-0.2 0-0.1-0.1-0.2 0-0.1-0.1-0.2 0-0.1 0-0.2-0.1-0.1-0.1-0.2 0-0.1 0-0.2-0.1 0-0.1-0.1 0-0.1-0.1-0.2 0 0 0 0 0 0-0.1 0 0-0.1 0-0.1 0 0-0.1 0-0.1 0-1.5-0.2-0.2 0-0.5 0 0 0.1 0 0.1 0 0.1 0 0.2-0.1 0-0.1 0.1 0 0 0 0.1v1l-0.2 2.1-0.2 2.3-0.1 0.9q0 0.1 0 0.2 0 0.1 0 0.2 0 0.1 0 0.2 0.1 0.1 0.1 0.2 0 0 0.1 0 0 0 0.1 0 0 0.1 0.1 0.1 0 0 0.1 0 0 0 0.5 0.1 0.1 0.1 0.1 0.1 0.1 0 0.1 0 0.1 0 0.1 0.1 0 0 0.1 0 0 0.3 0 0.3 0 0 0 0.1 0 0 0 0 0 0 0 0.1 0 0 0 0-0.2 0-0.3 0-0.2 0-0.3 0-0.2-0.1-0.3-0.1-0.2 0-0.3 0-0.2 0-0.4-0.1-0.5-0.1-1.8-0.2-0.2 0-1.3 0-0.4 0-0.5 0 0-0.1 0-0.2v-0.1-0.1q0 0 0.1-0.1 0.1 0 0.2-0.1 0 0 0.1 0 0.1 0 0.2 0 0.1-0.1 0.3-0.1 0.1 0 0.2 0 0.2-0.1 0.3-0.1 0.1 0 0.3-0.1 0 0 0-0.1 0 0 0-0.1 0 0 0.1-0.1 0 0 0 0 0.1-0.9 0.2-2.8l0.2-2.7q0-0.2 0-0.4 0.1-0.1 0.1-0.3 0-0.2 0-0.3 0-0.2 0-0.4 0 0 0 0 0 0 0 0 0-0.1 0-0.1-0.1 0-0.1 0 0 0 0 0 0 0 0 0 0 0 0 0 0 0-0.1 0-0.2-0.1-1.4-0.2-0.1 0-0.2 0-0.2 0-0.3 0-0.1 0-0.2 0-0.1 0-0.2 0.1-0.2 0.1-0.3 0.2-0.1 0.1-0.3 0.2-0.1 0.1-0.2 0.2-0.1 0.1-0.2 0.3-0.2 0.2-0.3 0.2-0.1 0-0.1-0.1-0.1 0-0.1-0.1-0.1 0-0.1 0-0.1-0.1-0.1-0.1 0.1-0.2 0.2-0.5 0.1-0.2 0.2-0.4 0.1-0.3 0.2-0.5 0.1-0.2 0.1-0.4 0.2-0.5 0.3-0.6z"/>
			<path id="Path_13" class="s1" d="m71 1.7q0.4 0.1 0.7 0.2 0.2 0.1 0.3 0.2 0.2 0 0.3 0.1 0.2 0 0.3 0.1 0.2 0 0.4 0.1 0.2 0 1.3 0.3 1.5 0.4 2.8 0.8l1.2 0.3q0.2 0.1 0.3 0.1 0.2 0.1 0.4 0.1 0.1 0.1 0.3 0.2 0.1 0 0.3 0.1 0 0 0 0.1 0 0 0 0.1 0 0 0 0.1 0 0 0 0.1l-0.4 1.4-0.1 0.3q0 0.1-0.1 0.1h-0.2q-0.1 0-0.3-0.1 0-0.2 0-0.5l-0.2-0.5q0-0.1 0-0.2 0-0.1-0.1-0.2 0-0.1 0-0.2-0.1-0.1-0.1-0.2-0.1 0-0.1-0.1-0.1 0-0.1 0-0.1 0-0.1-0.1-0.1 0-0.1 0-0.1 0-0.5-0.2-0.6-0.2-1.3-0.4-0.9-0.3-1.6-0.4 0 0.1-0.4 1.3l-0.3 1.2-0.3 0.9q0.1 0 0.1 0 0 0 0.1 0 0 0 0.1 0.1 0 0 0 0 1.3 0.3 1.8 0.4 0.1 0.1 0.2 0.1 0.1 0 0.2 0 0.1 0 0.1 0 0.1 0 0.2 0 0.1 0 0.1 0 0-0.1 0.1-0.1 0 0 0.1-0.1 0 0 0 0 0.1-0.2 0.2-0.3 0-0.1 0.1-0.2 0.1-0.1 0.1-0.2 0.1-0.2 0.2-0.3h0.1l0.4 0.2q-0.2 0.6-0.3 0.9-0.2 0.7-0.3 0.9 0 0.2-0.1 0.4 0 0.1-0.1 0.6-0.1 0.4-0.2 0.6v0.1l-0.5-0.1q0-0.1 0-0.5 0-0.1 0-0.2 0-0.1 0-0.2 0-0.1 0-0.3 0-0.1 0-0.2 0 0 0-0.1-0.1 0-0.1 0 0-0.1-0.1-0.1 0 0 0 0-0.2-0.1-0.3-0.1-0.1-0.1-0.2-0.1-0.2-0.1-0.3-0.1-0.1-0.1-0.3-0.1-1-0.3-1.6-0.4v0.2q-0.3 0.9-0.4 1.4l-0.4 1.5q-0.1 0.1-0.1 0.1 0 0.1 0 0.1 0 0.1 0.1 0.2 0 0 0 0 0.2 0.2 0.4 0.3 0.2 0.1 0.5 0.1 0.2 0.1 0.4 0.2 0.2 0 0.4 0.1 0.2 0.1 0.5 0.1 0.2 0.1 0.4 0.1 0.2 0 0.4 0.1 0.2 0 0.4 0 0.1 0 0.3 0 0.1 0 0.2 0 0.1 0 0.3-0.1 0.1 0 0.2-0.1 0.1-0.1 0.3-0.2 0.2-0.1 0.3-0.3 0.2-0.1 0.3-0.3 0.1-0.1 0.2-0.3 0.3 0.1 0.4 0.1 0.1 0 0.2 0.1l-0.1 0.3-0.1 0.2-0.6 1.2-0.4 0.8q-0.4-0.2-0.7-0.2-0.4-0.1-2.1-0.7-1.1-0.4-2.8-0.9-0.8-0.2-2.1-0.5l-0.3-0.1-0.8-0.2 0.1-0.5q0.1 0 0.2 0 0 0 0.1 0 0.1 0 0.1 0.1 0.1 0 0.2 0 0.1 0 0.2 0 0.2 0 0.3 0.1 0.1 0 0.3 0 0.1 0 0.2-0.1 0.1 0 0.1-0.1 0 0 0.1-0.1 0 0 0-0.1 0-0.1 0.1-0.1 0-0.2 0.1-0.4v-0.3l0.8-2.6 0.2-0.8 0.3-1.1 0.2-0.8 0.2-0.8q0-0.1 0-0.1 0 0 0 0 0 0 0 0 0.1-0.1 0.1-0.1-0.1 0-0.1 0 0-0.1 0-0.1 0 0-0.1 0 0 0 0 0-0.1-0.1-0.2-0.1-0.1-0.1-0.2-0.1-0.1-0.1-0.2-0.1-0.1-0.1-0.2-0.1-0.1 0-0.2-0.1-0.1 0-0.3-0.1z"/>
			<path id="Path_14" class="s1" d="m83.1 6l0.2-0.5 0.6 0.3 0.2 0.1q0.4 0.2 0.5 0.3 0.1 0 0.4 0.3 0.1 0 0.2 0 0 0.1 0.4 0.3 0.3 0.1 0.4 0.2 0 0 0.2 0.1 0.4 1.4 0.7 2.4 0.3 1 2 6.9l0.1-0.1 0.3-0.8q0.4-0.6 0.6-1 0.1-0.4 0.4-0.9 0.3-0.6 0.5-1 0.4-0.9 0.5-1 0-0.1 0-0.1 0.1-0.1 0.1-0.2 0 0 0-0.1 0.1-0.1 0.1-0.2-0.1 0-0.1-0.1-0.1-0.1-0.1-0.2-0.1 0-0.2-0.1-0.1-0.1-0.1-0.1-0.1 0-0.2-0.1 0 0-0.1-0.1 0-0.1-0.1-0.1 0-0.1-0.1-0.1l0.2-0.4 0.2 0.1 1.3 0.6 1.4 0.8q0.1 0 0.3 0.1l-0.3 0.4q0 0-0.1 0 0 0 0 0-0.1 0-0.1 0-0.1 0-0.1 0-0.1-0.1-0.2-0.1 0 0-0.1 0-0.1 0-0.1 0-0.1 0-0.2-0.1 0 0-0.1 0 0 0-0.1 0-0.1 0-0.1 0.1-0.1 0-0.1 0-0.1 0-0.1 0 0 0 0 0.1-0.1 0-0.1 0 0 0 0 0.1 0 0-0.2 0.2 0 0.2-0.2 0.6-0.5 0.9-0.8 1.4-0.1 0.2-0.2 0.4l-1.2 2.3q-0.1 0.2-0.1 0.3l-0.5 0.8-0.1 0.4-0.3 0.3q-0.1 0.3-0.1 0.3l-0.2 0.3-0.7-0.3-0.3-1.2-0.7-2.4-0.5-1.7-0.3-1.2q-0.4-1.2-0.7-2.2l-0.5-1.5-1.3 2.4q-0.1 0.2-0.2 0.5l-0.3 0.4-0.4 0.9q-0.2 0.5-0.5 1.1-0.1 0.1-0.1 0.1 0 0 0 0.1 0 0 0 0 0 0 0 0.1 0 0 0 0-0.1 0.1-0.1 0.1 0 0 0 0.1 0 0 0 0 0.1 0.1 0.3 0.2 0.1 0.1 0.2 0.2 0.1 0.1 0.3 0.2 0.1 0.1 0.2 0.1 0.1 0.1 0.2 0.2l-0.3 0.5-0.2-0.1q-0.2-0.1-1.3-0.8-1-0.6-1.3-0.7-0.4-0.2-0.4-0.2 0 0-0.1 0 0-0.1 0-0.1 0 0-0.1 0 0 0 0-0.1 0.1-0.1 0.1-0.2 0.1-0.1 0.2-0.2 0 0 0 0 0.1 0 0.1 0 0.1 0 0.1 0.1 0 0 0.1 0 0 0 0.2 0.1 0.1 0.1 0.2 0.1 0 0.1 0.1 0.1 0.1 0 0.2 0.1 0.1 0 0.2 0 0.1 0 0.3-0.4 0.6-0.9 0.8-1.2l0.2-0.3 1.1-2 0.7-1.3q0.1-0.2 0.2-0.3 0-0.1 0.1-0.3 0-0.1 0.1-0.2 0-0.2 0.1-0.3 0-0.1 0-0.1 0 0 0-0.1 0 0 0-0.1 0 0 0 0 0-0.1-0.1-0.2 0-0.1 0-0.2-0.1 0-0.1-0.1-0.1-0.1-0.1-0.2-0.1-0.1-0.2-0.1-0.1-0.1-0.2-0.2-0.1-0.1-0.2-0.2-0.1 0-0.2-0.1z"/>
			<path id="Path_15" class="s1" d="m96.6 13.4q0.2 0.3 0.4 0.5 0.2 0.1 0.3 0.2 0.1 0.2 0.2 0.3 0.1 0.1 0.2 0.2 0.2 0.1 0.3 0.2 0.2 0.2 1 0.9 1.2 1 2.2 1.9l1 0.9q0.1 0.1 0.2 0.2 0.1 0.1 0.3 0.2 0.1 0.1 0.2 0.3 0.1 0.1 0.2 0.2 0 0.1 0 0.1 0 0.1-0.1 0.1 0 0.1 0 0.1 0 0.1-0.1 0.1l-1 1.1-0.2 0.2q0 0.1-0.1 0.1l-0.2-0.2q0 0-0.2-0.1 0.1-0.2 0.2-0.5l0.1-0.5q0.1-0.1 0.1-0.2 0-0.1 0-0.2 0-0.1 0-0.2 0-0.1 0-0.2 0-0.1 0-0.1-0.1-0.1-0.1-0.1 0-0.1-0.1-0.1 0-0.1-0.1-0.1 0-0.1-0.3-0.3-0.4-0.5-1-1-0.7-0.6-1.2-1.1-0.1 0.2-1 1.1l-0.8 0.9-0.6 0.7q0 0 0.1 0 0 0.1 0 0.1 0 0 0.1 0 0 0.1 0 0.1 1 0.9 1.4 1.2 0.1 0 0.2 0.1 0 0.1 0.1 0.1 0.1 0 0.2 0.1 0.1 0 0.1 0 0.1 0 0.1 0 0.1 0 0.1 0 0.1 0 0.1 0 0.1 0 0.1 0 0.1-0.1 0.3-0.2 0.1-0.1 0.2-0.1 0.1-0.1 0.2-0.2 0.1-0.1 0.2-0.2l0.1 0.1 0.3 0.3q-0.4 0.5-0.6 0.7-0.5 0.6-0.7 0.7-0.1 0.2-0.2 0.3-0.2 0.1-0.4 0.5-0.3 0.3-0.4 0.5l-0.1 0.1-0.4-0.4q0-0.1 0.2-0.4 0.1-0.1 0.1-0.2 0.1-0.1 0.1-0.2 0.1-0.1 0.1-0.2 0-0.1 0.1-0.2 0 0 0-0.1 0 0 0-0.1 0 0-0.1 0 0-0.1 0-0.1-0.1-0.1-0.2-0.2-0.1-0.1-0.2-0.2-0.1-0.1-0.2-0.2-0.1-0.1-0.2-0.2-0.8-0.7-1.2-1l-0.2 0.1q-0.6 0.7-0.9 1.1l-1.1 1.2q0 0-0.1 0.1 0 0 0 0.1 0 0 0 0.1 0 0 0 0.1 0.1 0.2 0.3 0.4 0.1 0.1 0.3 0.3 0.1 0.2 0.3 0.3 0.2 0.2 0.4 0.3 0.1 0.2 0.3 0.3 0.1 0.1 0.3 0.3 0.2 0.1 0.4 0.2 0.1 0.1 0.3 0.2 0.1 0.1 0.2 0.2 0.2 0 0.3 0 0.1 0.1 0.2 0.1 0.2 0 0.3 0 0.2-0.1 0.4-0.1 0.2 0 0.4-0.1 0.2 0 0.3-0.1 0.2-0.1 0.4-0.2 0.2 0.1 0.3 0.2 0 0.1 0.2 0.2l-0.3 0.2-0.1 0.1-1.2 0.9-0.6 0.5q-0.4-0.3-0.6-0.5-0.3-0.3-1.5-1.5-0.9-0.9-2.2-2-0.7-0.6-1.7-1.4l-0.2-0.2-0.6-0.6 0.3-0.3q0 0 0.1 0 0.1 0.1 0.1 0.1 0.1 0.1 0.1 0.1 0.1 0 0.1 0.1 0.2 0.1 0.3 0.1 0.1 0.1 0.2 0.2 0.1 0 0.2 0.1 0.1 0.1 0.3 0.1 0 0 0.1-0.1 0 0 0.1-0.1 0 0 0.1 0 0-0.1 0.1-0.1 0.1-0.1 0.3-0.4l0.1-0.1 1.8-2.1 0.6-0.6 0.7-0.8 0.6-0.6 0.5-0.8q0 0 0 0 0.1 0 0.1 0 0 0 0 0 0-0.1 0-0.1 0 0 0 0 0-0.1 0-0.1 0 0 0 0-0.1-0.1-0.1-0.1 0-0.1-0.1-0.2-0.1-0.1-0.1-0.1-0.1-0.1-0.2-0.2 0-0.1-0.1-0.1-0.1-0.1-0.1-0.2-0.1-0.1-0.3-0.2z"/>
			<path id="Path_16" class="s1" d="m105.6 22.5l0.4-0.3 0.3 0.5 0.1 0.1q0.3 0.4 0.4 0.5 0 0.1 0.3 0.4 0 0.1 0.1 0.2 0 0 0.2 0.3 0.3 0.3 0.3 0.4 0.1 0 0.1 0.2-0.2 1.5-0.3 2.5-0.2 0.9-1.3 7.1l0.2-0.1 0.6-0.5q0.6-0.5 1-0.7 0.3-0.3 0.8-0.7 0.5-0.3 0.8-0.6 0.8-0.7 0.9-0.7 0.4-0.3 0.4-0.4 0-0.1 0-0.2 0-0.1-0.1-0.2 0-0.1 0-0.2-0.1-0.1-0.1-0.1-0.1-0.1-0.1-0.2 0-0.1 0-0.1-0.1-0.1-0.1-0.2 0-0.1 0-0.1l0.3-0.3 0.2 0.2 0.8 1.1 1 1.3q0.1 0.1 0.1 0.2l-0.3 0.3q-0.1 0-0.1 0 0-0.1-0.1-0.1 0 0-0.1 0 0-0.1 0-0.1-0.1 0-0.1-0.1-0.1 0-0.1-0.1-0.1 0-0.1-0.1-0.1 0-0.2 0 0-0.1-0.1-0.1 0 0-0.1 0 0-0.1-0.1-0.1 0 0-0.1 0 0 0-0.1 0 0 0 0 0-0.1 0-0.1 0 0 0.1-0.1 0.1 0 0-0.2 0.2-0.1 0-0.5 0.3-0.8 0.6-1.3 1-0.2 0.1-0.4 0.3l-2 1.5q-0.2 0.2-0.3 0.2l-0.7 0.6-0.3 0.2-0.3 0.2q-0.3 0.2-0.3 0.2l-0.3 0.3-0.5-0.7 0.2-1.2 0.4-2.5 0.3-1.7 0.2-1.3q0.2-1.2 0.3-2.2l0.2-1.5-2.1 1.6q-0.2 0.1-0.4 0.3l-0.5 0.3-0.7 0.6q-0.5 0.3-1 0.8 0 0-0.1 0 0 0 0 0 0 0.1-0.1 0.1 0 0 0 0 0 0.1 0 0.1-0.1 0-0.1 0 0 0.1 0 0.1 0 0 0 0 0 0.2 0.1 0.3 0.1 0.2 0.1 0.3 0.1 0.1 0.2 0.3 0.1 0.1 0.1 0.2 0.1 0.1 0.1 0.2l-0.4 0.4-0.2-0.2q-0.1-0.2-0.8-1.3-0.6-0.9-0.9-1.2-0.2-0.3-0.3-0.4 0 0 0 0 0 0 0-0.1 0 0 0 0-0.1 0-0.1-0.1 0.2-0.1 0.3-0.1 0-0.1 0.2-0.2 0 0 0 0.1 0.1 0 0.1 0 0 0.1 0 0.1 0.1 0 0.1 0.1 0 0 0.1 0.2 0.4 0.5 0.5 0.5 0.2 0.1 0.5-0.1 1-0.7 1.2-0.8l0.3-0.2 1.9-1.4 1.2-0.9q0.1 0 0.3-0.1 0.1-0.1 0.2-0.2 0.1-0.1 0.2-0.2 0.1-0.1 0.2-0.2 0 0 0.1-0.1 0 0 0-0.1 0 0 0 0 0-0.1 0.1-0.1 0-0.1 0-0.2 0-0.1 0-0.2 0 0 0-0.1 0-0.1-0.1-0.2 0-0.1 0-0.2-0.1-0.2-0.1-0.3-0.1-0.1-0.1-0.2-0.1-0.1-0.1-0.2z"/>
			<path id="Path_17" class="s1" d="m116.5 40.2q-0.1 0.1-0.2 0.1-0.1 0.1-0.1 0.2-0.1 0-0.2 0.1-0.1 0-0.2 0-0.1 0.1-0.2 0.2-0.1 0.1-0.3 0.1-0.1 0.1-0.2 0.2-0.1 0-0.3 0.1 0 0 0 0-0.1 0-0.1 0 0 0.1-0.1 0.1 0 0 0 0l-0.1-0.1-0.2-0.5q0.1-0.2 0.3-0.3 0.1-0.1 0.2-0.3 0.1-0.1 0.2-0.2 0.1-0.2 0.2-0.4 0.1-0.1 0.1-0.3 0.1-0.2 0.1-0.4 0-0.1-0.1-0.3 0-0.2-0.1-0.4 0-0.1-0.1-0.2-0.1-0.2-0.2-0.3-0.1-0.1-0.2-0.2-0.1-0.1-0.3-0.2-0.1 0-0.2 0-0.1-0.1-0.3-0.1-0.1 0-0.2 0.1-0.2 0-0.3 0-0.1 0.1-0.2 0.2-0.1 0.1-0.2 0.1-0.1 0.1-0.1 0.3-0.1 0.1-0.1 0.2-0.1 0.2-0.1 0.5-0.1 0.2-0.1 0.4 0 0.3 0 0.5 0.1 0.2 0.1 0.5 0 0.1 0 0.3 0.1 0.1 0.1 0.3 0 0.1 0 0.2 0 0.2 0 0.3 0 0.2 0 0.3 0 0.2-0.1 0.3 0 0.1 0 0.3-0.1 0.1-0.1 0.3-0.1 0.1-0.1 0.2-0.1 0.1-0.2 0.2 0 0.1-0.1 0.3-0.1 0.1-0.2 0.2-0.1 0-0.2 0.1-0.1 0.1-0.2 0.2-0.1 0.1-0.2 0.1-0.1 0.1-0.3 0.1-0.1 0.1-0.3 0.1-0.1 0.1-0.3 0.1-0.2 0.1-0.3 0.1-0.2 0-0.4 0-0.1 0-0.2 0-0.1 0-0.2 0-0.1 0-0.2 0-0.1-0.1-0.2-0.1-0.1 0-0.2-0.1 0 0-0.1-0.1-0.1 0-0.2-0.1-0.1-0.1-0.2-0.1-0.1-0.1-0.2-0.2-0.1 0-0.2-0.1-0.1-0.1-0.2-0.2-0.1-0.1-0.2-0.2-0.1-0.1-0.2-0.3 0-0.1-0.1-0.2-0.1-0.2-0.2-0.3 0-0.2-0.1-0.3-0.1-0.1-0.1-0.3-0.1-0.1-0.1-0.3 0-0.1-0.1-0.3 0-0.1-0.1-0.3l-0.1-0.9q0 0 0-0.1 0-0.1 0-0.1 0-0.1 0-0.1 0-0.1 0-0.2 0 0 0 0 0 0 0 0 0.1 0 0.1 0 0-0.1 0-0.1h0.1q0.1 0 0.9-0.4 0.4-0.2 0.6-0.3l0.2-0.1 0.3 0.6q-0.6 0.6-0.7 0.8-0.1 0.1-0.1 0.1-0.1 0.1-0.1 0.2 0 0.1-0.1 0.2 0 0.1 0 0.2-0.1 0.1-0.1 0.2 0 0 0 0.1 0 0.1 0 0.2 0 0.1 0 0.2 0 0.1 0 0.2 0 0.1 0.1 0.2 0 0.1 0 0.2 0 0.1 0.1 0.2 0 0.1 0.1 0.2 0 0.1 0.1 0.2 0.1 0.1 0.1 0.2 0.1 0.1 0.2 0.1 0.1 0.1 0.2 0.2 0.1 0.1 0.2 0.1 0.1 0.1 0.2 0.1 0.1 0.1 0.2 0.1 0.2 0.1 0.5 0 0.3 0 0.5-0.1 0.2-0.2 0.3-0.4 0.2-0.2 0.3-0.4 0-0.2 0-0.5 0-0.2 0-0.4 0-0.3 0-0.5 0-0.2 0-0.4 0-0.3-0.1-0.5 0-0.3 0-0.5 0-0.3 0.1-0.5 0-0.3 0-0.6 0-0.1 0.1-0.3 0.1-0.1 0.1-0.3 0.1-0.1 0.2-0.2 0.1-0.2 0.2-0.3 0.1-0.1 0.2-0.2 0.1-0.1 0.2-0.2 0.1-0.1 0.3-0.2 0.1-0.1 0.3-0.1 0.2-0.2 0.5-0.2 0.2-0.1 0.5-0.1 0.3 0 0.6 0.1 0.2 0 0.5 0.1 0.3 0.2 0.5 0.4 0.3 0.2 0.5 0.4 0.2 0.2 0.4 0.5 0.2 0.3 0.3 0.6 0 0.1 0.1 0.3 0 0.1 0.1 0.2 0 0.1 0 0.3 0.1 0.1 0.1 0.2 0 0.1 0.1 0.3 0 0.1 0 0.3 0 0.1 0 0.2 0.1 0.2 0.1 0.3z"/>
		</g>
		<g id="Group_4">
			<path id="Path_18" class="s1" d="m10.7 94.3q-0.1 0.1-0.5 0.6-0.1 0.1-0.2 0.1 0 0.1-0.1 0.1-0.1 0.1-0.1 0.1-0.1 0.1-0.2 0.1l-0.2-0.4q0.1-0.1 0.1-0.3 0.1-0.1 0.1-0.3 0.1-0.2 0.1-0.3 0-0.2 0-0.4 0-0.1 0-0.3 0-0.1 0-0.3-0.1-0.1-0.1-0.2-0.1-0.2-0.2-0.3-0.1-0.1-0.2-0.3-0.1-0.1-0.2-0.2-0.2-0.1-0.3-0.2-0.2 0-0.4 0-0.3-0.1-0.6 0-0.3 0-0.6 0.1-0.2 0-0.5 0.2-0.3 0.1-0.5 0.3-0.1 0-0.3 0.1-0.1 0.1-0.2 0.2-0.1 0-0.3 0.1-0.1 0.1-0.2 0.2-0.1 0.1-0.1 0.2-0.1 0.1-0.2 0.2-0.1 0.1-0.1 0.3-0.1 0.1-0.2 0.2 0 0.1 0 0.2 0 0 0 0.1-0.1 0.1-0.1 0.2 0 0.1 0 0.2 0.1 0.1 0.1 0.2 0 0.1 0 0.2 0.1 0.1 0.1 0.3 0.1 0.1 0.1 0.2 0.1 0.1 0.2 0.2 0.1 0.1 0.2 0.2 0.1 0.1 0.2 0.2 0.1 0 0.2 0.1 0.2 0.1 0.4 0.1 0.1 0.1 0.3 0.1 0.2 0.1 0.3 0.1 0.2 0 0.4 0 0 0.1 0 0.1 0.1 0.1 0.1 0.1 0 0 0.1 0.1 0 0 0 0.1 0 0-0.1 0 0 0.1 0 0.1-0.1 0-0.1 0-0.1 0-0.1 0l-0.6 0.3h-0.2-0.2q-0.1 0-0.2-0.1-0.1 0-0.2-0.1-0.1-0.1-0.1-0.1-0.1-0.1-0.2-0.2-0.1-0.1-0.2-0.3-0.1-0.1-0.2-0.2-0.1-0.2-0.2-0.3-0.1-0.1-0.2-0.3 0-0.1-0.1-0.2-0.1-0.2-0.1-0.3-0.1-0.1-0.1-0.2-0.1-0.2-0.1-0.3-0.1-0.1-0.1-0.2 0-0.2-0.1-0.3 0-0.1 0-0.2 0-0.1 0-0.3 0-0.1 0-0.3 0-0.1 0.1-0.2 0-0.2 0-0.3 0.1-0.2 0.1-0.3 0.1-0.1 0.1-0.2 0.1-0.1 0.1-0.3 0.1-0.1 0.2-0.2 0.1-0.1 0.1-0.2 0.1-0.1 0.2-0.2 0.1 0 0.2-0.1 0.2-0.1 0.3-0.2 0.1-0.1 0.2-0.1 0.3-0.2 0.6-0.3 0.3-0.1 0.6-0.2 0.4 0 0.7 0 0.3 0 0.6 0.1 0.4 0.1 0.7 0.2 0.3 0.2 0.5 0.4 0.3 0.2 0.5 0.4 0.2 0.3 0.4 0.6 0.1 0.1 0.1 0.2 0.1 0.2 0.2 0.3 0 0.1 0.1 0.3 0 0.1 0.1 0.2 0.1 0.1 0.1 0.2 0 0.2 0.1 0.3 0 0.1 0.1 0.2 0 0.1 0 0.3z"/>
			<path id="Path_19" fill-rule="evenodd" class="s1" d="m12 101q0.1-0.1 0.2-0.2 0.1-0.1 0.3-0.2 0.1 0 0.2-0.1 0.2-0.1 0.3-0.1 0.1-0.1 0.2-0.1 0.1 0 0.3-0.1 0.1 0 0.2 0 0.1 0 0.2 0 0.2 0 0.3 0 0.1 0 0.2 0 0.2 0 0.3 0.1 0.1 0 0.2 0 0.1 0 0.3 0.1 0.1 0 0.2 0.1 0.1 0 0.2 0.1 0.2 0.1 0.3 0.1 0.1 0.1 0.2 0.2 0.1 0.1 0.2 0.2 0.1 0 0.2 0.1 0.1 0.1 0.2 0.2 0.1 0.2 0.3 0.4 0.1 0.2 0.2 0.4 0.1 0.2 0.2 0.4 0.1 0.2 0.2 0.4 0 0.2 0.1 0.4 0 0.2 0 0.4 0 0.2 0 0.4 0 0.1-0.1 0.3 0 0.3-0.1 0.5-0.1 0.2-0.2 0.4-0.2 0.2-0.3 0.4-0.1 0.2-0.3 0.3-0.3 0.3-0.5 0.4-0.3 0.2-0.6 0.3-0.3 0.1-0.6 0.2-0.4 0-0.7 0-0.3 0-0.7-0.1-0.3-0.1-0.7-0.2-0.3-0.2-0.6-0.4-0.2-0.2-0.5-0.5 0-0.1-0.1-0.2 0 0-0.1-0.1-0.1-0.1-0.1-0.2-0.1 0-0.1-0.1-0.1-0.1-0.1-0.1 0-0.1-0.1-0.1 0-0.1 0-0.1-0.1-0.1-0.1-0.1-0.1-0.4-0.2-0.4 0-0.2 0-0.3 0-0.1-0.1-0.3 0-0.1 0-0.2 0-0.1 0-0.3 0-0.1 0-0.2 0.1-0.1 0.1-0.2 0-0.1 0-0.2 0-0.2 0.1-0.3 0-0.1 0.1-0.2 0-0.1 0.1-0.1 0-0.1 0.1-0.2 0-0.1 0.1-0.2 0.1-0.1 0.1-0.2 0.1-0.1 0.2-0.2 0 0 0.1-0.1 0.1-0.1 0.2-0.2zm4.2 0.6q-0.1 0-0.1-0.1-0.1-0.1-0.2-0.1-0.1-0.1-0.2-0.1-0.1-0.1-0.2-0.1 0 0-0.1 0-0.1-0.1-0.2-0.1-0.1 0-0.1 0-0.1 0-0.2 0-0.1 0.1-0.2 0.1-0.2 0-0.3 0.1-0.1 0-0.2 0-0.1 0.1-0.2 0.1-0.1 0.1-0.3 0.2-0.1 0.1-0.2 0.2-0.1 0.1-0.2 0.2-0.2 0-0.3 0.1 0 0.1-0.1 0.1 0 0.1-0.1 0.2 0 0-0.1 0.1 0 0-0.1 0.1 0 0-0.1 0.1 0 0.1-0.1 0.1 0 0.1-0.1 0.1 0 0.1 0 0.1-0.1 0.1-0.1 0.2-0.1 0-0.1 0.1-0.1 0.1-0.1 0.2-0.1 0.1-0.1 0.2 0 0.1-0.1 0.2 0 0.1 0 0.2 0 0 0 0.1-0.1 0.1-0.1 0.2 0 0.1 0 0.1 0.1 0.1 0.1 0.2 0 0 0 0.1 0 0 0 0.1 0 0.1 0.1 0.1 0 0.1 0 0.1 0.1 0.1 0.1 0.2 0 0 0.1 0.1 0 0 0.1 0.1 0 0.1 0.1 0.2 0.1 0 0.2 0.1 0.2 0.1 0.3 0.1 0.1 0.1 0.2 0.1 0.1 0.1 0.3 0.1 0.1 0 0.3 0 0.1 0 0.2 0 0.2 0 0.3-0.1 0.2-0.1 0.4-0.1 0.1-0.1 0.3-0.2 0.2-0.1 0.3-0.3 0.2-0.1 0.3-0.2 0.3-0.3 0.7-0.8l0.1-0.1q0 0 0 0 0 0 0.1 0 0-0.1 0-0.1 0 0 0 0 0.1-0.2 0.2-0.3 0.1-0.2 0.1-0.4 0.1-0.1 0.1-0.3 0.1-0.2 0-0.4 0-0.1 0-0.3 0-0.2-0.1-0.3-0.1-0.2-0.2-0.3-0.1-0.2-0.2-0.3z"/>
			<path id="Path_20" class="s1" d="m22.5 107.8l0.2-0.3 0.3 0.3 0.2 0.1q0.2 0.1 0.3 0.2 0.1 0 0.3 0.2 0 0 0.1 0 0 0.1 0.2 0.2 0.2 0.1 0.3 0.2 0 0 0.1 0.1 0.2 0.9 0.3 1.6 0.1 0.7 0.9 4.8l0.1-0.1 0.3-0.5q0.2-0.4 0.4-0.7 0.1-0.2 0.4-0.5 0.2-0.4 0.3-0.7 0.4-0.5 0.4-0.6 0 0 0.1-0.1 0 0 0-0.1 0 0 0-0.1 0.1 0 0.1 0-0.1-0.1-0.1-0.2 0 0 0-0.1-0.1 0-0.1-0.1-0.1 0-0.1 0-0.1-0.1-0.1-0.1 0-0.1-0.1-0.1 0 0 0-0.1-0.1 0-0.1-0.1l0.2-0.2 0.1 0.1 0.8 0.5 0.9 0.6q0.1 0 0.2 0.1l-0.2 0.2q0 0-0.1 0 0 0 0 0-0.1 0-0.1 0 0 0-0.1 0 0 0 0-0.1-0.1 0-0.1 0-0.1 0-0.1 0-0.1 0-0.1 0 0 0-0.1 0 0-0.1-0.1-0.1 0 0 0 0-0.1 0-0.1 0 0 0.1-0.1 0.1 0 0 0 0 0 0 0 0 0 0.1-0.1 0.1 0 0-0.1 0.1 0 0.1-0.2 0.4-0.4 0.6-0.6 0.9-0.1 0.1-0.2 0.3l-0.9 1.4q-0.1 0.2-0.1 0.2l-0.4 0.5-0.1 0.2-0.2 0.2q-0.1 0.2-0.1 0.2l-0.1 0.2-0.5-0.3-0.1-0.8-0.3-1.6-0.2-1.2-0.2-0.8q-0.1-0.8-0.3-1.5l-0.2-1-1 1.5q-0.1 0.1-0.2 0.3l-0.2 0.3-0.3 0.5q-0.3 0.3-0.5 0.8 0 0 0 0 0 0 0 0 0 0.1 0 0.1-0.1 0-0.1 0 0 0 0 0.1 0 0 0 0 0 0 0 0 0 0 0 0.1 0.1 0 0.1 0.1 0.1 0.1 0.2 0.2 0.1 0 0.2 0.1 0 0.1 0.1 0.1 0 0.1 0.1 0.1l-0.2 0.4-0.2-0.1q-0.1-0.1-0.7-0.7-0.7-0.4-0.9-0.5-0.2-0.2-0.2-0.2-0.1 0-0.1 0 0 0 0 0 0 0 0 0 0-0.1-0.1-0.1 0.1-0.1 0.1-0.1 0.1-0.1 0.1-0.2 0.1 0 0.1 0 0 0.1 0 0.1 0.1 0 0.1 0 0 0 0 0 0.1 0 0.2 0.1 0 0.1 0.1 0.1 0 0.1 0.1 0.1 0.1 0 0.1 0 0.1 0.1 0.1 0.1 0.1 0 0.3-0.3 0.4-0.6 0.5-0.7l0.2-0.2 0.9-1.3 0.5-0.8q0.1-0.1 0.2-0.2 0-0.1 0.1-0.2 0-0.1 0.1-0.1 0-0.1 0-0.2 0-0.1 0-0.1 0.1 0 0.1 0 0-0.1 0-0.1 0 0-0.1 0 0-0.1 0-0.2 0 0 0-0.1 0 0-0.1-0.1 0 0 0-0.1-0.1 0-0.1-0.1-0.1-0.1-0.1-0.1-0.1-0.1-0.1-0.2-0.1 0-0.2-0.1z"/>
			<path id="Path_21" class="s1" d="m33.6 114.8l0.1-0.3 0.4 0.1 0.1 0.1q0.3 0.1 0.4 0.1 0 0 0.3 0.1 0 0.1 0.1 0.1 0 0 0.3 0.1 0.2 0.1 0.3 0.1 0 0 0.1 0 0.4 1 0.7 1.6 0.3 0.6 1.9 4.4l0.1-0.1 0.2-0.5q0.1-0.5 0.2-0.8 0.1-0.2 0.3-0.6 0.1-0.4 0.2-0.7 0.2-0.6 0.2-0.7 0 0 0-0.1 0.1 0 0.1-0.1 0 0 0-0.1 0 0 0-0.1-0.1 0-0.1-0.1 0 0-0.1-0.1 0 0-0.1 0 0-0.1-0.1-0.1 0 0-0.1-0.1 0 0-0.1 0 0 0-0.1-0.1 0 0 0 0l0.1-0.3h0.1l0.9 0.3 1 0.4q0.1 0 0.2 0.1l-0.1 0.3q0 0-0.1 0 0 0 0 0-0.1 0-0.1 0 0 0-0.1 0 0 0 0 0-0.1 0-0.1-0.1-0.1 0-0.1 0-0.1 0-0.1 0-0.1 0-0.1 0 0 0.1-0.1 0.1 0 0-0.1 0 0 0 0 0-0.1 0-0.1 0 0 0 0 0.1 0 0 0 0 0 0 0 0-0.1 0.1-0.1 0.2 0 0.1-0.2 0.4-0.2 0.7-0.3 1.1-0.1 0.1-0.1 0.3l-0.6 1.6q-0.1 0.1-0.1 0.2l-0.2 0.5-0.1 0.3-0.1 0.2q0 0.2-0.1 0.3l-0.1 0.2-0.5-0.2-0.3-0.8-0.7-1.5-0.4-1-0.4-0.8q-0.3-0.8-0.6-1.4l-0.5-0.9-0.6 1.7q0 0.1-0.1 0.3l-0.1 0.3-0.2 0.6q-0.2 0.4-0.3 0.8 0 0 0 0.1 0 0 0 0 0 0 0 0-0.1 0.1-0.1 0.1 0 0 0 0 0 0 0 0.1 0 0 0 0 0 0 0 0 0.1 0.1 0.2 0.2 0.1 0 0.2 0.1 0.1 0 0.2 0.1 0.1 0 0.2 0 0 0.1 0.1 0.1l-0.2 0.4-0.1-0.1q-0.2 0-0.9-0.4-0.7-0.3-1-0.3-0.2-0.1-0.3-0.1 0 0 0 0 0-0.1 0-0.1 0 0-0.1 0 0 0 0 0 0-0.1 0.1-0.2 0 0 0-0.1 0.1 0 0.1 0 0 0 0 0 0.1 0 0.1 0 0 0 0.1 0 0 0 0.1 0.1 0.1 0 0.1 0 0.1 0.1 0.2 0.1 0 0 0.1 0 0 0 0.1 0 0.1 0 0.2-0.3 0.3-0.7 0.4-0.8l0.1-0.3 0.6-1.4 0.3-1q0-0.1 0.1-0.1 0-0.1 0-0.2 0.1-0.1 0.1-0.2 0-0.1 0-0.2 0 0 0-0.1 0 0 0 0 0-0.1 0-0.1 0 0 0 0 0-0.1-0.1-0.1 0-0.1 0-0.1 0-0.1-0.1-0.1 0-0.1-0.1-0.1 0-0.1-0.1-0.1-0.1-0.1-0.1-0.1-0.1-0.1-0.2-0.1-0.1-0.1-0.1-0.1z"/>
			<path id="Path_22" class="s1" d="m46.2 118.7q0.2 0 0.4 0.1 0.1 0 0.2 0 0.1 0.1 0.3 0.1 0.1 0 0.2 0 0.1 0 0.2 0.1 0.2 0 0.9 0.1 1.1 0.1 1.9 0.2l0.9 0.2q0.1 0 0.2 0 0.1 0 0.2 0 0.1 0.1 0.2 0.1 0.1 0 0.2 0.1 0.1 0 0.1 0 0 0.1 0 0.1 0 0 0 0.1 0 0 0 0l-0.2 1v0.2q0 0 0 0.1h-0.2q0 0-0.2-0.1 0-0.1 0-0.3l-0.2-0.3q0-0.1 0-0.1-0.1-0.1-0.1-0.2 0 0 0-0.1-0.1-0.1-0.1-0.1-0.1 0-0.1 0 0-0.1-0.1-0.1 0 0 0 0-0.1 0-0.1 0l-0.3-0.1q-0.4-0.1-1-0.2-0.5 0-1-0.1 0 0.1-0.2 0.9l-0.1 0.9-0.1 0.6q0 0 0.1 0 0 0 0 0 0 0 0.1 0 0 0 0 0 0.9 0.1 1.3 0.2 0 0 0.1 0 0 0 0.1 0 0 0 0.1 0 0.1-0.1 0.1-0.1 0 0 0.1 0 0 0 0 0 0-0.1 0.1-0.1 0 0 0 0 0-0.1 0.1-0.2 0-0.1 0.1-0.2 0-0.1 0-0.2 0.1 0 0.1-0.1h0.3q0 0.4-0.1 0.7 0 0.5-0.1 0.6 0 0.2 0 0.2 0 0.2-0.1 0.5 0 0.2 0 0.4v0.1l-0.4-0.1q0 0 0-0.3 0-0.1 0-0.1 0-0.1 0-0.2 0-0.1 0-0.1-0.1-0.1-0.1-0.2 0 0 0 0 0 0-0.1-0.1 0 0 0 0 0 0-0.1 0 0-0.1-0.1-0.1-0.1 0-0.2 0-0.1 0-0.2-0.1-0.1 0-0.2 0-0.7-0.1-1.1-0.1v0.2q-0.1 0.5-0.1 0.9l-0.2 1q0 0.1 0 0.1 0 0.1 0 0.1 0 0 0.1 0.1 0 0 0 0 0.2 0.1 0.3 0.1 0.1 0.1 0.3 0.1 0.1 0 0.3 0.1 0.1 0 0.3 0 0.1 0 0.3 0 0.1 0.1 0.3 0.1 0.1 0 0.3 0 0.1 0 0.2 0 0.1 0 0.2-0.1 0.1 0 0.2 0 0 0 0.1-0.1 0.1 0 0.2-0.1 0.1 0 0.2-0.1 0.1-0.1 0.1-0.2 0.1-0.1 0.2-0.2 0.1-0.2 0.1-0.3 0.2 0 0.3 0 0 0.1 0.1 0.1v0.2l-0.1 0.1-0.3 0.9-0.1 0.5q-0.4 0-0.5 0-0.3-0.1-1.5-0.3-0.8-0.2-1.9-0.3-0.6-0.1-1.5-0.2l-0.2-0.1h-0.6l0.1-0.4q0 0 0.1 0 0 0 0.1 0 0 0 0.1 0 0 0 0.1 0 0.1 0.1 0.2 0.1 0 0 0.1 0 0.1-0.1 0.2-0.1 0.1 0 0.2 0 0 0 0-0.1 0 0 0.1-0.1 0 0 0-0.1 0 0 0 0 0-0.1 0-0.3l0.1-0.2 0.2-1.8 0.1-0.5 0.1-0.8 0.1-0.5 0.1-0.6q0 0 0-0.1 0 0 0 0 0 0 0 0 0 0 0 0-0.1 0-0.1-0.1 0 0 0 0 0 0 0 0-0.1 0-0.1 0l-0.1-0.1q-0.1 0-0.1 0-0.1 0-0.2-0.1 0 0-0.1 0-0.1 0-0.1 0-0.1 0-0.2-0.1z"/>
			<path id="Path_23" class="s1" d="m63.5 119.8q0.1 0.1 0.3 0.8 0 0 0 0.1 0.1 0.1 0.1 0.2 0 0.1 0 0.2 0 0 0 0.1h-0.4q-0.1-0.1-0.2-0.2-0.1-0.1-0.3-0.3-0.1-0.1-0.2-0.2-0.2-0.1-0.3-0.2-0.1 0-0.3-0.1-0.1 0-0.3 0-0.1-0.1-0.2-0.1-0.2 0-0.3 0-0.2 0-0.4 0.1-0.2 0-0.3 0.1-0.2 0.1-0.3 0.2-0.1 0.1-0.2 0.3-0.2 0.2-0.3 0.5-0.1 0.2-0.2 0.5 0 0.3-0.1 0.6 0 0.3 0.1 0.6 0 0.1 0 0.3 0 0.1 0 0.3 0 0.1 0.1 0.3 0 0.1 0 0.3 0.1 0.1 0.1 0.2 0.1 0.1 0.1 0.2 0.1 0.1 0.2 0.3 0 0.1 0.1 0.2 0.1 0 0.1 0.1 0.1 0.1 0.2 0.1 0 0.1 0.1 0.1 0.1 0 0.2 0.1 0.1 0 0.2 0.1 0.1 0 0.2 0 0.1 0 0.2 0 0.2 0.1 0.3 0 0.1 0 0.3 0 0.1 0 0.2-0.1 0.1 0 0.3-0.1 0.1 0 0.2-0.1 0.1-0.1 0.3-0.3 0.1-0.1 0.2-0.2 0.1-0.1 0.2-0.3 0.1-0.1 0.2-0.3 0.1 0 0.1 0 0.1 0 0.1 0 0.1 0 0.2 0 0 0 0.1 0 0 0 0 0.1 0 0 0 0.1-0.1 0-0.1 0.1 0 0 0 0.1 0 0-0.1 0.6v0.1l-0.1 0.3q0 0-0.1 0.1-0.1 0-0.2 0.1-0.1 0-0.2 0.1-0.2 0-0.3 0-0.1 0.1-0.3 0.1-0.2 0-0.3 0.1-0.2 0-0.3 0-0.2 0-0.4 0-0.1 0-0.3 0-0.1 0-0.2 0-0.2 0-0.3 0-0.2 0-0.3 0-0.1-0.1-0.3-0.1-0.1 0-0.2-0.1-0.1 0-0.2 0-0.1-0.1-0.2-0.2-0.2 0-0.3-0.1-0.1-0.1-0.2-0.2-0.1-0.1-0.2-0.2-0.1-0.1-0.2-0.2-0.1-0.1-0.2-0.2-0.1-0.1-0.1-0.2-0.1-0.1-0.1-0.2-0.1-0.1-0.1-0.2-0.1-0.2-0.1-0.3-0.1-0.1-0.1-0.3 0-0.1 0-0.2 0-0.2 0-0.3-0.1-0.3 0-0.7 0-0.3 0.1-0.6 0.1-0.3 0.3-0.6 0.2-0.3 0.4-0.5 0.2-0.3 0.5-0.5 0.3-0.2 0.6-0.3 0.3-0.1 0.6-0.2 0.3-0.1 0.7-0.1 0.1 0 0.3 0 0.1 0 0.2 0 0.2 0 0.3 0 0.2 0 0.3 0 0.1 0 0.3 0 0.1 0 0.2 0.1 0.1 0 0.3 0 0.1 0 0.2 0.1z"/>
			<path id="Path_24" class="s1" d="m69.3 118.5h0.3 0.1q0 0.1 0 0.1 0.1 0 0.1 0.1 0 0 0.1 0 0 0.1 0 0.1 0.1 0 0.7-0.2 0.3-0.1 0.6-0.1l0.1-0.1 0.6-0.1 1.1-0.3 1.4-0.4 0.3-0.1q0 0 0 0 0-0.1 0-0.1 0 0 0-0.1 0 0 0 0 0.1-0.1 0.1-0.2h0.2q0 0 0.1-0.1 0.1 0.4 0.3 1l0.1 0.4v0.3q0 0 0 0 0.1 0.1 0.1 0.1 0 0 0 0 0 0.1 0 0.1-0.1 0-0.1 0 0 0.1-0.1 0.1 0 0-0.1 0 0 0 0 0.1-0.1-0.1-0.2-0.1 0-0.1-0.1-0.2 0 0-0.1-0.1 0 0 0-0.1-0.1 0-0.1-0.1 0 0-0.1-0.1 0 0-0.1-0.1 0 0 0 0 0-0.1-0.1-0.1 0 0 0 0 0 0 0 0-0.1 0-0.1 0-0.1 0-1 0.2-0.1 0.1-0.3 0.1 0 0.1 0 0.1 0 0.1 0 0.1 0 0 0 0.1 0 0 0 0.1l0.2 0.6 0.4 1.4 0.4 1.5 0.1 0.6q0 0 0 0.1 0.1 0 0.1 0.1 0 0.1 0 0.1 0.1 0.1 0.1 0.1 0 0 0.1 0 0 0 0 0 0.1 0 0.1 0 0 0 0.1 0 0 0 0.4 0 0 0 0 0 0.1 0 0.1 0 0 0 0.1 0 0 0 0 0 0.1 0.2 0.1 0.2 0 0 0 0.1 0 0 0 0 0 0 0 0 0 0 0 0.1-0.1 0-0.2 0-0.1 0-0.2 0.1-0.1 0-0.2 0-0.1 0-0.2 0-0.1 0.1-0.2 0.1-0.3 0-1.2 0.3-0.2 0-0.8 0.2-0.3 0.1-0.4 0.1 0 0 0-0.1v-0.1h-0.1q0.1-0.1 0.1-0.1 0-0.1 0.1-0.1 0 0 0.1-0.1 0 0 0.1 0 0.1-0.1 0.1-0.1 0.1-0.1 0.2-0.1 0.1 0 0.2-0.1 0-0.1 0.1-0.1 0 0 0-0.1 0 0 0 0 0-0.1 0-0.1 0 0 0-0.1-0.1-0.5-0.4-1.8l-0.5-1.7q0-0.1-0.1-0.3 0-0.1 0-0.2 0-0.1-0.1-0.2 0-0.1-0.1-0.2 0 0 0 0 0 0 0 0 0 0 0-0.1 0 0 0 0 0 0 0 0 0 0 0 0 0 0-0.1 0 0 0 0 0-0.1 0-0.9 0.2-0.1 0.1-0.2 0.1-0.1 0-0.1 0-0.1 0.1-0.2 0.1 0 0-0.1 0.1-0.1 0.1-0.1 0.2-0.1 0.1-0.1 0.2-0.1 0.1-0.2 0.2 0 0.1 0 0.2-0.1 0.2-0.2 0.2 0 0-0.1 0 0 0 0-0.1-0.1 0-0.1 0-0.1 0-0.1 0 0-0.2 0-0.4 0.1-0.1 0.1-0.3 0-0.2 0-0.3 0-0.2 0-0.4 0-0.3 0-0.4z"/>
			<path id="Path_25" class="s1" d="m82.8 121.1l-0.1-0.3q0.1-0.1 0.3-0.2 0-0.1 0.1-0.1 0 0 0-0.1 0.1 0 0.1-0.1 0.1 0 0.1-0.1 0 0 0-0.1 0 0 0-0.1 0 0 0-0.1-0.1 0-0.1-0.1l-0.2-0.5-0.5-1-0.1-0.2q-0.4-0.9-0.4-1l-0.2-0.5-0.1-0.3-0.3-0.5-0.1-0.2q0 0 0 0 0 0 0 0-0.1-0.1-0.1-0.1 0 0 0 0-0.1 0-0.2 0 0 0-0.1 0.1-0.1 0-0.2 0-0.1 0-0.1 0.1-0.1 0-0.1 0 0 0 0 0 0 0-0.1 0 0 0 0 0l-0.2-0.4 1.3-0.5q0.2-0.1 0.3-0.1 0.3-0.1 0.8-0.4 0.3-0.2 0.4-0.2 0.1 0 0.1 0.1 0 0.1 0.1 0.2-0.1 0-0.1 0.1-0.1 0-0.1 0.1-0.1 0-0.1 0 0 0.1-0.1 0.1 0 0-0.1 0.1 0 0 0 0-0.1 0.1-0.1 0.1-0.1 0-0.1 0.1 0 0 0 0.1 0 0 0 0.1 0.1 0 0.1 0 0 0.1 0 0.1 0 0.1 0.1 0.1 0 0 0 0.1 0 0 0 0.1 0.1 0 0.1 0 0.3 0.8 0.5 1.2l0.5 1.1 0.3 0.6 0.4 0.9 0.1 0.2q0 0 0 0 0 0 0 0 0 0 0 0.1 0 0 0 0 0.1 0 0.2-0.1 0 0 0.1 0 0.1 0 0.1 0 0.1 0 0.2-0.1l0.2-0.1q0.1 0.1 0.1 0.1 0 0 0 0.1 0 0 0 0 0 0 0.1 0.1 0 0 0 0.1 0 0 0 0 0 0 0 0 0 0 0 0-0.1 0-0.1 0.1-0.1 0-0.1 0 0 0-0.1 0.1 0 0 0 0 0 0 0 0 0 0 0 0-0.1 0-0.7 0.2l-0.7 0.3q-0.3 0.1-0.7 0.4-0.3 0.2-0.4 0.2z"/>
			<path id="Path_26" fill-rule="evenodd" class="s1" d="m89.7 114q-0.1-0.2-0.1-0.3-0.1-0.1-0.2-0.3 0-0.1-0.1-0.3-0.1-0.1-0.1-0.3 0-0.1 0-0.2-0.1-0.1-0.1-0.2 0-0.1 0-0.2 0-0.2 0-0.3 0-0.1 0.1-0.2 0-0.2 0-0.3 0.1-0.1 0.1-0.2 0-0.1 0.1-0.3 0-0.1 0.1-0.2 0-0.1 0.1-0.2 0.1-0.1 0.2-0.2 0-0.1 0.1-0.2 0.1-0.1 0.2-0.2 0.1-0.1 0.2-0.2 0.1-0.1 0.2-0.2 0.1-0.1 0.2-0.2 0.2-0.1 0.4-0.2 0.2-0.1 0.4-0.2 0.2-0.1 0.4-0.2 0.2 0 0.5-0.1 0.2 0 0.4 0 0.1 0 0.3 0 0.2 0 0.4 0.1 0.2 0 0.4 0.1 0.2 0.1 0.4 0.2 0.2 0.1 0.4 0.2 0.2 0.2 0.4 0.4 0.1 0.1 0.3 0.3 0.2 0.3 0.3 0.6 0.1 0.3 0.2 0.6 0.1 0.3 0.1 0.6 0 0.4 0 0.7-0.1 0.3-0.2 0.7-0.2 0.3-0.4 0.6-0.2 0.3-0.4 0.5-0.3 0.3-0.6 0.5-0.1 0-0.1 0.1-0.1 0-0.2 0.1-0.1 0-0.2 0.1 0 0-0.1 0.1-0.1 0-0.1 0-0.1 0.1-0.2 0.1 0 0-0.1 0 0 0-0.1 0.1-0.4 0.1-0.4 0.1-0.1 0-0.3 0-0.1 0-0.2 0-0.2 0-0.3 0-0.1 0-0.2 0-0.2 0-0.3-0.1-0.1 0-0.2 0-0.1-0.1-0.2-0.1-0.1 0-0.2-0.1-0.1 0-0.2-0.1-0.1-0.1-0.2-0.1 0-0.1-0.1-0.2-0.1 0-0.2-0.1-0.1-0.1-0.2-0.1 0-0.1-0.1-0.2-0.1-0.1-0.1-0.2-0.1 0-0.2-0.1zm1.1-4.2q0 0.1-0.1 0.2-0.1 0-0.1 0.1-0.1 0.1-0.2 0.2 0 0.1 0 0.1-0.1 0.1-0.1 0.2 0 0.1-0.1 0.2 0 0 0 0.1 0 0.1 0 0.2 0 0.1 0 0.2 0 0.1 0.1 0.3 0 0.1 0 0.2 0 0.1 0.1 0.2 0.1 0.2 0.1 0.3 0.1 0.1 0.2 0.2 0 0.2 0.1 0.3 0.1 0.1 0.2 0.2 0 0.1 0.1 0.2 0 0 0 0.1 0.1 0 0.1 0.1 0.1 0.1 0.1 0.1 0.1 0 0.2 0.2 0 0 0.1 0.1 0 0 0.1 0 0 0.1 0.1 0.1 0 0.1 0.1 0.1 0.1 0.1 0.1 0.1 0.1 0.1 0.2 0.2 0.1 0 0.2 0.1 0.1 0 0.2 0.1 0 0 0.1 0 0.1 0.1 0.2 0.1 0 0 0.1 0 0.1 0 0.2 0 0 0 0.1 0 0.1 0 0.1 0 0.1 0 0.1 0 0.1 0 0.2 0 0-0.1 0.1-0.1 0.1 0 0.1 0 0.1-0.1 0.2-0.1 0 0 0.1-0.1 0.1 0 0.2-0.1 0.1-0.1 0.1-0.2 0.1-0.1 0.2-0.2 0.1-0.1 0.1-0.2 0.1-0.2 0.1-0.3 0.1-0.1 0.1-0.3 0-0.1 0-0.3 0-0.1-0.1-0.2 0-0.2-0.1-0.4 0-0.2-0.1-0.4-0.1-0.1-0.2-0.3-0.1-0.2-0.2-0.3-0.3-0.4-0.7-0.9h-0.1q0 0 0-0.1 0 0 0 0-0.1 0-0.1 0 0 0 0-0.1-0.1-0.1-0.3-0.2-0.1-0.1-0.3-0.2-0.2 0-0.3-0.1-0.2 0-0.4-0.1-0.2 0-0.3 0.1-0.2 0-0.4 0-0.1 0.1-0.3 0.2-0.1 0-0.3 0.1z"/>
			<path id="Path_27" class="s1" d="m97.8 104.3l-0.3-0.2 0.3-0.3 0.1-0.1q0.2-0.2 0.2-0.3 0.1-0.1 0.3-0.3 0 0 0 0 0.1-0.1 0.2-0.3 0.2-0.2 0.2-0.2 0.1 0 0.1-0.1 1-0.1 1.7-0.1 0.7-0.1 4.9-0.3l-0.1-0.1-0.5-0.4q-0.3-0.3-0.6-0.5-0.2-0.1-0.5-0.4-0.3-0.3-0.6-0.4-0.5-0.4-0.5-0.5-0.3-0.2-0.4-0.2 0 0-0.1 0-0.1 0.1-0.1 0.1-0.1 0-0.1 0.1-0.1 0-0.1 0 0 0.1-0.1 0.1 0 0-0.1 0.1 0 0-0.1 0 0 0-0.1 0.1l-0.2-0.2 0.1-0.1 0.6-0.8 0.7-0.8q0.1-0.1 0.1-0.1l0.3 0.2q0 0 0 0 0 0.1-0.1 0.1 0 0 0 0.1 0 0 0 0 0 0-0.1 0.1 0 0 0 0.1 0 0 0 0.1-0.1 0-0.1 0 0 0.1 0 0.1 0 0.1 0 0.1 0 0 0 0.1 0 0 0 0.1 0 0 0 0 0 0 0 0 0 0.1 0 0.1 0.1 0 0.1 0 0 0 0.1 0.1 0.1 0.1 0.3 0.3 0.6 0.5 0.9 0.7 0.1 0.1 0.2 0.2l1.3 1.1q0.2 0.1 0.2 0.2l0.5 0.4 0.2 0.1 0.2 0.2q0.1 0.1 0.2 0.1l0.1 0.2-0.3 0.4-0.8 0.1-1.7 0.1h-1.2l-0.8 0.1q-0.9 0-1.5 0.1l-1.1 0.1 1.4 1.2q0.1 0.1 0.3 0.2l0.2 0.2 0.5 0.4q0.3 0.3 0.7 0.6 0 0 0 0 0 0 0.1 0 0 0 0 0.1 0 0 0 0 0.1 0 0.1 0 0 0 0 0 0 0 0 0 0.1 0 0.1 0 0.1 0 0.2-0.1 0-0.1 0.1-0.1 0.1-0.1 0.2-0.2 0 0 0.1-0.1 0 0 0.1-0.1l0.3 0.3-0.1 0.1q-0.1 0.1-0.7 0.7-0.5 0.6-0.7 0.8-0.1 0.2-0.1 0.2-0.1 0-0.1 0 0 0 0 0.1 0 0 0 0 0 0-0.1 0 0-0.1-0.1-0.1-0.1 0-0.1-0.1 0-0.1 0-0.1 0 0 0 0 0-0.1 0.1-0.1 0 0 0 0 0 0 0.1-0.2 0.1 0 0.1 0 0.1-0.1 0.1-0.1 0-0.1 0.1-0.1 0-0.1 0-0.2 0 0-0.2-0.2-0.5-0.6-0.7-0.7l-0.2-0.2-1.1-1-0.8-0.7q-0.1 0-0.1-0.1-0.1-0.1-0.2-0.1-0.1-0.1-0.1-0.1-0.1-0.1-0.2-0.1 0 0-0.1-0.1 0 0 0 0 0 0-0.1 0 0 0 0 0-0.1 0-0.1 0-0.1 0-0.2 0.1 0 0-0.1 0 0 0-0.1 0-0.1 0.1-0.1 0.1-0.1 0.1-0.2 0.1 0 0.1-0.1 0.1-0.1 0.1-0.1 0.1z"/>
			<path id="Path_28" class="s1" d="m107.8 90.5q0.1 0 0.2 0 0 0.1 0.1 0.1 0 0 0.1 0 0.1 0.1 0.1 0.1 0.1 0 0.2 0.1 0.1 0 0.2 0 0.1 0.1 0.1 0.1 0.1 0.1 0.2 0.1 0 0 0.1 0.1 0 0 0 0 0 0 0 0 0 0 0.1 0v0.1l-0.2 0.3h-0.1q-0.1 0-0.2 0-0.1 0-0.3-0.1-0.1 0-0.2 0-0.1 0-0.2 0.1-0.2 0-0.3 0-0.1 0.1-0.2 0.2-0.1 0-0.2 0.1-0.1 0.1-0.1 0.2-0.1 0.1-0.1 0.2-0.1 0.1-0.1 0.2 0 0.1 0 0.2 0 0.1 0 0.2 0 0.1 0.1 0.2 0 0 0.1 0.1 0 0.1 0.1 0.1 0 0.1 0.1 0.1 0.1 0.1 0.2 0.1 0 0 0.1 0 0.1 0 0.2 0 0.1 0 0.2 0 0.1-0.1 0.3-0.1 0.1-0.1 0.2-0.2 0.2-0.1 0.3-0.2 0.1-0.1 0.2-0.2 0.1-0.1 0.2-0.1 0-0.1 0.1-0.2 0.1 0 0.2-0.1 0 0 0.1-0.1 0.1-0.1 0.2-0.1 0.1-0.1 0.1-0.1 0.1 0 0.2-0.1 0.1 0 0.2 0 0.1-0.1 0.2-0.1 0.1 0 0.2 0 0 0 0.1 0 0.1 0 0.2 0 0.1 0 0.2 0.1 0.1 0 0.1 0 0.1 0 0.2 0.1 0.1 0 0.2 0.1 0.1 0 0.2 0.1 0 0.1 0.1 0.1 0.1 0.1 0.2 0.2 0.1 0.1 0.2 0.2 0 0 0 0.1 0.1 0 0.1 0.1 0 0.1 0 0.1 0.1 0.1 0.1 0.1 0 0.1 0 0.2 0 0.1 0 0.1 0 0.1 0 0.2 0.1 0 0.1 0.1 0 0.1 0 0.2 0 0.1-0.1 0.2 0 0 0 0.1 0 0.1 0 0.2-0.1 0.1-0.1 0.2 0 0.1-0.1 0.2 0 0.1-0.1 0.2 0 0.1-0.1 0.2 0 0.1-0.1 0.1 0 0.1-0.1 0.2-0.1 0.1-0.1 0.2-0.1 0-0.2 0.1l-0.4 0.4q0 0.1-0.1 0.1 0 0 0 0.1-0.1 0-0.1 0 0 0-0.1 0 0 0 0 0 0 0 0 0 0 0 0 0 0 0-0.1 0-0.1 0-0.6-0.3-0.3-0.2-0.4-0.2l-0.1-0.1 0.2-0.4q0.6 0.1 0.7 0.1 0.1 0 0.1 0 0.1-0.1 0.2-0.1 0 0 0.1 0 0 0 0.1 0 0.1 0 0.1-0.1 0.1 0 0.1 0 0.1-0.1 0.1-0.1 0.1 0 0.1-0.1 0.1 0 0.1-0.1 0.1 0 0.1-0.1 0.1 0 0.1-0.1 0.1 0 0.1-0.1 0-0.1 0.1-0.1 0-0.1 0-0.2 0 0 0.1-0.1 0-0.1 0-0.2 0 0 0-0.1 0-0.1 0-0.2 0-0.1 0-0.1 0-0.1-0.1-0.2 0-0.1-0.2-0.3-0.1-0.1-0.2-0.2-0.2 0-0.4 0-0.1 0-0.3 0-0.1 0.1-0.3 0.2-0.1 0.1-0.2 0.1-0.1 0.1-0.3 0.2-0.1 0.1-0.2 0.2-0.1 0.1-0.2 0.2-0.2 0.2-0.3 0.3-0.2 0.1-0.3 0.1-0.1 0.1-0.3 0.2-0.1 0.1-0.2 0.1-0.1 0-0.2 0-0.1 0-0.2 0.1-0.1 0-0.2-0.1-0.1 0-0.2 0-0.2 0-0.3 0-0.1-0.1-0.1-0.1-0.1 0-0.2-0.1-0.2-0.1-0.3-0.2-0.2-0.1-0.3-0.3-0.1-0.1-0.2-0.3 0-0.1-0.1-0.3 0-0.2 0-0.5 0-0.2 0-0.4 0.1-0.2 0.2-0.4 0-0.2 0.2-0.4 0-0.1 0.1-0.1 0-0.1 0.1-0.2 0-0.1 0.1-0.1 0-0.1 0.1-0.2 0 0 0.1-0.1 0.1-0.1 0.2-0.1 0-0.1 0.1-0.2 0.1 0 0.1-0.1z"/>
		</g>
	</g>
</svg>