<svg xmlns="http://www.w3.org/2000/svg" xmlns:xlink="http://www.w3.org/1999/xlink" width="47" height="44" viewBox="0 0 47 44">
  <defs>
    <linearGradient id="linear-gradient" x1="0.045" y1="0.821" x2="0.782" y2="0.208" gradientUnits="objectBoundingBox">
      <stop offset="0" stop-color="#2e2d76"/>
      <stop offset="1" stop-color="#a8d1fd"/>
    </linearGradient>
  </defs>
  <g id="Group_4623" data-name="Group 4623" transform="translate(-1719 -131)">
    <rect id="Rectangle_1951" data-name="Rectangle 1951" width="47" height="44" rx="9" transform="translate(1719 131)" fill="url(#linear-gradient)"/>
    <g id="_9298908_work_ui_job_suitcase_briefcase_icon" data-name="9298908_work_ui_job_suitcase_briefcase_icon" transform="translate(1730.322 140.822)">
      <path id="Path_1406" data-name="Path 1406" d="M158.084,211.875H149.62a.87.87,0,0,0,0,1.739v.58a.87.87,0,0,0,.87.87h0a.87.87,0,0,0,.87-.87v-.58h4.986v.58a.87.87,0,0,0,.87.87h0a.87.87,0,0,0,.87-.87v-.58a.87.87,0,0,0,0-1.739Z" transform="translate(-141.674 -201.796)" fill="#fff"/>
      <path id="Path_1407" data-name="Path 1407" d="M221.177,126.562a1.739,1.739,0,0,0-1.739,1.739h3.478A1.739,1.739,0,0,0,221.177,126.562Z" transform="translate(-209 -120.542)" fill="#fff"/>
      <path id="Path_1408" data-name="Path 1408" d="M12.178,0A12.178,12.178,0,1,0,24.355,12.178,12.178,12.178,0,0,0,12.178,0ZM19.6,17.384a1.739,1.739,0,0,1-1.739,1.739H6.5a1.739,1.739,0,0,1-1.739-1.739V9.5A1.739,1.739,0,0,1,6.5,7.76H8.7a3.479,3.479,0,0,1,3.479-3.479h0A3.478,3.478,0,0,1,15.656,7.76h2.2A1.739,1.739,0,0,1,19.6,9.5v7.885Z" fill="#fff"/>
    </g>
  </g>
</svg>
