<svg xmlns="http://www.w3.org/2000/svg" width="176.769" height="176.769" viewBox="0 0 176.769 176.769">
  <path id="Icon_awesome-user-circle" data-name="Icon awesome-user-circle" d="M88.385.563a88.385,88.385,0,1,0,88.385,88.385A88.369,88.369,0,0,0,88.385.563Zm0,34.213A31.362,31.362,0,1,1,57.022,66.138,31.363,31.363,0,0,1,88.385,34.776Zm0,122.6a68.294,68.294,0,0,1-52.211-24.306,39.735,39.735,0,0,1,35.1-21.312,8.721,8.721,0,0,1,2.53.392,47.186,47.186,0,0,0,14.576,2.459,47.007,47.007,0,0,0,14.576-2.459,8.72,8.72,0,0,1,2.53-.392,39.735,39.735,0,0,1,35.1,21.312A68.294,68.294,0,0,1,88.385,157.374Z" transform="translate(0 -0.563)" fill="#d9d9d9"/>
</svg>
