<svg xmlns="http://www.w3.org/2000/svg" width="19.79" height="15.832" viewBox="0 0 19.79 15.832">
  <path id="Icon_awesome-eye-slash" data-name="Icon awesome-eye-slash" d="M9.9,12.369A4.436,4.436,0,0,1,5.476,8.253L2.233,5.746A10.306,10.306,0,0,0,1.1,7.465a1,1,0,0,0,0,.9,9.918,9.918,0,0,0,8.8,5.486,9.6,9.6,0,0,0,2.408-.323l-1.6-1.242a4.457,4.457,0,0,1-.8.081Zm9.7,1.8L16.18,11.523a10.243,10.243,0,0,0,2.512-3.156,1,1,0,0,0,0-.9A9.918,9.918,0,0,0,9.9,1.979,9.529,9.529,0,0,0,5.34,3.145L1.406.1A.5.5,0,0,0,.711.191L.1.972a.5.5,0,0,0,.087.694L18.384,15.728a.5.5,0,0,0,.694-.087l.607-.781a.5.5,0,0,0-.087-.694ZM13.918,9.774,12.7,8.835a2.93,2.93,0,0,0-3.59-3.77,1.473,1.473,0,0,1,.288.872,1.442,1.442,0,0,1-.048.309L7.076,4.487A4.4,4.4,0,0,1,9.9,3.463a4.45,4.45,0,0,1,4.453,4.453,4.347,4.347,0,0,1-.43,1.859Z" transform="translate(0 0)" fill="#b2b2b2"/>
</svg>
