<svg xmlns="http://www.w3.org/2000/svg" width="14.164" height="16.187" viewBox="0 0 14.164 16.187">
  <path id="Icon_metro-attachment" data-name="Icon metro-attachment" d="M13.554,7.1,12.527,6.072,7.393,11.205a2.178,2.178,0,0,0,3.08,3.08l6.161-6.16A3.63,3.63,0,0,0,11.5,2.992L5.032,9.46l-.014.013a5.063,5.063,0,0,0,7.161,7.159l.013-.014h0L16.608,12.2,15.58,11.178l-4.416,4.414-.013.013A3.611,3.611,0,0,1,6.044,10.5l.014-.013h0l6.47-6.468A2.178,2.178,0,1,1,15.608,7.1l-6.161,6.16A.726.726,0,1,1,8.42,12.232L13.554,7.1Z" transform="translate(-3.535 -1.928)"/>
</svg>
