<svg xmlns="http://www.w3.org/2000/svg" width="60.834" height="65.874" viewBox="0 0 60.834 65.874">
  <g id="Group_4553" data-name="Group 4553" transform="translate(-107.784 -75.255)">
    <g id="Group_2" data-name="Group 2" transform="translate(117.959 93.623)">
      <path id="Path_1" data-name="Path 1" d="M344.186,433.59a22.666,22.666,0,0,1,4.049-.858c-.062-.006-.125-.009-.186-.016a12.635,12.635,0,0,1-4.37-1.611c-.6-.31-1.16-.6-1.734-.845a4.845,4.845,0,0,0-1.847-.453,2.168,2.168,0,0,0-.638.09,3.249,3.249,0,0,0-1.844,2.505c-.646,2.961.722,6.029,2.045,9,.306.687.623,1.4.905,2.087.466,1.142.934,2.275,1.392,3.373a11.411,11.411,0,0,1,.906-.956,11.118,11.118,0,0,1,1.115-.92c-.7-1.316-1.345-2.678-1.519-2.991a6.785,6.785,0,0,1-.666-5.906A4.782,4.782,0,0,1,344.186,433.59Z" transform="translate(-333.502 -426.372)" fill="#b3b3b3"/>
      <g id="Group_1" data-name="Group 1" transform="translate(18.548 7.564)">
        <path id="Path_2" data-name="Path 2" d="M717.17,497.4v2.824a.416.416,0,0,0,.452.452H720.9v11.8c1.278-.155,2.57-.413,3.84-.674V500.671h3.275a.4.4,0,0,0,.452-.452V497.4a.4.4,0,0,0-.452-.452h-10.39A.416.416,0,0,0,717.17,497.4Z" transform="translate(-708.418 -496.944)" fill="#2e2d76"/>
        <path id="Path_3" data-name="Path 3" d="M578.688,509.409V497.4a.4.4,0,0,0-.452-.452H575.3a.416.416,0,0,0-.452.452v9.048a6.8,6.8,0,0,1,2.012,1.043A9.932,9.932,0,0,1,578.688,509.409Z" transform="translate(-574.848 -496.944)" fill="#2e2d76"/>
        <path id="Path_4" data-name="Path 4" d="M584.494,767.566a13.262,13.262,0,0,1-6.811-1.733,12.124,12.124,0,0,1-2.835-2.529v5.755a.4.4,0,0,0,.452.452h10.108a.392.392,0,0,0,.452-.452v-1.551C585.4,767.544,584.942,767.566,584.494,767.566Z" transform="translate(-574.848 -746.924)" fill="#2e2d76"/>
        <path id="Path_5" data-name="Path 5" d="M777.777,817.055v1.712a.4.4,0,0,0,.451.452h2.936a.392.392,0,0,0,.452-.452v-2.5A34.74,34.74,0,0,1,777.777,817.055Z" transform="translate(-765.297 -796.631)" fill="#2e2d76"/>
      </g>
      <path id="Path_6" data-name="Path 6" d="M276.233,375.169a6.175,6.175,0,0,1,5.691-.887c2.08.735,3.667,2.545,5.81,3.081,2.32.58,4.7-.452,6.948-1.249,2.057-.728,4.5-1.221,6.367-.226a.081.081,0,0,1-.06.149c-2.073-.5-4.315.31-6.286,1.218-2.153.992-4.411,2.142-6.773,1.868-2.086-.242-3.854-1.556-5.783-2.372a4.894,4.894,0,0,0-3.288-.4,4.338,4.338,0,0,0-2.643,3.375c-.892,4.088,1.514,8.113,3.01,11.777.5,1.22,1.007,2.451,1.512,3.661q.229.553.461,1.109l.248.6c-.073-.176.669-1.064.8-1.237a10.259,10.259,0,0,1,1.165-1.3,9.435,9.435,0,0,1,2.885-1.873,6.986,6.986,0,0,1,6.774.566,18.56,18.56,0,0,1,2.623,3,6.487,6.487,0,0,0,3.612,2.093c4.071.906,8.36-.558,12.35-1.188a21.62,21.62,0,0,1,3.372-.3c.367,0,.73.013,1.079.038l.321.025.036,0,.6.075c.027,0,.051.007.075.011l.635.1.549.115c.326.073.655.157.99.25a.128.128,0,0,1-.031.251,24.827,24.827,0,0,0-7.248,1.22,43.856,43.856,0,0,1-9.134,2.141,12.681,12.681,0,0,1-7.648-1.494,12.912,12.912,0,0,1-2.93-2.715c-1.221-1.347-2.683-2.072-4.48-1.438a5.067,5.067,0,0,0-2.909,2.162,10.172,10.172,0,0,0-.9,3.922c-.1,1.015.171,2.4-.817,3.059a1.729,1.729,0,0,1-1,.281,1.7,1.7,0,0,1-.719-.176c-1.478-.743-1.883-3.19-2.419-4.57-.842-2.477-1.907-4.9-2.835-7.345q-.348-.924-.693-1.849t-.679-1.852a24.886,24.886,0,0,1-1.526-5.269C272.966,380.565,273.611,377.082,276.233,375.169Z" transform="translate(-273.248 -373.943)" fill="#a8d1fd"/>
    </g>
    <g id="Group_3" data-name="Group 3" transform="translate(107.784 75.255)">
      <path id="Path_7" data-name="Path 7" d="M111.861,369.289a2.6,2.6,0,0,1,.09-.324q.068-.2.085-.238a.322.322,0,0,0,.046-.2.65.65,0,0,0-.125-.088l-.436-.211-.429-.241-.28-.141-.329-.17-.355-.17-.747-.392-.34-.175-.047-.024a2.045,2.045,0,0,0-.413-.151q-.046,0-.187.149l-.115.1a1,1,0,0,0-.124.128.477.477,0,0,1-.154.13q-.091-.037-.138-.061l-.079-.044a.146.146,0,0,1,.015-.073q.041-.081.322-.574l.239-.484.187-.354q.117-.233.272-.612.045-.113.054-.129a.094.094,0,0,1,.062-.058.268.268,0,0,1,.147.04.185.185,0,0,1,.1.1.343.343,0,0,1-.034.169l-.112.468c0,.014,0,.037,0,.071a.38.38,0,0,0,.03.041l.093.051.208.117.061.031.037.019.182.1c.028.016.057.032.086.047s.1.047.186.085q.208.092.36.168.176.088.4.212.083.046.218.114l1.595.819a.2.2,0,0,0,.149.033l.174-.314.1-.2.11-.211a2.642,2.642,0,0,0,.305-.917.82.82,0,0,0-.036-.4,1.088,1.088,0,0,0-.124-.3,2.283,2.283,0,0,0-.308-.36l.054-.108a1.584,1.584,0,0,1,.105-.176l.094.047q.242.122.818.487a1.536,1.536,0,0,1,.273.2.9.9,0,0,1-.036.1l-.063.125-.085.177q-.015.03-.229.388-.037.066-.348.633t-.589,1.12l-.326.7q-.19.4-.338.765l-.025.051c-.007.013-.019.034-.036.062a.4.4,0,0,1-.067-.025A.723.723,0,0,1,111.861,369.289Z" transform="translate(-107.784 -346.793)" fill="#2e2d76"/>
      <path id="Path_8" data-name="Path 8" d="M172.589,267.131a2.612,2.612,0,0,1-.622-.728,2.208,2.208,0,0,1-.257-.678,2.443,2.443,0,0,1-.022-.781,2.657,2.657,0,0,1,.209-.771,3.344,3.344,0,0,1,.445-.712,2.963,2.963,0,0,1,1.08-.882,2.342,2.342,0,0,1,1.191-.214,2.457,2.457,0,0,1,1.341.519,2.562,2.562,0,0,1,.979,1.711,2.659,2.659,0,0,1-.664,2.057,4.1,4.1,0,0,1-.407.443,2.118,2.118,0,0,1-.3.237q-.253.165-.286.183a3.183,3.183,0,0,1-.787.217,2.473,2.473,0,0,1-.7-.016,3.216,3.216,0,0,1-.624-.223A2.6,2.6,0,0,1,172.589,267.131Zm-.045-3.325a1.1,1.1,0,0,0-.243.55,1.225,1.225,0,0,0,.027.509,2.065,2.065,0,0,0,.345.667,3.885,3.885,0,0,0,.651.635,2.848,2.848,0,0,0,.38.269l.135.079a2.076,2.076,0,0,0,.368.193,4.116,4.116,0,0,0,.607.19,1.527,1.527,0,0,0,.508-.025,1.088,1.088,0,0,0,.345-.145,1.208,1.208,0,0,0,.332-.286,1.552,1.552,0,0,0,.323-.71,1.348,1.348,0,0,0-.157-.842,2.858,2.858,0,0,0-.8-.907q-.236-.188-.667-.479l-.068-.03a1.519,1.519,0,0,1-.145-.067,1.646,1.646,0,0,0-1.071-.172A1.507,1.507,0,0,0,172.544,263.806Z" transform="translate(-167.738 -250.85)" fill="#2e2d76"/>
      <path id="Path_9" data-name="Path 9" d="M253.178,180.584q.11.057.564.373a1.989,1.989,0,0,1,.381.352l-.266.218a2.5,2.5,0,0,0-1.047-.1,1.679,1.679,0,0,0-.809.371,1.142,1.142,0,0,0-.442.952,2.729,2.729,0,0,0,.716,1.645,3.511,3.511,0,0,0,.643.655,2.378,2.378,0,0,0,.723.341,1.119,1.119,0,0,0,.535,0,1.537,1.537,0,0,0,.658-.318,1.43,1.43,0,0,0,.458-.708,2.876,2.876,0,0,0,.087-1.066,2.268,2.268,0,0,1,.265-.255,2.684,2.684,0,0,1,.15.261l.235.425.045.109.071.17a1.6,1.6,0,0,1-.333.616,5.015,5.015,0,0,1-.738.718,4.276,4.276,0,0,1-.735.489,2.109,2.109,0,0,1-.723.235,2.6,2.6,0,0,1-.9-.028,2.225,2.225,0,0,1-.72-.3,2.761,2.761,0,0,1-.623-.574,2.5,2.5,0,0,1-.6-1.909,2.584,2.584,0,0,1,1-1.767,7.81,7.81,0,0,1,.713-.522A5.491,5.491,0,0,1,253.178,180.584Z" transform="translate(-241.967 -174.107)" fill="#2e2d76"/>
      <path id="Path_10" data-name="Path 10" d="M316.634,122.834l-.147-.26q.059-.035.123-.068.168-.087.358-.172.456-.206.533-.246.269-.139.521-.282t.45-.25q.2-.106.268-.146l.017.042.108.192.014.027a3.1,3.1,0,0,1-.376.228q-.188.1-.21.2a1.117,1.117,0,0,0,.166.42q.055.108.093.173l.066.119.156.319.159.258.287.588.479.82a1.448,1.448,0,0,0,.475.525.836.836,0,0,0,.446.122,1.386,1.386,0,0,0,.627-.145,2.332,2.332,0,0,0,.558-.394,1.117,1.117,0,0,0,.232-.313.911.911,0,0,0,.1-.3,1.478,1.478,0,0,0-.011-.432,3.042,3.042,0,0,0-.292-.721q-.419-.812-1.032-1.784l-.105-.171a.485.485,0,0,0-.211-.227.383.383,0,0,0-.3.021l-.312.17-.049.012-.127-.262.265-.137.657-.3a6.743,6.743,0,0,0,.6-.348l.06-.023a1.153,1.153,0,0,1,.1.144.437.437,0,0,1,.033.1,1.34,1.34,0,0,1-.241.176,1.014,1.014,0,0,0-.222.179.174.174,0,0,0,.017.148q.031.061.1.17a3.23,3.23,0,0,1,.161.287c.04.079.073.14.1.184s.05.089.076.135q.135.237.27.482l.386.665a6.375,6.375,0,0,1,.427.941,1.323,1.323,0,0,1,.061.432,1.521,1.521,0,0,1-.161.553,2,2,0,0,1-.432.564,3.255,3.255,0,0,1-.748.512,2.877,2.877,0,0,1-.965.322,1.481,1.481,0,0,1-.751-.076,1.442,1.442,0,0,1-.564-.455,4.284,4.284,0,0,1-.418-.686l-.827-1.6a2.126,2.126,0,0,0-.385-.613q-.127-.066-.521.12A.946.946,0,0,1,316.634,122.834Z" transform="translate(-303.652 -117.334)" fill="#2e2d76"/>
      <path id="Path_11" data-name="Path 11" d="M426.82,88.562l-.049-.253a1.1,1.1,0,0,0,.54-.327,1,1,0,0,0,.015-.489l-.265-1.32L426.8,84.83c-.014-.082-.024-.132-.028-.149a1.577,1.577,0,0,0-.2-.584,1.007,1.007,0,0,0-.51-.045l-.17,0q-.029-.09-.044-.153l-.027-.114q.133-.044.317-.087l1.084-.22.1-.017.171-.033a1.217,1.217,0,0,1,.174.165q.2.237.547.7l.066.088.869,1.111.091.114.177.222.186.233.181.226a2.138,2.138,0,0,0,.053-.219q.066-.373.138-.69.123-.557.293-1.686.027-.181.1-.55t.083-.391a.214.214,0,0,1,.125-.061l.113-.031q.188-.057.454-.128.385-.1.613-.172t.258-.083a.666.666,0,0,1,.09-.014c.011.034.018.06.023.08l.019.112c.005.022.012.055.02.1a2.089,2.089,0,0,0-.525.289q-.133.11-.107.22l.013.055.332,1.109q.048.152.425,1.518.085.306.235.771a.793.793,0,0,1,.029.09q.024.087.066.1t.71.055c.012.039.02.068.025.087.012.051.023.1.033.155q-.1.024-.51.077a7.385,7.385,0,0,0-.76.137q-.533.127-1.026.292c-.043.015-.085.029-.126.042l-.053-.255a2.08,2.08,0,0,1,.377-.195q.17-.071.2-.153a.931.931,0,0,0-.045-.4q-.029-.121-.055-.212-.111-.382-.278-1.068l-.372-1.282q-.077-.273-.117-.376l-.413,2.321q-.015.081-.048.237-.042.2-.055.273-.121.748-.145,1.134-.007.1-.031.26l-.283.064-.333-.515q-.141-.2-.461-.6-.187-.231-.3-.376c-.033-.039-.056-.068-.071-.088l-.066-.081a.135.135,0,0,0-.02-.034l-.83-1.049-.506-.637.386,1.745.244,1.134a.621.621,0,0,0,.2.374.935.935,0,0,0,.5.1l.187,0,.064.268q-.214.047-.465.078a6.23,6.23,0,0,0-.655.127Q427.451,88.376,426.82,88.562Z" transform="translate(-406.257 -81.835)" fill="#2e2d76"/>
      <path id="Path_12" data-name="Path 12" d="M600.675,75.255l.234.019.033.064a1.356,1.356,0,0,0,.143.253q.048.015.515.052.29.023.516.038l.076,0,.456.033.851.072,1.164.093.224-.013a.419.419,0,0,0,.12-.175l.049-.092.166.01.113.013q-.017.26-.059.784l-.023.335-.019.192a.814.814,0,0,1-.029.168,1.347,1.347,0,0,1-.276.039,2.571,2.571,0,0,1-.179-.443,1.745,1.745,0,0,0-.121-.32.212.212,0,0,0-.1-.072q-.089-.026-.8-.083-.106-.009-.266-.006a1.977,1.977,0,0,0-.038.239l-.036.505-.088,1.107-.084,1.195-.043.489a1.277,1.277,0,0,0,.014.4.982.982,0,0,0,.219.067c.02,0,.112.032.275.083a1.481,1.481,0,0,1,.2.076c.005.092.007.147.006.167a.628.628,0,0,1-.019.1l-.136-.007a6.573,6.573,0,0,1-.657-.081q-.269-.05-.98-.107-.113-.009-.667-.008c-.144,0-.237,0-.28-.007,0-.038,0-.067,0-.087l0-.087,0-.03a.531.531,0,0,1,.326-.137,2.867,2.867,0,0,0,.556-.126.472.472,0,0,0,.06-.185q.062-.45.141-1.437l.094-1.425a6.088,6.088,0,0,0,.034-.714.094.094,0,0,0-.022-.053.092.092,0,0,0-.051-.025q-.116-.024-.76-.076a1.1,1.1,0,0,0-.48.03,2.237,2.237,0,0,0-.527.473c-.069.075-.119.112-.149.109a.844.844,0,0,1-.21-.165,7.394,7.394,0,0,0,.4-.953C600.617,75.4,600.653,75.3,600.675,75.255Z" transform="translate(-569.883 -75.255)" fill="#2e2d76"/>
      <path id="Path_13" data-name="Path 13" d="M689.933,89.408q.2.071.35.137a5.086,5.086,0,0,0,.652.233q.131.038.677.174.818.2,1.471.393l.659.184a5.914,5.914,0,0,1,.637.245.294.294,0,0,1,.008.215l-.218.747-.036.151q-.006.022-.023.064l-.151-.036q-.029-.009-.121-.043-.011-.082-.025-.24l-.07-.3a1.752,1.752,0,0,0-.135-.4,1.023,1.023,0,0,0-.224-.1l-.216-.083q-.329-.127-.717-.24-.443-.129-.795-.216-.038.088-.219.712l-.174.61-.133.457a1.379,1.379,0,0,0,.153.057q.651.19.934.245a.939.939,0,0,0,.362.029.388.388,0,0,0,.162-.124,5.161,5.161,0,0,0,.283-.5l.048.01.209.065q-.079.327-.128.494-.111.381-.148.488t-.055.169q-.028.1-.08.317t-.083.324l-.023.08-.258-.075q0-.062.015-.255a1.531,1.531,0,0,0-.008-.459.276.276,0,0,0-.117-.14,2.975,2.975,0,0,0-.531-.182q-.549-.16-.833-.212l-.036.123q-.126.432-.195.722l-.236.781a.2.2,0,0,0,.043.217,3.071,3.071,0,0,0,.888.342,4.291,4.291,0,0,0,.878.173.888.888,0,0,0,.5-.118,1.92,1.92,0,0,0,.609-.562q.116.022.188.043l.119.038-.062.147-.053.1-.332.647-.185.395q-.239-.058-.377-.1-.2-.059-1.075-.353-.613-.206-1.488-.461-.435-.127-1.082-.276l-.152-.044-.443-.114.073-.25a2.338,2.338,0,0,1,.287.04,1.828,1.828,0,0,0,.556.036.783.783,0,0,0,.117-.253c.012-.041.031-.111.058-.211l.036-.111.388-1.371.123-.409.151-.586.123-.409.1-.459a.693.693,0,0,0,.014-.075.186.186,0,0,0-.094-.083l-.1-.053a2.467,2.467,0,0,0-.384-.167q-.068-.024-.156-.061Z" transform="translate(-652.827 -88.538)" fill="#2e2d76"/>
      <path id="Path_14" data-name="Path 14" d="M781.724,122.416l.116-.238.281.156.1.05q.2.1.279.143c.026.015.1.06.227.136.027.018.051.033.071.044l.211.11.205.106.1.06q.25.746.384,1.257t1.034,3.636l.046-.083.2-.39q.178-.342.271-.547t.242-.48q.149-.274.252-.506.2-.454.238-.52a.545.545,0,0,0,.1-.287.671.671,0,0,0-.256-.286,1.085,1.085,0,0,1-.228-.227l.112-.193.091.038.661.343.737.385c.05.025.1.05.141.074l-.116.216a.808.808,0,0,1-.188-.027,1.588,1.588,0,0,0-.283-.067,1.171,1.171,0,0,0-.246.014.234.234,0,0,0-.1.105q-.011.02-.071.142-.03.061-.151.279-.264.48-.4.77-.043.093-.1.207l-.61,1.178q-.065.124-.092.173l-.227.406-.086.177-.109.173q-.063.143-.077.169l-.1.175-.387-.2-.166-.625-.358-1.242-.248-.874-.177-.652q-.182-.62-.344-1.1l-.267-.785-.655,1.244q-.059.114-.126.233l-.134.232-.221.443q-.141.276-.292.608a.814.814,0,0,0-.051.13.991.991,0,0,0-.016.123,2.846,2.846,0,0,0,.522.382c.017.015.041.039.073.071l-.136.275-.13-.069q-.106-.059-.639-.421-.528-.286-.71-.37l-.2-.094a.7.7,0,0,1-.1-.074c.024-.053.046-.1.067-.136s.037-.063.07-.117a1.012,1.012,0,0,1,.161.068l.125.078a.818.818,0,0,0,.351.142q.074-.013.182-.19.316-.512.38-.627l.1-.181.605-1.068.364-.675a2.419,2.419,0,0,0,.247-.559.329.329,0,0,0,0-.174.891.891,0,0,0-.158-.322A3,3,0,0,0,781.724,122.416Z" transform="translate(-738.309 -119.292)" fill="#2e2d76"/>
      <path id="Path_15" data-name="Path 15" d="M877.535,188.777q.153.152.255.275a5.053,5.053,0,0,0,.486.493q.1.091.535.451.649.538,1.155.993l.514.452a5.969,5.969,0,0,1,.468.5.293.293,0,0,1-.086.2l-.521.578-.1.12c-.01.011-.026.027-.048.048l-.12-.1q-.023-.02-.09-.092.025-.079.082-.226l.067-.3a1.742,1.742,0,0,0,.053-.42,1.01,1.01,0,0,0-.159-.184l-.159-.168q-.241-.258-.542-.528-.342-.308-.622-.54-.071.063-.506.546l-.422.474-.318.354a1.459,1.459,0,0,0,.113.117q.5.453.735.626a.939.939,0,0,0,.314.183.391.391,0,0,0,.2-.041,5.221,5.221,0,0,0,.47-.324l.039.03.16.149q-.214.26-.33.389-.265.3-.345.375c-.053.054-.094.1-.123.128q-.068.076-.21.251t-.215.256l-.056.062-.2-.18q.029-.055.125-.223a1.524,1.524,0,0,0,.192-.417.275.275,0,0,0-.044-.177,3,3,0,0,0-.4-.395q-.425-.382-.659-.552l-.086.1q-.3.334-.489.566l-.551.6a.2.2,0,0,0-.055.214,3.069,3.069,0,0,0,.652.693,4.279,4.279,0,0,0,.716.537.887.887,0,0,0,.5.11,1.921,1.921,0,0,0,.792-.242q.095.07.151.12c.021.019.051.047.09.086l-.12.105-.092.069-.58.439-.338.275q-.19-.156-.3-.252-.158-.142-.815-.784-.463-.452-1.14-1.062-.337-.3-.854-.718l-.118-.106-.35-.295.174-.194a2.358,2.358,0,0,1,.241.161,1.825,1.825,0,0,0,.485.274.786.786,0,0,0,.215-.177q.043-.048.144-.165l.081-.084.944-1.066.288-.315.39-.462.288-.315.288-.371a.665.665,0,0,0,.045-.061.185.185,0,0,0-.049-.115l-.069-.093a2.462,2.462,0,0,0-.274-.317q-.051-.051-.113-.122Z" transform="translate(-827.103 -181.796)" fill="#2e2d76"/>
      <path id="Path_16" data-name="Path 16" d="M948.308,263.643l.207-.165.185.262.066.087q.14.178.19.249.026.037.146.22.026.042.045.07t.144.19l.139.184c.016.023.038.055.065.1q-.1.78-.2,1.3t-.638,3.726l.077-.054.349-.265q.308-.232.481-.377t.425-.328q.252-.183.446-.348.378-.323.44-.366.2-.145.213-.215a.672.672,0,0,0-.108-.368,1.09,1.09,0,0,1-.108-.3l.184-.126.066.074.448.595.5.666q.051.066.095.127l-.2.145a.805.805,0,0,1-.158-.106,1.621,1.621,0,0,0-.226-.183,1.166,1.166,0,0,0-.228-.093.232.232,0,0,0-.134.053c-.013.009-.054.041-.125.1q-.053.042-.257.186-.445.319-.689.524-.079.065-.182.142l-1.059.8-.158.116-.38.268-.154.123-.173.108q-.118.1-.142.119l-.164.116-.263-.346.12-.635.214-1.275.154-.9.123-.665q.1-.638.167-1.145l.1-.823-1.128.839q-.1.077-.214.156l-.221.152-.391.3q-.246.188-.525.422a.808.808,0,0,0-.1.1.932.932,0,0,0-.068.1,2.825,2.825,0,0,0,.306.57q.013.032.035.1l-.241.189-.088-.118q-.07-.1-.394-.656-.353-.486-.481-.641t-.139-.17a.672.672,0,0,1-.06-.111q.067-.056.119-.093c.023-.016.06-.041.113-.076a1.034,1.034,0,0,1,.116.131c.009.012.035.054.079.125q.183.259.256.28t.246-.093q.506-.325.614-.4l.17-.12,1.007-.7.62-.452a2.425,2.425,0,0,0,.464-.4.328.328,0,0,0,.073-.158.887.887,0,0,0,0-.359A2.979,2.979,0,0,0,948.308,263.643Z" transform="translate(-893.178 -251.903)" fill="#2e2d76"/>
      <path id="Path_17" data-name="Path 17" d="M1016.739,383.336a2.516,2.516,0,0,1-.328.22,5.6,5.6,0,0,1-.534.286.794.794,0,0,1-.141.046l-.026-.03-.093-.256-.011-.045a1.95,1.95,0,0,0,.484-.578.9.9,0,0,0,0-.741.848.848,0,0,0-.416-.458.621.621,0,0,0-.529,0,.668.668,0,0,0-.338.385,2.161,2.161,0,0,0-.026,1,4.3,4.3,0,0,1,.026.6,1.623,1.623,0,0,1-.1.587,1.408,1.408,0,0,1-.287.468,1.5,1.5,0,0,1-.461.3,1.935,1.935,0,0,1-.693.162,1.045,1.045,0,0,1-.408-.072,2.184,2.184,0,0,1-.386-.213,1.733,1.733,0,0,1-.4-.361,2.606,2.606,0,0,1-.328-.572,3.2,3.2,0,0,1-.186-.607l-.063-.468a.752.752,0,0,1-.01-.256.143.143,0,0,1,.052-.06l.038-.017q.038-.017.466-.227.221-.106.315-.148l.131-.058.149.318q-.312.336-.37.419a1.249,1.249,0,0,0-.182.363,1.082,1.082,0,0,0-.037.385,1.262,1.262,0,0,0,.108.418,1.353,1.353,0,0,0,.261.375.825.825,0,0,0,.421.245.661.661,0,0,0,.818-.484,3.037,3.037,0,0,0,.014-.94,4.215,4.215,0,0,1,.011-1.059,1.326,1.326,0,0,1,.3-.6,1.438,1.438,0,0,1,.506-.393,1.371,1.371,0,0,1,1.107-.019,1.75,1.75,0,0,1,.9.991,3.326,3.326,0,0,1,.158.517A4.034,4.034,0,0,1,1016.739,383.336Z" transform="translate(-955.905 -362.325)" fill="#2e2d76"/>
    </g>
    <g id="Group_4" data-name="Group 4" transform="translate(109.713 122.53)">
      <path id="Path_18" data-name="Path 18" d="M142.83,846.337q-.049.067-.306.335a1.321,1.321,0,0,1-.273.216l-.117-.2a1.678,1.678,0,0,0,.173-.684,1.127,1.127,0,0,0-.163-.575.767.767,0,0,0-.585-.391,1.83,1.83,0,0,0-1.164.3,2.34,2.34,0,0,0-.5.359,1.592,1.592,0,0,0-.3.444.751.751,0,0,0-.053.355,1.032,1.032,0,0,0,.143.469.959.959,0,0,0,.422.377,1.929,1.929,0,0,0,.7.168,1.515,1.515,0,0,1,.142.2,1.844,1.844,0,0,1-.189.073l-.306.112-.077.019-.12.03a1.078,1.078,0,0,1-.374-.284,3.373,3.373,0,0,1-.4-.563,2.862,2.862,0,0,1-.248-.538,1.41,1.41,0,0,1-.081-.5,1.738,1.738,0,0,1,.111-.591,1.489,1.489,0,0,1,.276-.446,1.848,1.848,0,0,1,.445-.354,1.678,1.678,0,0,1,1.327-.2,1.734,1.734,0,0,1,1.068.847,5.223,5.223,0,0,1,.272.526A3.679,3.679,0,0,1,142.83,846.337Z" transform="translate(-139.149 -844.384)" fill="#2e2d76"/>
      <path id="Path_19" data-name="Path 19" d="M200.3,926.554a1.748,1.748,0,0,1,.548-.337,1.483,1.483,0,0,1,.476-.1,1.637,1.637,0,0,1,.52.066,1.778,1.778,0,0,1,.489.219,2.254,2.254,0,0,1,.426.369,1.989,1.989,0,0,1,.472.808,1.57,1.57,0,0,1,.018.812,1.648,1.648,0,0,1-.483.834,1.719,1.719,0,0,1-1.236.471,1.783,1.783,0,0,1-1.294-.654,2.708,2.708,0,0,1-.252-.316,1.414,1.414,0,0,1-.127-.221q-.083-.185-.091-.208a2.132,2.132,0,0,1-.062-.544,1.658,1.658,0,0,1,.083-.461A2.148,2.148,0,0,1,200,926.9,1.742,1.742,0,0,1,200.3,926.554Zm2.208.316a.738.738,0,0,0-.339-.218.825.825,0,0,0-.34-.035,1.384,1.384,0,0,0-.478.159,2.6,2.6,0,0,0-.489.365,1.911,1.911,0,0,0-.218.224l-.066.081a1.411,1.411,0,0,0-.166.224,2.765,2.765,0,0,0-.189.383,1.026,1.026,0,0,0-.037.339.728.728,0,0,0,.06.243.809.809,0,0,0,.155.25,1.038,1.038,0,0,0,.437.288.9.9,0,0,0,.574-.016,1.916,1.916,0,0,0,.684-.435q.15-.137.387-.392l.027-.042a1.018,1.018,0,0,1,.06-.089,1.1,1.1,0,0,0,.225-.692A1.011,1.011,0,0,0,202.505,926.871Z" transform="translate(-195.976 -921.066)" fill="#2e2d76"/>
      <path id="Path_20" data-name="Path 20" d="M273.728,988.785l.092-.152.177.123.062.04q.129.08.177.114l.143.1c.017.014.032.025.044.034l.134.087.13.084.063.047q.119.514.176.864t.457,2.494l.036-.052.159-.247q.141-.217.216-.349t.192-.3q.117-.173.2-.322c.109-.194.173-.3.193-.332a.366.366,0,0,0,.085-.185.453.453,0,0,0-.153-.207.735.735,0,0,1-.138-.166l.087-.122.059.031.419.272.467.3.089.059-.092.137a.544.544,0,0,1-.124-.03,1.1,1.1,0,0,0-.185-.063.787.787,0,0,0-.165-.006.157.157,0,0,0-.072.064l-.056.09q-.024.039-.119.177-.207.3-.313.489c-.023.039-.05.083-.082.131l-.483.748-.073.11-.177.256-.069.113-.084.108q-.051.091-.062.108l-.076.111-.246-.158-.071-.428-.159-.853-.11-.6-.076-.447q-.082-.426-.159-.76l-.128-.541-.517.789q-.047.072-.1.147l-.1.146-.176.282q-.112.175-.234.387a.527.527,0,0,0-.042.083.617.617,0,0,0-.019.081,1.9,1.9,0,0,0,.324.289c.011.011.025.029.044.052l-.108.175-.083-.054q-.067-.046-.4-.322-.335-.225-.451-.293l-.127-.075a.489.489,0,0,1-.063-.056q.029-.051.053-.086c.011-.015.028-.04.054-.073a.682.682,0,0,1,.1.056l.078.06a.551.551,0,0,0,.226.117q.05,0,.134-.116.244-.321.294-.394l.079-.115.473-.675.286-.428a1.619,1.619,0,0,0,.2-.357.219.219,0,0,0,.01-.117.6.6,0,0,0-.085-.225A2.027,2.027,0,0,0,273.728,988.785Z" transform="translate(-263.889 -979.737)" fill="#2e2d76"/>
      <path id="Path_21" data-name="Path 21" d="M377.295,1047.694l.055-.169.2.079.069.024q.144.049.2.07l.163.069c.02.01.037.018.051.023l.15.053.146.052.072.031q.233.473.369.8t1.015,2.324l.023-.059.1-.277q.087-.244.131-.389t.117-.34q.074-.2.122-.359.093-.32.112-.367a.368.368,0,0,0,.04-.2.451.451,0,0,0-.2-.167.733.733,0,0,1-.172-.13l.057-.138.064.017.47.168.525.19.1.037-.058.154a.549.549,0,0,1-.128,0,1.062,1.062,0,0,0-.194-.019.768.768,0,0,0-.162.032.157.157,0,0,0-.055.079c0,.009-.015.043-.034.1-.01.029-.035.1-.076.2q-.132.343-.193.548c-.013.044-.03.093-.049.146l-.3.839c-.021.059-.036.1-.046.123l-.114.29-.041.125-.057.125c-.019.067-.031.107-.036.12l-.049.125-.275-.1-.167-.4-.35-.794-.244-.559-.176-.418q-.177-.4-.328-.7l-.248-.5-.323.886q-.029.081-.063.166l-.068.167-.107.314q-.069.2-.139.43a.51.51,0,0,0-.022.091.633.633,0,0,0,0,.083,1.9,1.9,0,0,0,.382.207l.055.041-.066.195-.093-.034q-.076-.029-.463-.222-.377-.143-.506-.182l-.141-.044a.486.486,0,0,1-.074-.04c.011-.037.022-.07.032-.1s.019-.045.036-.084a.686.686,0,0,1,.113.031l.09.041a.549.549,0,0,0,.246.063q.048-.015.1-.143.164-.368.2-.451l.051-.13.306-.765.181-.481a1.622,1.622,0,0,0,.114-.394.219.219,0,0,0-.017-.116.6.6,0,0,0-.134-.2A2.018,2.018,0,0,0,377.295,1047.694Z" transform="translate(-361.687 -1035.008)" fill="#2e2d76"/>
      <path id="Path_22" data-name="Path 22" d="M491.86,1083.021q.142.03.245.061a3.365,3.365,0,0,0,.454.1c.06.01.215.028.466.057q.562.064,1.013.134l.454.065a4,4,0,0,1,.445.107.2.2,0,0,1,.024.142l-.08.516-.011.1c0,.01,0,.025-.01.045l-.1-.011-.084-.018c-.01-.036-.022-.088-.037-.157l-.073-.193a1.168,1.168,0,0,0-.124-.255.691.691,0,0,0-.157-.045l-.151-.036q-.23-.056-.5-.1-.306-.048-.548-.075-.017.062-.084.492l-.063.421-.049.315a.889.889,0,0,0,.107.024q.449.07.643.082a.632.632,0,0,0,.243-.012.263.263,0,0,0,.1-.1,3.433,3.433,0,0,0,.145-.354l.033,0,.145.025q-.025.224-.043.34c-.027.175-.046.288-.056.338s-.018.089-.022.117q-.011.068-.026.218c-.01.1-.019.175-.027.223l-.009.055-.178-.028c0-.028-.006-.085-.012-.171a1.026,1.026,0,0,0-.045-.3.185.185,0,0,0-.09-.083,2.022,2.022,0,0,0-.369-.075q-.379-.059-.573-.069l-.013.085q-.046.3-.067.5l-.089.54a.134.134,0,0,0,.047.141,2.052,2.052,0,0,0,.62.15,2.852,2.852,0,0,0,.6.039.6.6,0,0,0,.322-.122,1.289,1.289,0,0,0,.356-.427c.052,0,.1.007.129.012l.082.016-.029.1-.026.073-.165.459-.089.279c-.11-.012-.2-.023-.259-.033q-.14-.022-.746-.141-.426-.084-1.03-.178-.3-.047-.743-.09l-.105-.016-.3-.037.027-.173a1.646,1.646,0,0,1,.195,0,1.226,1.226,0,0,0,.373-.024.528.528,0,0,0,.056-.178c0-.029.011-.077.02-.146l.015-.077.139-.946.046-.282.05-.4.046-.282.026-.314a.506.506,0,0,0,0-.051.123.123,0,0,0-.07-.047l-.073-.027a1.659,1.659,0,0,0-.27-.078c-.031-.006-.068-.016-.109-.027Z" transform="translate(-469.683 -1068.321)" fill="#2e2d76"/>
      <path id="Path_23" data-name="Path 23" d="M604.325,1091.1q.037.074.155.427a1.348,1.348,0,0,1,.064.342l-.23.011a1.683,1.683,0,0,0-.525-.471,1.128,1.128,0,0,0-.585-.123.766.766,0,0,0-.618.336,1.831,1.831,0,0,0-.272,1.172,2.35,2.35,0,0,0,.085.61,1.587,1.587,0,0,0,.254.472.748.748,0,0,0,.289.212,1.034,1.034,0,0,0,.481.091.958.958,0,0,0,.53-.2,1.929,1.929,0,0,0,.473-.539,1.5,1.5,0,0,1,.245-.032,1.819,1.819,0,0,1-.023.2q-.006.041-.043.323l-.019.077-.03.12a1.074,1.074,0,0,1-.426.2,3.368,3.368,0,0,1-.684.092,2.886,2.886,0,0,1-.591-.03,1.4,1.4,0,0,1-.484-.162,1.735,1.735,0,0,1-.472-.373,1.49,1.49,0,0,1-.266-.452,1.85,1.85,0,0,1-.107-.558,1.679,1.679,0,0,1,.438-1.269,1.735,1.735,0,0,1,1.246-.552,5.265,5.265,0,0,1,.593,0A3.669,3.669,0,0,1,604.325,1091.1Z" transform="translate(-573.088 -1075.824)" fill="#2e2d76"/>
      <path id="Path_24" data-name="Path 24" d="M695.482,1070.135l.152-.039.035.033a.9.9,0,0,0,.146.13c.022,0,.135-.027.338-.078l.336-.088.048-.018.3-.078.556-.139.759-.194.14-.057a.284.284,0,0,0,.038-.137l.011-.069.107-.03.074-.016q.046.168.133.51l.058.218.03.126a.566.566,0,0,1,.018.113.911.911,0,0,1-.167.084,1.7,1.7,0,0,1-.21-.242,1.172,1.172,0,0,0-.146-.177.146.146,0,0,0-.08-.024q-.062,0-.525.121-.069.017-.17.054a1.313,1.313,0,0,0,.028.16l.087.328.184.722.206.777.079.32a.847.847,0,0,0,.095.248.645.645,0,0,0,.154-.005c.014,0,.078,0,.193-.007a1,1,0,0,1,.141.006c.023.057.037.092.04.1a.393.393,0,0,1,.009.066l-.088.025a4.332,4.332,0,0,1-.435.091q-.181.027-.646.146-.074.019-.425.14-.138.045-.179.056c-.008-.024-.014-.043-.019-.055l-.017-.056-.005-.02a.357.357,0,0,1,.177-.158,1.921,1.921,0,0,0,.326-.2.315.315,0,0,0,0-.13q-.058-.3-.222-.943l-.249-.925a4.153,4.153,0,0,0-.133-.46.065.065,0,0,0-.026-.029.061.061,0,0,0-.038,0q-.079.01-.5.117a.744.744,0,0,0-.3.123,1.506,1.506,0,0,0-.231.415c-.028.063-.051.1-.071.1a.57.57,0,0,1-.169-.059,4.989,4.989,0,0,0,.048-.692Q695.478,1070.188,695.482,1070.135Z" transform="translate(-661.217 -1055.494)" fill="#2e2d76"/>
      <path id="Path_25" data-name="Path 25" d="M790.582,1047.667l-.076-.166q.039-.035.133-.108a1.105,1.105,0,0,0,.187-.178.434.434,0,0,0-.049-.217l-.127-.271-.236-.528-.059-.123q-.191-.465-.2-.478l-.145-.3-.05-.127-.132-.258-.05-.1a.574.574,0,0,0-.05-.066.994.994,0,0,0-.332.085.79.79,0,0,1-.084.03l-.1-.2.671-.274.154-.065q.136-.062.427-.218l.206-.111c.015.028.027.052.037.072s.026.061.041.1a2.345,2.345,0,0,1-.182.157,1.7,1.7,0,0,0-.167.148.9.9,0,0,0,.066.179,1.716,1.716,0,0,0,.081.158q.172.393.268.6l.281.607.13.314.22.456.033.091a.175.175,0,0,0,.038.047,2.568,2.568,0,0,0,.273-.075l.148-.046a1,1,0,0,1,.062.111q.012.025.034.079a.335.335,0,0,0-.045.023l-.083.044a.535.535,0,0,1-.063.021q-.034.01-.321.108l-.409.182q-.122.056-.344.186Q790.626,1047.644,790.582,1047.667Z" transform="translate(-749.239 -1031.692)" fill="#2e2d76"/>
      <path id="Path_26" data-name="Path 26" d="M865.046,1000.462a1.749,1.749,0,0,1-.267-.585,1.477,1.477,0,0,1-.04-.484,1.642,1.642,0,0,1,.13-.508,1.784,1.784,0,0,1,.277-.458,2.26,2.26,0,0,1,.419-.377,1.988,1.988,0,0,1,.86-.368,1.568,1.568,0,0,1,.807.082,1.647,1.647,0,0,1,.768.583,1.719,1.719,0,0,1,.315,1.284,1.784,1.784,0,0,1-.809,1.2,2.732,2.732,0,0,1-.344.211,1.432,1.432,0,0,1-.235.1c-.129.04-.2.061-.218.065a2.136,2.136,0,0,1-.548-.006,1.655,1.655,0,0,1-.447-.139,2.155,2.155,0,0,1-.362-.259A1.734,1.734,0,0,1,865.046,1000.462Zm.586-2.152a.738.738,0,0,0-.258.31.824.824,0,0,0-.077.333,1.384,1.384,0,0,0,.1.494,2.6,2.6,0,0,0,.3.53,1.878,1.878,0,0,0,.2.244l.073.076a1.423,1.423,0,0,0,.2.192,2.824,2.824,0,0,0,.356.235,1.029,1.029,0,0,0,.332.078.734.734,0,0,0,.249-.03.807.807,0,0,0,.267-.123,1.043,1.043,0,0,0,.34-.4.9.9,0,0,0,.054-.572,1.92,1.92,0,0,0-.347-.733q-.117-.165-.341-.432l-.038-.032a.986.986,0,0,1-.081-.07,1.1,1.1,0,0,0-.659-.309A1.012,1.012,0,0,0,865.633,998.31Z" transform="translate(-820.113 -988.211)" fill="#2e2d76"/>
      <path id="Path_27" data-name="Path 27" d="M936.151,911.414l-.139-.111.143-.161.047-.057q.1-.119.135-.162l.122-.129q.024-.023.039-.04l.1-.122.1-.119.054-.057q.525-.055.879-.068t2.532-.146l-.047-.042-.226-.188q-.2-.167-.319-.257t-.279-.228q-.158-.137-.295-.239-.268-.2-.306-.232c-.083-.072-.141-.107-.173-.107a.453.453,0,0,0-.224.126.729.729,0,0,1-.182.116l-.11-.1.038-.054.321-.383.36-.426q.035-.043.069-.081l.124.108a.532.532,0,0,1-.045.119,1.126,1.126,0,0,0-.085.175.774.774,0,0,0-.026.163.156.156,0,0,0,.055.079l.083.067q.036.028.161.14.276.243.447.371c.036.028.077.06.121.1l.682.571.1.086.233.208.1.082.1.1c.056.041.089.066.1.075l.1.089-.187.224-.433.017-.866.053-.609.034-.453.021q-.433.028-.774.064l-.553.06.719.611q.066.056.134.116l.133.122.258.21q.16.133.355.279a.525.525,0,0,0,.078.052.643.643,0,0,0,.078.029,1.909,1.909,0,0,0,.327-.286l.057-.037.16.129-.064.075q-.054.06-.369.357-.264.3-.346.411c-.055.071-.085.11-.09.116a.462.462,0,0,1-.063.056c-.031-.023-.057-.045-.079-.064l-.066-.063a.682.682,0,0,1,.068-.1l.07-.07a.549.549,0,0,0,.144-.209c0-.033-.031-.083-.1-.147q-.289-.281-.355-.341l-.1-.093-.611-.552-.389-.337a1.613,1.613,0,0,0-.33-.243.22.22,0,0,0-.114-.024.6.6,0,0,0-.234.057A1.989,1.989,0,0,0,936.151,911.414Z" transform="translate(-887.007 -904.2)" fill="#2e2d76"/>
      <path id="Path_28" data-name="Path 28" d="M1012.758,843.985a1.668,1.668,0,0,1,.249.092,3.75,3.75,0,0,1,.366.178.54.54,0,0,1,.08.058l-.006.026-.1.151-.02.024a1.314,1.314,0,0,0-.5-.036.606.606,0,0,0-.4.29.568.568,0,0,0-.085.406.416.416,0,0,0,.206.289.447.447,0,0,0,.342.032,1.446,1.446,0,0,0,.551-.377,2.884,2.884,0,0,1,.315-.249,1.093,1.093,0,0,1,.358-.177.947.947,0,0,1,.367-.028,1.007,1.007,0,0,1,.343.134,1.3,1.3,0,0,1,.361.313.7.7,0,0,1,.122.25,1.485,1.485,0,0,1,.036.294,1.167,1.167,0,0,1-.038.361,1.764,1.764,0,0,1-.182.4,2.125,2.125,0,0,1-.257.34l-.229.218a.5.5,0,0,1-.135.106.1.1,0,0,1-.053,0l-.024-.014-.306-.164-.2-.113-.083-.048.114-.206q.305.037.374.036a.837.837,0,0,0,.268-.044.725.725,0,0,0,.224-.132.841.841,0,0,0,.185-.223.908.908,0,0,0,.1-.289.553.553,0,0,0-.032-.325.443.443,0,0,0-.585-.254,2.042,2.042,0,0,0-.516.362,2.832,2.832,0,0,1-.58.41.892.892,0,0,1-.442.071.964.964,0,0,1-.413-.12.92.92,0,0,1-.446-.594,1.173,1.173,0,0,1,.186-.878,2.2,2.2,0,0,1,.218-.289A2.724,2.724,0,0,1,1012.758,843.985Z" transform="translate(-958.364 -843.985)" fill="#2e2d76"/>
    </g>
  </g>
</svg>
