<svg xmlns="http://www.w3.org/2000/svg" width="17.473" height="13.977" viewBox="0 0 17.473 13.977">
  <g id="Group_4613" data-name="Group 4613" transform="translate(7904.987 16452)">
    <path id="Path_36" data-name="Path 36" d="M19.181,8H2.291A.291.291,0,0,0,2,8.291V19.357a.291.291,0,0,0,.291.291H12.775v2.038a.288.288,0,0,0,.446.242l1.593-1.057L16.4,21.929a.291.291,0,0,0,.451-.242V19.648h2.33a.291.291,0,0,0,.291-.291V8.291A.291.291,0,0,0,19.181,8ZM14.813,18.775a2.038,2.038,0,1,1,2.038-2.038A2.038,2.038,0,0,1,14.813,18.775Zm4.077.291H16.852v-.582a.256.256,0,0,0-.017-.082,2.621,2.621,0,1,0-4.042,0,.256.256,0,0,0-.017.082v.582H2.582V8.582H18.89Z" transform="translate(-7906.987 -16460)"/>
    <path id="Path_37" data-name="Path 37" d="M9.165,16.33H20.813a1.165,1.165,0,1,0,0-2.33H9.165a1.165,1.165,0,1,0,0,2.33Z" transform="translate(-7911.24 -16464.252)"/>
    <path id="Path_38" data-name="Path 38" d="M28.077,27H24.291a.291.291,0,0,0,0,.582h3.786a.291.291,0,1,0,0-.582Z" transform="translate(-7922.581 -16473.467)"/>
    <path id="Path_39" data-name="Path 39" d="M19.824,34H14.291a.291.291,0,1,0,0,.582h5.533a.291.291,0,1,0,0-.582Z" transform="translate(-7915.493 -16478.428)"/>
    <ellipse id="Ellipse_12" data-name="Ellipse 12" cx="1.101" cy="1.321" rx="1.101" ry="1.321" transform="translate(-7893.168 -16444.57)"/>
  </g>
</svg>
