<svg xmlns="http://www.w3.org/2000/svg" width="20.119" height="20.119" viewBox="0 0 20.119 20.119">
  <g id="Group_4616" data-name="Group 4616" transform="translate(7907.159 16228.56)">
    <path id="Path_1374" data-name="Path 1374" d="M18.578,16.039A2.539,2.539,0,1,1,16.039,13.5,2.539,2.539,0,0,1,18.578,16.039Z" transform="translate(-7913.139 -16234.539)" fill="none" stroke="#000" stroke-linecap="round" stroke-linejoin="round" stroke-width="1.5"/>
    <path id="Path_1375" data-name="Path 1375" d="M17.072,13.348a1.4,1.4,0,0,0,.279,1.54l.051.051a1.694,1.694,0,1,1-2.4,2.4l-.051-.051a1.408,1.408,0,0,0-2.387,1v.144a1.693,1.693,0,0,1-3.385,0V18.35a1.4,1.4,0,0,0-.914-1.278,1.4,1.4,0,0,0-1.54.279l-.051.051a1.694,1.694,0,1,1-2.4-2.4l.051-.051a1.408,1.408,0,0,0-1-2.387H3.193a1.693,1.693,0,1,1,0-3.385h.076A1.4,1.4,0,0,0,4.547,8.27a1.4,1.4,0,0,0-.279-1.54l-.051-.051a1.694,1.694,0,1,1,2.4-2.4l.051.051a1.4,1.4,0,0,0,1.54.279H8.27a1.4,1.4,0,0,0,.846-1.278V3.193a1.693,1.693,0,0,1,3.385,0v.076a1.408,1.408,0,0,0,2.387,1l.051-.051a1.694,1.694,0,1,1,2.4,2.4l-.051.051A1.4,1.4,0,0,0,17,8.2V8.27a1.4,1.4,0,0,0,1.278.846h.144a1.693,1.693,0,0,1,0,3.385H18.35a1.4,1.4,0,0,0-1.278.846Z" transform="translate(-7907.909 -16229.31)" fill="none" stroke="#000" stroke-linecap="round" stroke-linejoin="round" stroke-width="1.5"/>
  </g>
</svg>
