<svg xmlns="http://www.w3.org/2000/svg" width="11.689" height="13.359" viewBox="0 0 11.689 13.359">
  <path id="Icon_metro-attachment" data-name="Icon metro-attachment" d="M11.8,6.195l-.847-.847L6.719,9.584a1.8,1.8,0,0,0,2.542,2.542l5.085-5.084a3,3,0,0,0-4.237-4.236L4.77,8.144l-.011.011a4.178,4.178,0,0,0,5.91,5.909l.011-.011h0l3.644-3.644-.848-.847L9.832,13.205l-.011.011A2.98,2.98,0,0,1,5.606,9l.012-.011h0l5.339-5.338A1.8,1.8,0,1,1,13.5,6.195L8.414,11.279a.6.6,0,0,1-.848-.847L11.8,6.195Z" transform="translate(-3.535 -1.928)" fill="#b7b7b7"/>
</svg>
