<svg xmlns="http://www.w3.org/2000/svg" width="10.624" height="10.624" viewBox="0 0 10.624 10.624">
  <path id="Icon_ionic-ios-checkmark-circle" data-name="Icon ionic-ios-checkmark-circle" d="M8.687,3.375A5.312,5.312,0,1,0,14,8.687,5.311,5.311,0,0,0,8.687,3.375Zm2.72,3.844-3.415,3.43h0a.461.461,0,0,1-.3.14.447.447,0,0,1-.3-.146l-1.43-1.43a.1.1,0,0,1,0-.146l.455-.455a.1.1,0,0,1,.143,0L7.7,9.747l3.116-3.139a.1.1,0,0,1,.072-.031h0a.093.093,0,0,1,.072.031l.447.462A.1.1,0,0,1,11.407,7.219Z" transform="translate(-3.375 -3.375)" fill="#013457"/>
</svg>
