<svg xmlns="http://www.w3.org/2000/svg" width="116.473" height="126.122" viewBox="0 0 116.473 126.122">
  <g id="Group_4518" data-name="Group 4518" transform="translate(-107.784 -75.255)">
    <g id="Group_2" data-name="Group 2" transform="translate(127.266 110.423)">
      <path id="Path_1" data-name="Path 1" d="M350.346,437.05c2.443-1.1,5.186-1.014,7.752-1.643-.119-.011-.239-.017-.356-.031a24.191,24.191,0,0,1-8.367-3.085c-1.142-.593-2.221-1.153-3.321-1.618a9.277,9.277,0,0,0-3.537-.867,4.149,4.149,0,0,0-1.222.172c-1.963.607-3.111,2.875-3.53,4.8-1.237,5.67,1.382,11.543,3.915,17.223.587,1.315,1.193,2.675,1.733,4,.893,2.186,1.788,4.355,2.665,6.457a21.857,21.857,0,0,1,1.734-1.831,21.285,21.285,0,0,1,2.134-1.761c-1.344-2.52-2.574-5.127-2.908-5.727-1.9-3.42-2.861-7.565-1.274-11.308A9.156,9.156,0,0,1,350.346,437.05Z" transform="translate(-329.891 -423.229)" fill="#b3b3b3"/>
      <g id="Group_1" data-name="Group 1" transform="translate(35.511 14.483)">
        <path id="Path_2" data-name="Path 2" d="M717.17,497.809v5.406a.8.8,0,0,0,.865.865h6.271v22.6c2.446-.3,4.921-.79,7.351-1.29V504.08h6.271a.772.772,0,0,0,.865-.865v-5.406a.772.772,0,0,0-.865-.865H718.035A.8.8,0,0,0,717.17,497.809Z" transform="translate(-700.413 -496.944)" fill="#013457"/>
        <path id="Path_3" data-name="Path 3" d="M582.2,520.81v-23a.772.772,0,0,0-.865-.865h-5.622a.8.8,0,0,0-.865.865v17.323a13.024,13.024,0,0,1,3.852,2A19.013,19.013,0,0,1,582.2,520.81Z" transform="translate(-574.848 -496.944)" fill="#013457"/>
        <path id="Path_4" data-name="Path 4" d="M593.315,771.464a25.392,25.392,0,0,1-13.04-3.319,23.214,23.214,0,0,1-5.428-4.841v11.019a.771.771,0,0,0,.865.865h19.353a.751.751,0,0,0,.865-.865v-2.969C595.053,771.423,594.174,771.464,593.315,771.464Z" transform="translate(-574.848 -731.942)" fill="#013457"/>
        <path id="Path_5" data-name="Path 5" d="M777.777,817.774v3.278a.771.771,0,0,0,.864.865h5.622a.751.751,0,0,0,.865-.865v-4.783A66.5,66.5,0,0,1,777.777,817.774Z" transform="translate(-753.884 -778.671)" fill="#013457"/>
      </g>
      <path id="Path_6" data-name="Path 6" d="M278.963,376.291a11.823,11.823,0,0,1,10.9-1.7c3.983,1.407,7.021,4.873,11.123,5.9,4.442,1.111,8.992-.866,13.3-2.392,3.939-1.394,8.617-2.339,12.191-.433a.155.155,0,0,1-.115.286c-3.969-.953-8.262.594-12.034,2.331-4.122,1.9-8.445,4.1-12.968,3.577-3.994-.463-7.379-2.979-11.072-4.541a9.37,9.37,0,0,0-6.3-.772c-2.771.856-4.453,3.678-5.06,6.462-1.708,7.828,2.9,15.533,5.763,22.548.954,2.335,1.928,4.694,2.9,7.009q.439,1.059.882,2.122l.475,1.14c-.14-.337,1.281-2.036,1.532-2.369a19.651,19.651,0,0,1,2.231-2.489,18.064,18.064,0,0,1,5.523-3.586c4.159-1.694,9.295-1.7,12.97,1.083,2.017,1.53,3.381,3.812,5.021,5.743a12.42,12.42,0,0,0,6.915,4.008c7.795,1.735,16.006-1.069,23.645-2.275a41.4,41.4,0,0,1,6.456-.565c.7,0,1.4.025,2.066.073l.615.047.069.006,1.154.144c.052.006.1.014.144.022l1.217.2,1.051.22c.624.141,1.254.3,1.9.479a.244.244,0,0,1-.06.48,47.537,47.537,0,0,0-13.877,2.336c-5.705,1.785-11.427,3.551-17.487,4.1a24.279,24.279,0,0,1-14.644-2.86c-2.334-1.4-3.831-3.237-5.609-5.2-2.337-2.578-5.137-3.967-8.578-2.754a9.7,9.7,0,0,0-5.569,4.139c-1.255,2.274-1.467,4.986-1.727,7.51-.2,1.943.328,4.59-1.563,5.856a3.31,3.31,0,0,1-1.913.539,3.247,3.247,0,0,1-1.376-.337c-2.83-1.423-3.606-6.108-4.631-8.749-1.613-4.743-3.652-9.374-5.427-14.062q-.666-1.769-1.326-3.541t-1.3-3.546a47.65,47.65,0,0,1-2.922-10.087C272.708,386.622,273.943,379.953,278.963,376.291Z" transform="translate(-273.248 -373.943)" fill="#89dfed"/>
    </g>
    <g id="Group_3" data-name="Group 3" transform="translate(107.784 75.255)">
      <path id="Path_7" data-name="Path 7" d="M115.591,373.59a4.971,4.971,0,0,1,.173-.621q.13-.392.163-.457a.617.617,0,0,0,.088-.377,1.243,1.243,0,0,0-.239-.169l-.834-.4-.821-.462-.537-.27-.631-.325-.679-.325-1.43-.751-.65-.335-.09-.046a3.919,3.919,0,0,0-.791-.288q-.089.008-.358.285l-.221.2a1.907,1.907,0,0,0-.237.245.914.914,0,0,1-.295.249q-.174-.072-.265-.117-.052-.026-.152-.084a.279.279,0,0,1,.029-.139q.078-.155.617-1.1l.458-.928.357-.678q.224-.446.522-1.171.087-.215.1-.248a.18.18,0,0,1,.119-.11.513.513,0,0,1,.281.077.354.354,0,0,1,.187.183.656.656,0,0,1-.065.324l-.215.9c0,.026,0,.071,0,.136a.728.728,0,0,0,.058.078l.178.1.4.225.116.058.071.036q.032.016.349.194c.054.031.11.061.166.089s.188.089.356.163q.4.176.689.322.336.169.76.407.158.088.417.218l3.053,1.568a.389.389,0,0,0,.285.062l.334-.6.185-.384.211-.4a5.058,5.058,0,0,0,.584-1.755,1.57,1.57,0,0,0-.068-.763,2.084,2.084,0,0,0-.238-.569,4.369,4.369,0,0,0-.589-.689l.1-.207a3.037,3.037,0,0,1,.2-.336l.181.091q.464.234,1.565.933a2.943,2.943,0,0,1,.522.376,1.718,1.718,0,0,1-.069.2l-.12.239-.163.339q-.029.058-.438.743-.072.126-.666,1.212t-1.128,2.145l-.624,1.338q-.364.772-.647,1.464l-.049.1c-.013.026-.036.066-.068.119a.762.762,0,0,1-.129-.049A1.384,1.384,0,0,1,115.591,373.59Z" transform="translate(-107.784 -330.519)" fill="#013457"/>
      <path id="Path_8" data-name="Path 8" d="M173.433,271.5a5,5,0,0,1-1.192-1.395,4.226,4.226,0,0,1-.491-1.3,4.676,4.676,0,0,1-.043-1.495,5.088,5.088,0,0,1,.4-1.475,6.4,6.4,0,0,1,.852-1.364,5.674,5.674,0,0,1,2.069-1.688,4.484,4.484,0,0,1,2.279-.41,4.7,4.7,0,0,1,2.567.993,4.906,4.906,0,0,1,1.875,3.276,5.09,5.09,0,0,1-1.271,3.937,7.847,7.847,0,0,1-.779.849,4.053,4.053,0,0,1-.566.454q-.484.317-.547.35a6.1,6.1,0,0,1-1.507.416,4.737,4.737,0,0,1-1.336-.03,6.16,6.16,0,0,1-1.2-.427A4.975,4.975,0,0,1,173.433,271.5Zm-.085-6.366a2.1,2.1,0,0,0-.465,1.053,2.346,2.346,0,0,0,.051.974,3.953,3.953,0,0,0,.661,1.276,7.437,7.437,0,0,0,1.246,1.216,5.452,5.452,0,0,0,.727.515q.077.043.259.151a3.978,3.978,0,0,0,.705.369,7.881,7.881,0,0,0,1.163.364,2.923,2.923,0,0,0,.972-.047,2.083,2.083,0,0,0,.661-.277,2.313,2.313,0,0,0,.635-.547,2.971,2.971,0,0,0,.618-1.36,2.58,2.58,0,0,0-.3-1.613,5.472,5.472,0,0,0-1.529-1.737q-.452-.361-1.277-.917l-.13-.057a2.93,2.93,0,0,1-.277-.128,3.151,3.151,0,0,0-2.051-.329A2.885,2.885,0,0,0,173.347,265.132Z" transform="translate(-164.145 -240.326)" fill="#013457"/>
      <path id="Path_9" data-name="Path 9" d="M255.39,180.584q.21.108,1.08.715a3.808,3.808,0,0,1,.729.674l-.509.417a4.8,4.8,0,0,0-2-.188,3.214,3.214,0,0,0-1.549.711,2.187,2.187,0,0,0-.846,1.822,5.224,5.224,0,0,0,1.37,3.15,6.723,6.723,0,0,0,1.231,1.255,4.553,4.553,0,0,0,1.384.653,2.143,2.143,0,0,0,1.023-.006,2.943,2.943,0,0,0,1.259-.608,2.738,2.738,0,0,0,.877-1.355,5.507,5.507,0,0,0,.167-2.041,4.344,4.344,0,0,1,.507-.489,5.152,5.152,0,0,1,.288.5q.056.1.451.814l.087.209.136.326a3.07,3.07,0,0,1-.637,1.18,9.6,9.6,0,0,1-1.413,1.375,8.191,8.191,0,0,1-1.407.936,4.037,4.037,0,0,1-1.384.45,4.969,4.969,0,0,1-1.717-.054,4.26,4.26,0,0,1-1.378-.583,5.285,5.285,0,0,1-1.193-1.1,4.79,4.79,0,0,1-1.153-3.655,4.947,4.947,0,0,1,1.92-3.383,14.952,14.952,0,0,1,1.365-1A10.512,10.512,0,0,1,255.39,180.584Z" transform="translate(-233.926 -168.182)" fill="#013457"/>
      <path id="Path_10" data-name="Path 10" d="M316.768,125.342l-.281-.5q.113-.066.235-.129.322-.166.686-.33.873-.394,1.021-.47.515-.267,1-.541t.862-.478q.38-.2.512-.279l.033.079.206.368.026.051a5.93,5.93,0,0,1-.719.436q-.36.186-.4.387a2.137,2.137,0,0,0,.318.8q.106.206.179.331l.126.228.3.611.3.494.549,1.125.917,1.57a2.773,2.773,0,0,0,.909,1,1.6,1.6,0,0,0,.854.234,2.652,2.652,0,0,0,1.2-.278,4.464,4.464,0,0,0,1.068-.755,2.139,2.139,0,0,0,.443-.6,1.745,1.745,0,0,0,.2-.57,2.831,2.831,0,0,0-.02-.828,5.824,5.824,0,0,0-.558-1.381q-.8-1.555-1.976-3.416l-.2-.328a.928.928,0,0,0-.4-.435.733.733,0,0,0-.566.04l-.6.325-.094.024-.243-.5.508-.262,1.258-.576a12.922,12.922,0,0,0,1.146-.665l.116-.044a2.2,2.2,0,0,1,.191.276.836.836,0,0,1,.064.187,2.569,2.569,0,0,1-.461.336,1.943,1.943,0,0,0-.426.342.333.333,0,0,0,.033.284q.06.116.192.325a6.19,6.19,0,0,1,.308.549c.078.15.139.268.186.352s.1.171.146.259q.258.453.517.922l.739,1.273a12.213,12.213,0,0,1,.817,1.8,2.535,2.535,0,0,1,.118.827,2.913,2.913,0,0,1-.308,1.059,3.833,3.833,0,0,1-.827,1.079,6.234,6.234,0,0,1-1.432.98,5.508,5.508,0,0,1-1.847.616,2.835,2.835,0,0,1-1.438-.145,2.76,2.76,0,0,1-1.081-.871,8.2,8.2,0,0,1-.8-1.313l-1.583-3.066a4.073,4.073,0,0,0-.737-1.174q-.244-.126-1,.23A1.811,1.811,0,0,1,316.768,125.342Z" transform="translate(-291.914 -114.812)" fill="#013457"/>
      <path id="Path_11" data-name="Path 11" d="M427.739,94.32l-.093-.484a2.115,2.115,0,0,0,1.033-.626,1.909,1.909,0,0,0,.029-.937l-.507-2.526-.5-2.572c-.028-.157-.045-.252-.053-.285a3.02,3.02,0,0,0-.39-1.119,1.929,1.929,0,0,0-.976-.086q-.207,0-.326,0-.056-.173-.085-.292l-.052-.218q.255-.083.606-.167l2.075-.421q.072-.01.2-.033l.327-.063a2.334,2.334,0,0,1,.332.315q.381.453,1.046,1.343l.126.169,1.663,2.127.174.217.34.424.357.446.347.433a4.094,4.094,0,0,0,.1-.418q.127-.715.265-1.32.236-1.067.56-3.228.051-.347.191-1.053t.16-.748a.41.41,0,0,1,.24-.117c.047-.011.119-.031.216-.059q.36-.108.87-.245.736-.183,1.173-.329t.493-.159a1.276,1.276,0,0,1,.172-.026c.02.065.035.116.044.153l.036.215c.01.042.023.106.039.191a4,4,0,0,0-1.006.553q-.255.21-.2.421l.025.106.635,2.124q.092.291.815,2.907.162.586.45,1.477a1.519,1.519,0,0,1,.056.172q.047.167.126.2t1.36.106c.023.074.039.13.047.167.024.1.045.2.064.3q-.19.046-.976.148a14.14,14.14,0,0,0-1.454.262q-1.02.243-1.964.558c-.082.03-.163.056-.241.08l-.1-.489a3.982,3.982,0,0,1,.721-.373q.325-.137.384-.293a1.784,1.784,0,0,0-.087-.768q-.056-.232-.1-.406-.212-.73-.533-2.044l-.713-2.455q-.147-.523-.224-.72l-.791,4.443q-.03.156-.092.453-.08.384-.105.523-.231,1.432-.277,2.171-.014.189-.06.5l-.542.122-.637-.986q-.27-.382-.883-1.143-.359-.442-.566-.72-.094-.111-.137-.168l-.127-.156a.259.259,0,0,0-.038-.065L429.2,87.82l-.968-1.219.739,3.341.467,2.172a1.188,1.188,0,0,0,.383.716,1.79,1.79,0,0,0,.955.184l.358,0,.123.514q-.41.091-.89.149a11.918,11.918,0,0,0-1.254.244Q428.948,93.964,427.739,94.32Z" transform="translate(-388.369 -81.44)" fill="#013457"/>
      <path id="Path_12" data-name="Path 12" d="M601.142,75.255l.447.036c.029.056.05.1.063.122a2.6,2.6,0,0,0,.273.485q.092.029.986.1.555.045.989.073l.146,0,.873.063,1.629.137,2.228.178.43-.025a.8.8,0,0,0,.23-.334l.094-.176.318.018c.048,0,.119.012.216.024q-.033.5-.112,1.5l-.044.642-.036.367a1.552,1.552,0,0,1-.055.322,2.577,2.577,0,0,1-.528.074,4.92,4.92,0,0,1-.343-.847,3.347,3.347,0,0,0-.231-.614.406.406,0,0,0-.193-.139q-.171-.05-1.529-.158-.2-.016-.508-.012a3.818,3.818,0,0,0-.073.458l-.07.967-.169,2.12-.16,2.288-.082.937a2.443,2.443,0,0,0,.027.757,1.879,1.879,0,0,0,.42.128c.038.008.214.06.527.158a2.828,2.828,0,0,1,.375.146c.011.175.014.282.011.32a1.2,1.2,0,0,1-.036.186c-.106,0-.193-.008-.26-.013a12.583,12.583,0,0,1-1.258-.155q-.514-.1-1.877-.2-.217-.017-1.276-.015c-.275,0-.454-.007-.536-.014,0-.072,0-.128,0-.167l.006-.166,0-.058a1.016,1.016,0,0,1,.623-.262,5.491,5.491,0,0,0,1.064-.242.907.907,0,0,0,.115-.354q.119-.861.27-2.751l.181-2.728a11.631,11.631,0,0,0,.065-1.366.179.179,0,0,0-.043-.1.177.177,0,0,0-.1-.048q-.221-.046-1.454-.145a2.107,2.107,0,0,0-.919.058,4.281,4.281,0,0,0-1.008.906c-.133.144-.227.214-.286.21a1.614,1.614,0,0,1-.4-.315,14.152,14.152,0,0,0,.769-1.825Q601.081,75.4,601.142,75.255Z" transform="translate(-542.189 -75.255)" fill="#013457"/>
      <path id="Path_13" data-name="Path 13" d="M691.205,89.408q.39.136.669.263a9.735,9.735,0,0,0,1.248.446q.251.073,1.3.333,1.567.389,2.817.753l1.261.352a11.331,11.331,0,0,1,1.22.468.562.562,0,0,1,.016.412l-.417,1.43-.069.289c-.008.028-.023.069-.043.123l-.289-.069q-.056-.016-.232-.083-.022-.157-.047-.459l-.134-.574a3.354,3.354,0,0,0-.258-.769,1.953,1.953,0,0,0-.429-.185c-.045-.018-.182-.071-.414-.158q-.63-.244-1.372-.46-.848-.247-1.522-.414-.072.168-.42,1.362l-.333,1.169-.255.875a2.647,2.647,0,0,0,.293.108q1.246.363,1.789.468a1.8,1.8,0,0,0,.694.055.743.743,0,0,0,.311-.237,9.9,9.9,0,0,0,.541-.95l.092.019.4.124q-.152.626-.245.945-.212.729-.283.935t-.106.324q-.054.187-.154.606t-.158.621l-.045.153-.493-.144q0-.119.029-.489a2.928,2.928,0,0,0-.016-.879.527.527,0,0,0-.224-.268,5.7,5.7,0,0,0-1.016-.349q-1.051-.306-1.6-.405l-.069.236q-.241.827-.373,1.383l-.451,1.5a.384.384,0,0,0,.082.416,5.88,5.88,0,0,0,1.7.654,8.215,8.215,0,0,0,1.681.332,1.7,1.7,0,0,0,.955-.227,3.677,3.677,0,0,0,1.165-1.077q.221.042.36.082c.051.015.127.039.227.074l-.119.282-.1.2-.635,1.239-.354.756q-.458-.111-.722-.188-.39-.114-2.058-.675-1.174-.395-2.85-.883-.834-.243-2.071-.528l-.292-.085-.849-.217.14-.479a4.48,4.48,0,0,1,.55.077,3.5,3.5,0,0,0,1.065.069,1.5,1.5,0,0,0,.224-.485c.023-.079.06-.213.111-.4l.07-.213.742-2.624.236-.783.289-1.122.236-.783.188-.879a1.313,1.313,0,0,0,.027-.143.356.356,0,0,0-.18-.158c-.048-.024-.114-.058-.2-.1a4.727,4.727,0,0,0-.735-.32q-.13-.046-.3-.117Z" transform="translate(-620.162 -87.742)" fill="#013457"/>
      <path id="Path_14" data-name="Path 14" d="M783.644,122.634l.221-.456.537.3.186.1q.39.193.535.274c.051.028.2.115.435.26.052.035.1.062.135.083s.173.091.4.21.363.186.393.2q.069.039.192.116.479,1.428.736,2.407t1.98,6.962l.088-.158.384-.747q.341-.654.519-1.048t.463-.918q.285-.524.483-.969.386-.87.456-1a1.044,1.044,0,0,0,.19-.549,1.286,1.286,0,0,0-.49-.547,2.072,2.072,0,0,1-.437-.434l.214-.369.175.073,1.266.657,1.41.737c.1.048.185.095.269.142l-.223.414a1.546,1.546,0,0,1-.361-.052,3.043,3.043,0,0,0-.541-.128,2.241,2.241,0,0,0-.471.027.448.448,0,0,0-.187.2q-.021.038-.135.272-.057.117-.29.534-.5.919-.757,1.475-.083.178-.2.4l-1.168,2.256q-.124.237-.177.332l-.434.777-.164.339-.209.33q-.12.273-.148.324l-.187.335-.74-.38-.318-1.2L787,131.838l-.475-1.673-.338-1.249q-.348-1.188-.659-2.115l-.511-1.5-1.254,2.382q-.114.218-.241.446l-.257.445-.424.849q-.27.529-.558,1.163a1.557,1.557,0,0,0-.1.248,1.867,1.867,0,0,0-.031.235,5.448,5.448,0,0,0,1,.732c.033.03.079.075.139.136l-.26.526-.25-.131q-.2-.113-1.223-.807-1.011-.547-1.36-.709t-.38-.179a1.336,1.336,0,0,1-.194-.142c.045-.1.088-.188.128-.26.026-.046.07-.121.133-.224a1.935,1.935,0,0,1,.308.131q.038.021.239.15a1.567,1.567,0,0,0,.673.272q.142-.024.348-.365.605-.98.728-1.2l.194-.347,1.158-2.046.7-1.293a4.629,4.629,0,0,0,.473-1.07.63.63,0,0,0,0-.334,1.707,1.707,0,0,0-.3-.616A5.748,5.748,0,0,0,783.644,122.634Z" transform="translate(-700.521 -116.653)" fill="#013457"/>
      <path id="Path_15" data-name="Path 15" d="M880.55,188.777q.292.292.489.527a9.687,9.687,0,0,0,.931.945q.193.174,1.024.863,1.242,1.03,2.211,1.9l.983.865a11.421,11.421,0,0,1,.9.952.561.561,0,0,1-.165.378l-1,1.108-.188.23c-.019.022-.05.052-.092.092l-.23-.188q-.043-.039-.173-.175.048-.151.156-.433l.129-.575a3.327,3.327,0,0,0,.1-.8,1.931,1.931,0,0,0-.305-.353c-.033-.036-.134-.143-.3-.322q-.461-.493-1.037-1.011-.656-.59-1.192-1.033-.137.12-.969,1.045l-.808.908-.609.677a2.778,2.778,0,0,0,.217.225q.965.868,1.408,1.2a1.8,1.8,0,0,0,.6.351.749.749,0,0,0,.383-.079,10.011,10.011,0,0,0,.9-.621l.075.058.307.286q-.409.5-.632.745-.508.565-.661.719c-.1.1-.18.184-.236.245q-.13.145-.4.48t-.412.491l-.107.118-.382-.344q.056-.105.239-.427a2.917,2.917,0,0,0,.367-.8.527.527,0,0,0-.085-.339,5.752,5.752,0,0,0-.764-.755q-.814-.732-1.262-1.057l-.165.183q-.576.64-.937,1.084l-1.056,1.152a.385.385,0,0,0-.106.41,5.876,5.876,0,0,0,1.248,1.327,8.194,8.194,0,0,0,1.371,1.029,1.7,1.7,0,0,0,.959.211,3.679,3.679,0,0,0,1.517-.464q.181.134.289.231c.039.036.1.09.172.165l-.23.2-.177.133-1.11.84-.647.527q-.364-.3-.568-.483-.3-.271-1.561-1.5-.886-.865-2.183-2.033-.646-.581-1.636-1.375l-.226-.2-.671-.564.334-.371a4.521,4.521,0,0,1,.462.309,3.494,3.494,0,0,0,.929.525,1.507,1.507,0,0,0,.412-.339q.083-.091.275-.317l.155-.162,1.808-2.042.552-.6.747-.885.552-.6.551-.71a1.3,1.3,0,0,0,.086-.117.353.353,0,0,0-.094-.221c-.033-.043-.077-.1-.132-.178a4.713,4.713,0,0,0-.524-.607q-.1-.1-.217-.234Z" transform="translate(-783.993 -175.411)" fill="#013457"/>
      <path id="Path_16" data-name="Path 16" d="M951.66,263.794l.4-.316.355.5.127.167q.268.342.364.478.05.071.28.422.049.081.086.134t.275.364q.237.311.266.352c.031.043.072.106.124.187q-.184,1.494-.376,2.489t-1.221,7.134l.148-.1.669-.508q.59-.443.921-.721t.814-.628q.483-.35.854-.665.724-.618.842-.7.38-.277.408-.412a1.289,1.289,0,0,0-.206-.705,2.084,2.084,0,0,1-.206-.58l.353-.24.126.141.858,1.139.954,1.275q.1.126.181.244l-.379.277a1.547,1.547,0,0,1-.3-.2,3.1,3.1,0,0,0-.433-.349,2.234,2.234,0,0,0-.437-.179.445.445,0,0,0-.256.1q-.036.025-.24.187-.1.081-.492.357-.853.611-1.32,1-.151.125-.348.272l-2.028,1.53c-.143.107-.244.181-.3.223l-.727.513-.295.235-.332.208q-.225.2-.272.228l-.313.221-.5-.663.23-1.216.409-2.442L951,271.83l.235-1.273q.2-1.222.32-2.192l.188-1.576-2.16,1.606q-.2.148-.409.3l-.424.29-.749.582q-.472.36-1.006.808a1.545,1.545,0,0,0-.195.182,1.8,1.8,0,0,0-.13.2,5.411,5.411,0,0,0,.586,1.092q.025.061.067.183l-.462.362-.169-.226q-.133-.189-.755-1.256-.675-.931-.92-1.228t-.266-.326a1.3,1.3,0,0,1-.114-.212q.128-.108.228-.178c.044-.031.116-.079.217-.145a1.984,1.984,0,0,1,.222.251c.017.023.067.1.151.239q.351.5.489.536t.471-.178q.969-.622,1.175-.768l.325-.229,1.928-1.345,1.187-.865a4.641,4.641,0,0,0,.889-.761.629.629,0,0,0,.14-.3,1.7,1.7,0,0,0-.007-.686A5.7,5.7,0,0,0,951.66,263.794Z" transform="translate(-846.108 -241.316)" fill="#013457"/>
      <path id="Path_17" data-name="Path 17" d="M1021.55,385.349a4.813,4.813,0,0,1-.629.421,10.7,10.7,0,0,1-1.023.548,1.519,1.519,0,0,1-.27.088l-.05-.058-.178-.491-.022-.086a3.733,3.733,0,0,0,.927-1.106,1.729,1.729,0,0,0,0-1.418,1.623,1.623,0,0,0-.8-.877,1.189,1.189,0,0,0-1.012-.007,1.279,1.279,0,0,0-.648.737,4.136,4.136,0,0,0-.049,1.905,8.231,8.231,0,0,1,.05,1.145,3.108,3.108,0,0,1-.19,1.124,2.7,2.7,0,0,1-.549.9,2.868,2.868,0,0,1-.884.569,3.7,3.7,0,0,1-1.327.31,2,2,0,0,1-.781-.137,4.185,4.185,0,0,1-.739-.409,3.317,3.317,0,0,1-.769-.692,4.992,4.992,0,0,1-.627-1.1,6.131,6.131,0,0,1-.357-1.163l-.12-.9a1.439,1.439,0,0,1-.019-.49.274.274,0,0,1,.1-.115l.073-.032q.072-.032.892-.434.424-.2.6-.283l.251-.111.285.609q-.6.643-.708.8a2.4,2.4,0,0,0-.348.7,2.071,2.071,0,0,0-.071.738,2.419,2.419,0,0,0,.208.8,2.593,2.593,0,0,0,.5.718,1.579,1.579,0,0,0,.806.469,1.265,1.265,0,0,0,1.566-.927,5.815,5.815,0,0,0,.027-1.8,8.07,8.07,0,0,1,.021-2.027,2.54,2.54,0,0,1,.575-1.141,2.753,2.753,0,0,1,.969-.753,2.625,2.625,0,0,1,2.12-.037,3.35,3.35,0,0,1,1.719,1.9,6.374,6.374,0,0,1,.3.989A7.725,7.725,0,0,1,1021.55,385.349Z" transform="translate(-905.076 -345.12)" fill="#013457"/>
    </g>
    <g id="Group_4" data-name="Group 4" transform="translate(111.477 165.767)">
      <path id="Path_18" data-name="Path 18" d="M146.2,848.1q-.094.128-.586.642a2.529,2.529,0,0,1-.522.414l-.224-.381a3.213,3.213,0,0,0,.332-1.309,2.157,2.157,0,0,0-.311-1.1,1.468,1.468,0,0,0-1.121-.749,3.5,3.5,0,0,0-2.229.583,4.485,4.485,0,0,0-.959.687,3.049,3.049,0,0,0-.576.85,1.438,1.438,0,0,0-.1.679,1.974,1.974,0,0,0,.274.9,1.836,1.836,0,0,0,.808.722,3.692,3.692,0,0,0,1.336.322,2.905,2.905,0,0,1,.272.386,3.524,3.524,0,0,1-.361.139l-.586.215-.147.036-.23.057a2.064,2.064,0,0,1-.716-.545,6.458,6.458,0,0,1-.765-1.078,5.475,5.475,0,0,1-.475-1.03,2.7,2.7,0,0,1-.155-.964,3.327,3.327,0,0,1,.213-1.132,2.851,2.851,0,0,1,.529-.853,3.538,3.538,0,0,1,.852-.678,3.214,3.214,0,0,1,2.542-.386,3.319,3.319,0,0,1,2.044,1.622,10.015,10.015,0,0,1,.521,1.008A7.041,7.041,0,0,1,146.2,848.1Z" transform="translate(-139.149 -844.36)" fill="#013457"/>
      <path id="Path_19" data-name="Path 19" d="M200.843,926.954a3.345,3.345,0,0,1,1.048-.645,2.838,2.838,0,0,1,.911-.19,3.138,3.138,0,0,1,1,.127,3.407,3.407,0,0,1,.936.418,4.309,4.309,0,0,1,.815.707,3.808,3.808,0,0,1,.9,1.546,3.006,3.006,0,0,1,.034,1.554,3.155,3.155,0,0,1-.925,1.6,3.291,3.291,0,0,1-2.366.9,3.414,3.414,0,0,1-2.477-1.253,5.172,5.172,0,0,1-.482-.6,2.709,2.709,0,0,1-.242-.422q-.16-.354-.175-.4a4.084,4.084,0,0,1-.119-1.042,3.174,3.174,0,0,1,.159-.882,4.116,4.116,0,0,1,.407-.748A3.334,3.334,0,0,1,200.843,926.954Zm4.227.606a1.414,1.414,0,0,0-.649-.418,1.579,1.579,0,0,0-.651-.067,2.649,2.649,0,0,0-.915.305,4.982,4.982,0,0,0-.936.7,3.662,3.662,0,0,0-.417.428c-.024.031-.067.083-.127.156a2.7,2.7,0,0,0-.318.429,5.288,5.288,0,0,0-.362.733,1.963,1.963,0,0,0-.07.649,1.393,1.393,0,0,0,.115.466,1.552,1.552,0,0,0,.3.478,1.989,1.989,0,0,0,.837.551,1.727,1.727,0,0,0,1.1-.031,3.67,3.67,0,0,0,1.31-.832q.286-.262.74-.751l.052-.08a1.948,1.948,0,0,1,.114-.17,2.115,2.115,0,0,0,.431-1.325A1.935,1.935,0,0,0,205.071,927.56Z" transform="translate(-192.57 -916.446)" fill="#013457"/>
      <path id="Path_20" data-name="Path 20" d="M275.251,988.924l.177-.291.339.235.118.076q.248.154.34.217c.032.022.123.089.274.2.033.026.061.048.085.065s.11.072.257.166.23.147.249.16.07.05.121.09q.228.984.337,1.655t.875,4.776l.069-.1.3-.474q.27-.416.414-.667t.368-.583q.223-.332.385-.616.313-.557.369-.636a.7.7,0,0,0,.162-.354.867.867,0,0,0-.292-.4,1.406,1.406,0,0,1-.264-.318l.167-.233.112.06.8.52.895.583q.09.057.17.112l-.175.262a1.052,1.052,0,0,1-.237-.058,2.108,2.108,0,0,0-.353-.121,1.508,1.508,0,0,0-.316-.012.3.3,0,0,0-.138.123c-.011.016-.047.074-.108.173q-.046.075-.228.338-.4.581-.6.936c-.044.075-.1.16-.156.252l-.925,1.432q-.1.15-.14.211l-.34.491-.131.216-.161.207q-.1.175-.119.207l-.146.212-.47-.3-.136-.82-.3-1.632-.21-1.148-.146-.856q-.156-.816-.3-1.455L276,990.79l-.991,1.51q-.09.139-.189.282l-.2.281-.338.54q-.214.336-.447.741a1.009,1.009,0,0,0-.081.16,1.176,1.176,0,0,0-.036.155,3.634,3.634,0,0,0,.621.552c.02.022.048.055.084.1l-.207.334-.159-.1q-.128-.088-.765-.617-.64-.43-.863-.561c-.149-.087-.229-.135-.243-.144a.93.93,0,0,1-.121-.107q.055-.1.1-.165c.02-.029.054-.076.1-.141a1.306,1.306,0,0,1,.2.107q.024.016.15.116a1.054,1.054,0,0,0,.432.225q.1-.007.256-.222.467-.615.563-.755l.152-.22.9-1.292.548-.819a3.1,3.1,0,0,0,.384-.684.418.418,0,0,0,.019-.223,1.14,1.14,0,0,0-.162-.431A3.875,3.875,0,0,0,275.251,988.924Z" transform="translate(-256.413 -971.602)" fill="#013457"/>
      <path id="Path_21" data-name="Path 21" d="M378.233,1047.849l.106-.324.384.151.133.047q.277.093.38.134.054.021.313.133c.038.019.071.033.1.044s.123.045.288.1.258.091.279.1.079.033.138.06q.447.906.706,1.534t1.944,4.449l.044-.113.188-.531q.167-.466.25-.744t.225-.652q.142-.374.234-.688.178-.613.214-.7a.7.7,0,0,0,.077-.382.863.863,0,0,0-.375-.319,1.4,1.4,0,0,1-.33-.249l.109-.265.123.033.9.322,1,.363c.067.023.131.046.192.07l-.111.3a1.045,1.045,0,0,1-.244,0,2.028,2.028,0,0,0-.372-.036,1.491,1.491,0,0,0-.311.06.3.3,0,0,0-.106.151q-.011.027-.065.193c-.018.056-.066.182-.145.382q-.252.656-.37,1.048c-.026.083-.058.177-.095.281l-.573,1.605c-.041.112-.07.191-.088.236l-.218.556-.079.24-.109.238c-.037.129-.06.2-.069.229l-.094.239-.527-.186-.319-.767-.67-1.52-.466-1.07-.337-.8q-.338-.758-.628-1.347l-.476-.953-.619,1.7q-.056.155-.12.318l-.13.319-.205.6q-.132.376-.266.823a.978.978,0,0,0-.042.174,1.189,1.189,0,0,0,0,.159,3.649,3.649,0,0,0,.731.4c.025.017.06.043.1.078l-.126.373-.178-.065q-.145-.057-.886-.426-.721-.273-.968-.349t-.269-.085a.93.93,0,0,1-.142-.077c.021-.072.042-.133.062-.184.013-.033.036-.087.068-.161a1.338,1.338,0,0,1,.217.059c.018.007.076.033.173.078a1.053,1.053,0,0,0,.472.12q.092-.029.2-.274.314-.705.376-.864l.1-.248.586-1.465.347-.922a3.1,3.1,0,0,0,.218-.754.419.419,0,0,0-.033-.221,1.141,1.141,0,0,0-.256-.382A3.867,3.867,0,0,0,378.233,1047.849Z" transform="translate(-348.35 -1023.56)" fill="#013457"/>
      <path id="Path_22" data-name="Path 22" d="M492.334,1083.021q.271.057.468.117a6.492,6.492,0,0,0,.869.189q.173.027.892.109,1.076.123,1.939.257l.869.125a7.656,7.656,0,0,1,.852.206.377.377,0,0,1,.046.272l-.154.988-.021.2c0,.019-.009.048-.018.085l-.2-.021c-.026,0-.08-.015-.162-.035q-.028-.1-.071-.3l-.139-.37a2.236,2.236,0,0,0-.238-.489,1.314,1.314,0,0,0-.3-.086l-.289-.069q-.44-.108-.953-.187-.585-.091-1.048-.143-.033.118-.161.943l-.12.806-.094.6a1.7,1.7,0,0,0,.2.047q.86.134,1.231.157a1.212,1.212,0,0,0,.466-.023.5.5,0,0,0,.186-.185,6.647,6.647,0,0,0,.278-.679l.063,0,.277.048q-.047.43-.081.65-.078.5-.108.646c-.02.1-.034.17-.042.224q-.02.129-.05.417c-.02.192-.037.334-.052.427l-.016.105-.341-.053c0-.053-.012-.163-.023-.328a1.965,1.965,0,0,0-.087-.583.355.355,0,0,0-.172-.159,3.87,3.87,0,0,0-.706-.144q-.725-.112-1.1-.131l-.025.163q-.089.571-.128.953l-.171,1.034a.257.257,0,0,0,.091.269,3.934,3.934,0,0,0,1.188.288,5.482,5.482,0,0,0,1.147.075,1.138,1.138,0,0,0,.616-.233,2.471,2.471,0,0,0,.682-.817c.1.006.183.014.247.023.035.006.087.016.157.03l-.055.2-.051.139-.316.88-.17.533q-.315-.034-.5-.062-.269-.042-1.427-.271-.815-.161-1.972-.341-.576-.089-1.423-.172l-.2-.031-.584-.071.051-.331a3.1,3.1,0,0,1,.373,0,2.34,2.34,0,0,0,.714-.046,1.009,1.009,0,0,0,.107-.342c.009-.054.021-.147.038-.279l.028-.148.267-1.81.089-.541.1-.771.089-.541.049-.6a.964.964,0,0,0,.005-.1.237.237,0,0,0-.133-.09l-.14-.051a3.172,3.172,0,0,0-.517-.149q-.09-.019-.208-.052Z" transform="translate(-449.874 -1054.876)" fill="#013457"/>
      <path id="Path_23" data-name="Path 23" d="M606.888,1091.17q.07.142.3.817a2.574,2.574,0,0,1,.123.655l-.441.021a3.221,3.221,0,0,0-1-.9,2.158,2.158,0,0,0-1.119-.236,1.467,1.467,0,0,0-1.184.644,3.506,3.506,0,0,0-.52,2.245,4.5,4.5,0,0,0,.162,1.168,3.037,3.037,0,0,0,.485.9,1.433,1.433,0,0,0,.553.406,1.979,1.979,0,0,0,.922.175,1.834,1.834,0,0,0,1.014-.38,3.689,3.689,0,0,0,.906-1.033,2.88,2.88,0,0,1,.469-.061,3.513,3.513,0,0,1-.045.385q-.011.078-.082.619l-.037.147-.057.23a2.057,2.057,0,0,1-.815.381,6.441,6.441,0,0,1-1.31.177,5.522,5.522,0,0,1-1.132-.058,2.69,2.69,0,0,1-.926-.311,3.323,3.323,0,0,1-.9-.715,2.853,2.853,0,0,1-.51-.865,3.542,3.542,0,0,1-.2-1.069,3.213,3.213,0,0,1,.839-2.43,3.321,3.321,0,0,1,2.386-1.056,10.04,10.04,0,0,1,1.135.007A7.014,7.014,0,0,1,606.888,1091.17Z" transform="translate(-547.082 -1061.93)" fill="#013457"/>
      <path id="Path_24" data-name="Path 24" d="M695.534,1070.849l.291-.074.067.064a1.737,1.737,0,0,0,.279.249c.043,0,.259-.051.648-.15q.362-.092.643-.168l.091-.035.568-.15,1.064-.267,1.453-.371.268-.109a.543.543,0,0,0,.073-.262q.008-.048.022-.132l.205-.057c.031-.008.079-.018.142-.031q.088.323.255.977l.112.417.057.241a1.079,1.079,0,0,1,.035.217,1.75,1.75,0,0,1-.319.162,3.268,3.268,0,0,1-.4-.464,2.229,2.229,0,0,0-.28-.339.278.278,0,0,0-.152-.046q-.119.005-1.005.232-.132.033-.325.1a2.508,2.508,0,0,0,.053.307l.166.629.353,1.382.395,1.487.151.612a1.624,1.624,0,0,0,.182.474,1.252,1.252,0,0,0,.294-.01c.026,0,.149-.008.369-.014a1.953,1.953,0,0,1,.27.011c.044.109.07.176.076.2a.758.758,0,0,1,.017.126c-.068.021-.124.037-.168.048a8.334,8.334,0,0,1-.832.175q-.347.051-1.236.278-.141.036-.813.268-.263.087-.343.107c-.015-.046-.028-.082-.037-.106l-.033-.107-.01-.038a.682.682,0,0,1,.339-.3,3.678,3.678,0,0,0,.623-.385.6.6,0,0,0,0-.249q-.111-.573-.426-1.8l-.477-1.771a7.939,7.939,0,0,0-.255-.881.122.122,0,0,0-.049-.055.117.117,0,0,0-.072-.009q-.151.019-.955.224a1.424,1.424,0,0,0-.57.236,2.884,2.884,0,0,0-.443.794c-.053.12-.1.185-.136.2a1.09,1.09,0,0,1-.324-.112,9.552,9.552,0,0,0,.092-1.326C695.522,1071.047,695.528,1070.917,695.534,1070.849Z" transform="translate(-629.928 -1042.818)" fill="#013457"/>
      <path id="Path_25" data-name="Path 25" d="M791.831,1051.029l-.146-.318q.075-.066.255-.208a2.116,2.116,0,0,0,.358-.341.832.832,0,0,0-.095-.416l-.243-.518-.452-1.01-.114-.236q-.366-.89-.377-.916l-.278-.583-.1-.244-.253-.493-.1-.185a1.085,1.085,0,0,0-.1-.127,1.9,1.9,0,0,0-.635.163,1.61,1.61,0,0,1-.161.057l-.187-.384,1.285-.525q.238-.1.3-.125.26-.119.817-.417.311-.17.393-.213c.029.054.053.1.07.139s.049.116.078.2a4.544,4.544,0,0,1-.349.3,3.232,3.232,0,0,0-.32.284,1.729,1.729,0,0,0,.126.343,3.269,3.269,0,0,0,.154.3q.329.751.513,1.153l.539,1.162.249.6.422.874.064.174a.337.337,0,0,0,.073.089,4.946,4.946,0,0,0,.523-.144l.284-.088a1.945,1.945,0,0,1,.118.213c.015.032.036.083.064.152a.657.657,0,0,0-.086.045c-.091.049-.144.077-.159.083a1,1,0,0,1-.121.039q-.066.019-.614.207l-.783.349q-.233.107-.658.355Q791.917,1050.985,791.831,1051.029Z" transform="translate(-712.675 -1020.442)" fill="#013457"/>
      <path id="Path_26" data-name="Path 26" d="M865.331,1003.023a3.353,3.353,0,0,1-.51-1.12,2.828,2.828,0,0,1-.077-.928,3.146,3.146,0,0,1,.249-.972,3.41,3.41,0,0,1,.53-.877,4.319,4.319,0,0,1,.8-.722,3.808,3.808,0,0,1,1.646-.705,3,3,0,0,1,1.545.157,3.156,3.156,0,0,1,1.471,1.115,3.292,3.292,0,0,1,.6,2.459,3.416,3.416,0,0,1-1.549,2.3,5.228,5.228,0,0,1-.659.4,2.736,2.736,0,0,1-.449.189q-.371.114-.418.124a4.089,4.089,0,0,1-1.048-.011,3.17,3.17,0,0,1-.856-.267,4.129,4.129,0,0,1-.692-.5A3.32,3.32,0,0,1,865.331,1003.023Zm1.123-4.121a1.413,1.413,0,0,0-.494.593,1.577,1.577,0,0,0-.148.638,2.648,2.648,0,0,0,.191.945,4.97,4.97,0,0,0,.578,1.015,3.58,3.58,0,0,0,.373.467c.028.028.074.076.139.146a2.717,2.717,0,0,0,.386.368,5.364,5.364,0,0,0,.682.45,1.97,1.97,0,0,0,.636.15,1.406,1.406,0,0,0,.477-.057,1.552,1.552,0,0,0,.51-.235,2,2,0,0,0,.651-.763,1.731,1.731,0,0,0,.1-1.1,3.675,3.675,0,0,0-.665-1.4q-.224-.316-.654-.827l-.073-.061a1.874,1.874,0,0,1-.155-.134,2.114,2.114,0,0,0-1.262-.592A1.938,1.938,0,0,0,866.454,998.9Z" transform="translate(-779.302 -979.567)" fill="#013457"/>
      <path id="Path_27" data-name="Path 27" d="M936.278,914.4l-.266-.212.275-.308.09-.108q.183-.227.258-.31.039-.044.233-.247.046-.044.075-.077t.2-.234c.111-.135.175-.21.19-.227s.058-.063.1-.109q1-.105,1.684-.13t4.847-.279l-.09-.081-.433-.36q-.379-.319-.611-.493t-.533-.437q-.3-.263-.564-.458-.513-.38-.586-.444c-.159-.138-.269-.206-.331-.2a.868.868,0,0,0-.429.241,1.392,1.392,0,0,1-.348.223l-.21-.194.073-.1.615-.733.689-.816c.045-.055.089-.107.132-.155l.238.206a1.021,1.021,0,0,1-.087.228,2.149,2.149,0,0,0-.163.336,1.464,1.464,0,0,0-.051.313.3.3,0,0,0,.1.152q.022.019.159.128c.046.036.148.125.307.268q.528.465.855.711.1.08.231.187l1.306,1.094c.091.077.155.132.191.165l.446.4.2.157.186.185c.108.079.171.127.191.144l.192.171-.357.429-.83.033-1.658.1-1.165.066-.867.039q-.828.054-1.481.122l-1.059.115,1.376,1.169q.127.106.257.223l.254.233.494.4q.307.254.68.535a1.017,1.017,0,0,0,.148.1,1.234,1.234,0,0,0,.149.055,3.661,3.661,0,0,0,.625-.548c.024-.017.061-.041.109-.071l.306.247-.122.144q-.1.115-.707.683-.506.583-.663.787t-.173.223a.889.889,0,0,1-.121.107c-.06-.045-.11-.086-.151-.122-.026-.023-.069-.064-.127-.12a1.312,1.312,0,0,1,.13-.183c.013-.015.057-.06.133-.135a1.049,1.049,0,0,0,.276-.4c0-.064-.06-.158-.188-.281q-.553-.539-.68-.652l-.2-.178-1.17-1.057-.745-.645a3.085,3.085,0,0,0-.631-.466.421.421,0,0,0-.219-.046,1.141,1.141,0,0,0-.448.108A3.817,3.817,0,0,0,936.278,914.4Z" transform="translate(-842.187 -900.592)" fill="#013457"/>
      <path id="Path_28" data-name="Path 28" d="M1013.411,843.985a3.2,3.2,0,0,1,.476.176,7.182,7.182,0,0,1,.7.341,1.04,1.04,0,0,1,.154.112l-.012.049-.2.29-.038.045a2.518,2.518,0,0,0-.965-.068,1.16,1.16,0,0,0-.773.555,1.088,1.088,0,0,0-.164.778.8.8,0,0,0,.395.553.855.855,0,0,0,.655.062,2.766,2.766,0,0,0,1.055-.722,5.529,5.529,0,0,1,.6-.478,2.093,2.093,0,0,1,.686-.339,1.812,1.812,0,0,1,.7-.054,1.927,1.927,0,0,1,.657.257,2.484,2.484,0,0,1,.69.6,1.34,1.34,0,0,1,.233.478,2.847,2.847,0,0,1,.068.562,2.235,2.235,0,0,1-.073.691,3.377,3.377,0,0,1-.349.771,4.071,4.071,0,0,1-.492.652l-.439.418a.961.961,0,0,1-.259.2.186.186,0,0,1-.1-.009l-.046-.027q-.046-.027-.587-.313-.277-.151-.391-.216l-.159-.093.219-.395q.584.071.715.069a1.6,1.6,0,0,0,.514-.084,1.386,1.386,0,0,0,.429-.252,1.607,1.607,0,0,0,.354-.428,1.738,1.738,0,0,0,.193-.554,1.06,1.06,0,0,0-.062-.622.848.848,0,0,0-1.12-.486,3.9,3.9,0,0,0-.989.693,5.42,5.42,0,0,1-1.11.786,1.708,1.708,0,0,1-.846.136,1.847,1.847,0,0,1-.79-.23,1.762,1.762,0,0,1-.854-1.138,2.247,2.247,0,0,1,.355-1.68,4.229,4.229,0,0,1,.418-.554A5.212,5.212,0,0,1,1013.411,843.985Z" transform="translate(-909.267 -843.985)" fill="#013457"/>
    </g>
  </g>
</svg>
