<svg xmlns="http://www.w3.org/2000/svg" width="37.577" height="28.636" viewBox="0 0 37.577 28.636">
  <path id="Icon_awesome-sign-out-alt" data-name="Icon awesome-sign-out-alt" d="M.52,20.083,13.046,32.61A1.792,1.792,0,0,0,16.1,31.342V24.184h10.14a1.785,1.785,0,0,0,1.789-1.789V15.237a1.785,1.785,0,0,0-1.789-1.789H16.1V6.29a1.793,1.793,0,0,0-3.057-1.268L.52,17.548A1.8,1.8,0,0,0,.52,20.083ZM23.261,32.237V29.254a.9.9,0,0,1,.895-.895h6.263a2.383,2.383,0,0,0,2.386-2.386V11.658a2.383,2.383,0,0,0-2.386-2.386H24.156a.9.9,0,0,1-.895-.895V5.395a.9.9,0,0,1,.895-.895h6.263a7.16,7.16,0,0,1,7.158,7.158V25.974a7.16,7.16,0,0,1-7.158,7.158H24.156A.9.9,0,0,1,23.261,32.237Z" transform="translate(0 -4.499)" fill="#89dfed"/>
</svg>
