<svg xmlns="http://www.w3.org/2000/svg" width="18.322" height="16.951" viewBox="0 0 18.322 16.951">
  <g id="Icon_ionic-md-chatboxes" data-name="Icon ionic-md-chatboxes" transform="translate(-2.875 -4)">
    <path id="Path_1371" data-name="Path 1371" d="M18.093,4.5H3.787a.412.412,0,0,0-.412.35v9.177a.43.43,0,0,0,.412.369H6.245V18.2L10.106,14.4h7.987a.346.346,0,0,0,.319-.369V4.85A.328.328,0,0,0,18.093,4.5Z" fill="none" stroke="#113c6f" stroke-width="1"/>
    <path id="Path_1372" data-name="Path 1372" d="M24.475,8.93H23.087v7.136c0,.685-.3,1.132-1.078,1.132H14.266L12.6,18.869h5.556l3.861,3.813V18.869h2.459A.353.353,0,0,0,24.8,18.5V9.32A.371.371,0,0,0,24.475,8.93Z" transform="translate(-3.604 -1.731)" fill="#113c6f"/>
  </g>
</svg>
