<svg xmlns="http://www.w3.org/2000/svg" width="17" height="17" viewBox="0 0 17 17">
  <g id="Group_26" data-name="Group 26" transform="translate(0.5 0.5)">
    <path id="_9055248_bxs_category_alt_icon_1_" data-name="9055248_bxs_category_alt_icon (1)" d="M9.222,3H3.889A.889.889,0,0,0,3,3.889v.889a.889.889,0,0,0,.889.889H9.222a.889.889,0,0,0,.889-.889V3.889A.889.889,0,0,0,9.222,3Zm8.889,13.333H12.778a.889.889,0,0,0-.889.889v.889a.889.889,0,0,0,.889.889h5.333A.889.889,0,0,0,19,18.111v-.889A.889.889,0,0,0,18.111,16.333Z" transform="translate(-3 -3)" fill="none" stroke="#113c6f" stroke-width="1"/>
    <path id="_9055248_bxs_category_alt_icon_1_2" data-name="9055248_bxs_category_alt_icon (1)" d="M10.556,0H.889A.889.889,0,0,0,0,.889V6.222a.889.889,0,0,0,.889.889h9.667a.889.889,0,0,0,.889-.889V.889A.889.889,0,0,0,10.556,0Zm4.556,8.889H5.444a.889.889,0,0,0-.889.889v5.333A.889.889,0,0,0,5.444,16h9.667A.889.889,0,0,0,16,15.111V9.778A.889.889,0,0,0,15.111,8.889Z" transform="translate(16 0) rotate(90)" fill="none" stroke="#113c6f" stroke-width="1"/>
  </g>
</svg>
