<svg xmlns="http://www.w3.org/2000/svg" width="11.689" height="11.689" viewBox="0 0 11.689 11.689">
  <path id="Icon_awesome-chess-queen" data-name="Icon awesome-chess-queen" d="M5.845,2.557A1.278,1.278,0,1,0,4.566,1.278,1.278,1.278,0,0,0,5.845,2.557Zm4.018,7.671H1.826a.365.365,0,0,0-.365.365v.731a.365.365,0,0,0,.365.365H9.863a.365.365,0,0,0,.365-.365v-.731A.365.365,0,0,0,9.863,10.228ZM11.526,4.2l-.651-.363a.373.373,0,0,0-.509.107,1.086,1.086,0,0,1-1.078.416A1.137,1.137,0,0,1,8.4,3.228.306.306,0,0,0,8.1,2.922H7.21a.3.3,0,0,0-.294.226,1.1,1.1,0,0,1-2.145,0,.3.3,0,0,0-.294-.226H3.593a.306.306,0,0,0-.306.306,1.136,1.136,0,0,1-1.02,1.153,1.084,1.084,0,0,1-.948-.437.37.37,0,0,0-.5-.1l-.652.365a.365.365,0,0,0-.124.467L2.38,9.5H9.309L11.65,4.672a.365.365,0,0,0-.124-.467Z" transform="translate(0)"/>
</svg>
