<svg xmlns="http://www.w3.org/2000/svg" width="53.778" height="53.757" viewBox="0 0 53.778 53.757">
  <path id="Icon_awesome-user-circle" data-name="Icon awesome-user-circle" d="M26.889.563A26.878,26.878,0,1,0,53.778,27.441,26.879,26.879,0,0,0,26.889.563Zm0,10.4A9.538,9.538,0,1,1,17.348,20.5,9.54,9.54,0,0,1,26.889,10.967Zm0,37.283A20.78,20.78,0,0,1,11,40.858a12.089,12.089,0,0,1,10.68-6.481,2.654,2.654,0,0,1,.77.119,14.361,14.361,0,0,0,4.435.748,14.306,14.306,0,0,0,4.435-.748,2.654,2.654,0,0,1,.77-.119,12.089,12.089,0,0,1,10.68,6.481A20.78,20.78,0,0,1,26.889,48.25Z" transform="translate(0 -0.563)" fill="#dbdbdb"/>
</svg>
