<?xml version="1.0" encoding="iso-8859-1"?>
<!-- Generator: Adobe Illustrator 19.0.0, SVG Export Plug-In . SVG Version: 6.00 Build 0)  -->
<svg version="1.1" id="Capa_1" xmlns="http://www.w3.org/2000/svg" xmlns:xlink="http://www.w3.org/1999/xlink" x="0px" y="0px"
	 viewBox="0 0 496.032 496.032" style="enable-background:new 0 0 496.032 496.032;" xml:space="preserve" fill="#2EB1BF">
<g>
	<g>
		<path d="M495.928,183.479c-0.017-0.327-0.055-0.653-0.112-0.976c-0.072-0.34-0.168-0.674-0.288-1
			c-0.124-0.376-0.276-0.743-0.456-1.096c-0.052-0.174-0.113-0.345-0.184-0.512c-0.056-0.104-0.168-0.152-0.232-0.256
			c-0.184-0.265-0.388-0.516-0.608-0.752c-0.272-0.32-0.568-0.616-0.888-0.888c-0.236-0.22-0.487-0.424-0.752-0.608
			c-0.104-0.064-0.152-0.176-0.256-0.232l-240-144c-2.535-1.523-5.705-1.523-8.24,0l-240,144c-0.096,0.056-0.152,0.16-0.248,0.232
			c-0.281,0.186-0.549,0.392-0.8,0.616c-0.315,0.271-0.609,0.565-0.88,0.88c-0.218,0.238-0.421,0.489-0.608,0.752
			c-0.064,0.104-0.176,0.152-0.232,0.256c-0.072,0.169-0.133,0.343-0.184,0.52c-0.177,0.349-0.329,0.71-0.456,1.08
			c-0.12,0.329-0.216,0.665-0.288,1.008c-0.057,0.323-0.095,0.649-0.112,0.976c0,0.184-0.104,0.344-0.104,0.536v256
			c0,13.255,10.745,24,24,24h448.032c13.255,0,24-10.745,24-24v-256C496.032,183.823,495.936,183.663,495.928,183.479z
			 M248.032,49.343L472.48,184.015L248.032,318.687L23.584,184.015L248.032,49.343z M480.032,440.015c0,4.418-3.582,8-8,8h-448
			c-4.418,0-8-3.582-8-8V198.143l227.88,136.728c2.535,1.523,5.705,1.523,8.24,0l227.88-136.728V440.015z"/>
	</g>
</g>
<g>
	<g>
		<path d="M56.032,416.015h-8v-24c0-4.418-3.582-8-8-8s-8,3.582-8,8v32c0,4.418,3.582,8,8,8h16c4.418,0,8-3.582,8-8
			S60.45,416.015,56.032,416.015z"/>
	</g>
</g>
<g>
	<g>
		<path d="M104.032,416.015h-16c-4.418,0-8,3.582-8,8s3.582,8,8,8h16c4.418,0,8-3.582,8-8S108.45,416.015,104.032,416.015z"/>
	</g>
</g>
<g>
</g>
<g>
</g>
<g>
</g>
<g>
</g>
<g>
</g>
<g>
</g>
<g>
</g>
<g>
</g>
<g>
</g>
<g>
</g>
<g>
</g>
<g>
</g>
<g>
</g>
<g>
</g>
<g>
</g>
</svg>
