<svg xmlns="http://www.w3.org/2000/svg" width="24" height="24" viewBox="0 0 24 24">
  <g id="Group_4562" data-name="Group 4562" transform="translate(-1187 -1654)">
    <rect id="Rectangle_2125" data-name="Rectangle 2125" width="24" height="24" transform="translate(1187 1654)" fill="#fff"/>
    <path id="Icon_ionic-ios-checkmark" data-name="Icon ionic-ios-checkmark" d="M30.831,14.044l-1.676-1.723a.36.36,0,0,0-.267-.114h0a.346.346,0,0,0-.267.114L17,24.023,12.777,19.8a.368.368,0,0,0-.533,0L10.549,21.49a.379.379,0,0,0,0,.543l5.332,5.332A1.686,1.686,0,0,0,17,27.908a1.767,1.767,0,0,0,1.1-.524h.01l12.731-12.8A.407.407,0,0,0,30.831,14.044Z" transform="translate(1178.313 1645.793)" fill="#009f05"/>
  </g>
</svg>
