<svg xmlns="http://www.w3.org/2000/svg" width="24" height="24" viewBox="0 0 24 24">
  <g id="Group_4565" data-name="Group 4565" transform="translate(-1187 -1654)">
    <rect id="Rectangle_2125" data-name="Rectangle 2125" width="24" height="24" transform="translate(1187 1654)" fill="#fff"/>
    <path id="_103181_close_remove_delete_cross_icon" data-name="103181_close_remove_delete_cross_icon" d="M22.245,4.015a.808.808,0,0,1,0,1.139l-6.276,6.27a.809.809,0,0,0,0,1.14l6.273,6.272a.809.809,0,0,1,0,1.14l-2.285,2.277a.814.814,0,0,1-1.142,0l-6.271-6.271a.811.811,0,0,0-1.141,0L5.127,22.249a.811.811,0,0,1-1.141,0L1.7,19.969a.809.809,0,0,1,0-1.14L7.982,12.56a.809.809,0,0,0,0-1.14L1.709,5.147a.808.808,0,0,1,0-1.14L3.993,1.729a.813.813,0,0,1,1.142,0L11.4,8a.81.81,0,0,0,1.141,0l6.276-6.267a.812.812,0,0,1,1.141,0Z" transform="translate(1187.521 1654.004)" fill="#fc0000"/>
  </g>
</svg>
